<svg width="20" height="20" viewBox="0 0 20 20" fill="none" xmlns="http://www.w3.org/2000/svg">
<path d="M5.03841 7.12175C4.62637 7.12175 4.22358 6.99956 3.88097 6.77064C3.53837 6.54172 3.27135 6.21635 3.11366 5.83567C2.95598 5.45499 2.91472 5.0361 2.99511 4.63197C3.0755 4.22785 3.27391 3.85663 3.56527 3.56527C3.85663 3.27391 4.22785 3.0755 4.63197 2.99511C5.0361 2.91472 5.45499 2.95598 5.83567 3.11366C6.21635 3.27135 6.54172 3.53837 6.77064 3.88097C6.99956 4.22358 7.12175 4.62637 7.12175 5.03841C7.12115 5.59077 6.90147 6.12033 6.5109 6.5109C6.12033 6.90147 5.59077 7.12115 5.03841 7.12175Z" fill="#CFF9E6"/>
<path d="M10.0384 7.12175C9.62637 7.12175 9.22358 6.99956 8.88097 6.77064C8.53837 6.54172 8.27135 6.21635 8.11366 5.83567C7.95598 5.45499 7.91472 5.0361 7.99511 4.63197C8.0755 4.22785 8.27391 3.85663 8.56527 3.56527C8.85663 3.27391 9.22785 3.0755 9.63197 2.99511C10.0361 2.91472 10.455 2.95598 10.8357 3.11366C11.2163 3.27135 11.5417 3.53837 11.7706 3.88097C11.9996 4.22358 12.1217 4.62637 12.1217 5.03841C12.1212 5.59077 11.9015 6.12033 11.5109 6.5109C11.1203 6.90147 10.5908 7.12115 10.0384 7.12175Z" fill="#CFF9E6"/>
<path d="M15.0384 7.12175C14.6264 7.12175 14.2236 6.99956 13.881 6.77064C13.5384 6.54172 13.2713 6.21635 13.1137 5.83567C12.956 5.45499 12.9147 5.0361 12.9951 4.63197C13.0755 4.22785 13.2739 3.85663 13.5653 3.56527C13.8566 3.27391 14.2278 3.0755 14.632 2.99511C15.0361 2.91472 15.455 2.95598 15.8357 3.11366C16.2163 3.27135 16.5417 3.53837 16.7706 3.88097C16.9996 4.22358 17.1217 4.62637 17.1217 5.03841C17.1212 5.59077 16.9015 6.12033 16.5109 6.5109C16.1203 6.90147 15.5908 7.12115 15.0384 7.12175Z" fill="#CFF9E6"/>
<path d="M5.03841 17.0413C4.62637 17.0413 4.22358 16.9191 3.88097 16.6902C3.53837 16.4613 3.27135 16.1359 3.11366 15.7553C2.95598 15.3746 2.91472 14.9557 2.99511 14.5516C3.0755 14.1474 3.27391 13.7762 3.56527 13.4849C3.85663 13.1935 4.22785 12.9951 4.63197 12.9147C5.0361 12.8343 5.45499 12.8756 5.83567 13.0332C6.21635 13.1909 6.54172 13.458 6.77064 13.8006C6.99956 14.1432 7.12175 14.546 7.12175 14.958C7.12115 15.5104 6.90147 16.0399 6.5109 16.4305C6.12033 16.8211 5.59077 17.0407 5.03841 17.0413Z" fill="#CFF9E6"/>
<path d="M10.0384 17.0413C9.62637 17.0413 9.22358 16.9191 8.88097 16.6902C8.53837 16.4613 8.27135 16.1359 8.11366 15.7553C7.95598 15.3746 7.91472 14.9557 7.99511 14.5516C8.0755 14.1474 8.27391 13.7762 8.56527 13.4849C8.85663 13.1935 9.22785 12.9951 9.63197 12.9147C10.0361 12.8343 10.455 12.8756 10.8357 13.0332C11.2163 13.1909 11.5417 13.458 11.7706 13.8006C11.9996 14.1432 12.1217 14.546 12.1217 14.958C12.1212 15.5104 11.9015 16.0399 11.5109 16.4305C11.1203 16.8211 10.5908 17.0407 10.0384 17.0413Z" fill="#CFF9E6"/>
<path d="M15.0384 17.0413C14.6264 17.0413 14.2236 16.9191 13.881 16.6902C13.5384 16.4613 13.2713 16.1359 13.1137 15.7553C12.956 15.3746 12.9147 14.9557 12.9951 14.5516C13.0755 14.1474 13.2739 13.7762 13.5653 13.4849C13.8566 13.1935 14.2278 12.9951 14.632 12.9147C15.0361 12.8343 15.455 12.8756 15.8357 13.0332C16.2163 13.1909 16.5417 13.458 16.7706 13.8006C16.9996 14.1432 17.1217 14.546 17.1217 14.958C17.1212 15.5104 16.9015 16.0399 16.5109 16.4305C16.1203 16.8211 15.5908 17.0407 15.0384 17.0413Z" fill="#CFF9E6"/>
<path d="M5.03841 12.083C4.62637 12.083 4.22358 11.9608 3.88097 11.7319C3.53837 11.503 3.27135 11.1776 3.11366 10.7969C2.95598 10.4162 2.91472 9.99735 2.99511 9.59323C3.0755 9.1891 3.27391 8.81789 3.56527 8.52653C3.85663 8.23517 4.22785 8.03675 4.63197 7.95636C5.0361 7.87598 5.45499 7.91723 5.83567 8.07492C6.21635 8.2326 6.54172 8.49962 6.77064 8.84223C6.99956 9.18483 7.12175 9.58762 7.12175 9.99966C7.12115 10.552 6.90147 11.0816 6.5109 11.4722C6.12033 11.8627 5.59077 12.0824 5.03841 12.083Z" fill="#CFF9E6"/>
<path d="M10.0384 12.083C9.62637 12.083 9.22358 11.9608 8.88097 11.7319C8.53837 11.503 8.27135 11.1776 8.11366 10.7969C7.95598 10.4162 7.91472 9.99735 7.99511 9.59323C8.0755 9.1891 8.27391 8.81789 8.56527 8.52653C8.85663 8.23517 9.22785 8.03675 9.63197 7.95636C10.0361 7.87598 10.455 7.91723 10.8357 8.07492C11.2163 8.2326 11.5417 8.49962 11.7706 8.84223C11.9996 9.18483 12.1217 9.58762 12.1217 9.99966C12.1212 10.552 11.9015 11.0816 11.5109 11.4722C11.1203 11.8627 10.5908 12.0824 10.0384 12.083Z" fill="#CFF9E6"/>
<path d="M15.0384 12.083C14.6264 12.083 14.2236 11.9608 13.881 11.7319C13.5384 11.503 13.2713 11.1776 13.1137 10.7969C12.956 10.4162 12.9147 9.99735 12.9951 9.59323C13.0755 9.1891 13.2739 8.81789 13.5653 8.52653C13.8566 8.23517 14.2278 8.03675 14.632 7.95636C15.0361 7.87598 15.455 7.91723 15.8357 8.07492C16.2163 8.2326 16.5417 8.49962 16.7706 8.84223C16.9996 9.18483 17.1217 9.58762 17.1217 9.99966C17.1212 10.552 16.9015 11.0816 16.5109 11.4722C16.1203 11.8627 15.5908 12.0824 15.0384 12.083Z" fill="#CFF9E6"/>
</svg>
