<svg width="20" height="20" viewBox="0 0 20 20" fill="none" xmlns="http://www.w3.org/2000/svg">
<path d="M7.29315 4.29267C7.65929 3.92672 8.23833 3.90398 8.63104 4.22431L8.70672 4.29267L12.5316 8.11754C12.6849 8.27086 12.8434 8.42781 12.9662 8.57245C13.0965 8.72598 13.2444 8.93018 13.3324 9.20071C13.452 9.56889 13.452 9.96616 13.3324 10.3343L13.2974 10.4328C13.2083 10.6551 13.0802 10.8283 12.9662 10.9626C12.8434 11.1072 12.6848 11.2643 12.5316 11.4175L8.70672 15.2424L8.63104 15.3107C8.23834 15.6309 7.65923 15.6082 7.29315 15.2424C6.90271 14.8519 6.90285 14.2185 7.29315 13.828L11.118 10.0031C11.2019 9.91925 11.2678 9.85271 11.3239 9.79478C11.3328 9.78559 11.3412 9.77624 11.3491 9.76793C11.341 9.75943 11.333 9.74969 11.3239 9.74026C11.2677 9.68228 11.202 9.61589 11.118 9.53193L7.29315 5.70706L7.22397 5.63137C6.90357 5.23867 6.92719 4.65884 7.29315 4.29267Z" fill="#4D4D5C"/>
</svg>
