<svg width="48" height="48" viewBox="0 0 48 48" fill="none" xmlns="http://www.w3.org/2000/svg">
<path d="M35.2009 10.6205L23.9009 4.54055C22.7009 3.90055 21.2809 3.90055 20.0809 4.54055L8.80094 10.6205C7.98094 11.0805 7.46094 11.9605 7.46094 12.9205C7.46094 13.9005 7.96094 14.7805 8.80094 15.2205L20.1009 21.3005C20.7009 21.6205 21.3609 21.7805 22.0009 21.7805C22.6409 21.7805 23.3209 21.6205 23.9009 21.3005L35.2009 15.2205C36.0209 14.7805 36.5409 13.9005 36.5409 12.9205C36.5409 11.9605 36.0209 11.0805 35.2009 10.6205Z" fill="#111114"/>
<path d="M18.24 23.4212L7.74 18.1812C6.92 17.7612 6 17.8212 5.22 18.2812C4.46 18.7612 4 19.5812 4 20.4812V30.4012C4 32.1212 4.96 33.6612 6.5 34.4412L17 39.6812C17.36 39.8612 17.76 39.9612 18.16 39.9612C18.62 39.9612 19.1 39.8212 19.52 39.5812C20.28 39.1012 20.74 38.2812 20.74 37.3812V27.4612C20.72 25.7412 19.76 24.2012 18.24 23.4212Z" fill="#111114"/>
<path d="M39.9993 20.4812V25.4012C39.0393 25.1212 38.0193 25.0012 36.9993 25.0012C34.2793 25.0012 31.6193 25.9412 29.5193 27.6212C26.6393 29.8812 24.9993 33.3012 24.9993 37.0012C24.9993 37.9812 25.1193 38.9612 25.3793 39.9012C25.0793 39.8612 24.7793 39.7412 24.4993 39.5612C23.7393 39.1012 23.2793 38.2812 23.2793 37.3812V27.4612C23.2793 25.7412 24.2393 24.2012 25.7593 23.4212L36.2593 18.1812C37.0793 17.7612 37.9993 17.8212 38.7793 18.2812C39.5393 18.7612 39.9993 19.5812 39.9993 20.4812Z" fill="#111114"/>
<path d="M44 31.4C44 31.38 43.98 31.36 43.96 31.34C43.88 31.22 43.78 31.1 43.68 31C43.66 30.98 43.64 30.94 43.62 30.92C42 29.12 39.62 28 37 28C34.48 28 32.18 29.04 30.54 30.72C28.96 32.34 28 34.56 28 37C28 38.68 28.48 40.28 29.3 41.64C29.74 42.38 30.3 43.06 30.94 43.62C30.98 43.64 31 43.66 31.02 43.68C31.12 43.78 31.22 43.86 31.34 43.96C31.34 43.96 31.34 43.96 31.36 43.96C31.38 43.98 31.4 44 31.42 44C32.92 45.26 34.86 46 37 46C40.28 46 43.14 44.24 44.7 41.64C45.16 40.86 45.52 40 45.74 39.1C45.92 38.42 46 37.72 46 37C46 34.88 45.26 32.92 44 31.4ZM40.36 38.46H38.5V40.4C38.5 41.22 37.82 41.9 37 41.9C36.18 41.9 35.5 41.22 35.5 40.4V38.46H33.64C32.82 38.46 32.14 37.78 32.14 36.96C32.14 36.14 32.82 35.46 33.64 35.46H35.5V33.68C35.5 32.86 36.18 32.18 37 32.18C37.82 32.18 38.5 32.86 38.5 33.68V35.46H40.36C41.18 35.46 41.86 36.14 41.86 36.96C41.86 37.78 41.2 38.46 40.36 38.46Z" fill="#111114"/>
</svg>
