<svg width="48" height="48" viewBox="0 0 48 48" fill="none" xmlns="http://www.w3.org/2000/svg">
<path d="M32 4H16C10.48 4 6 8.48 6 14V34C6 39.52 10.48 44 16 44H32C37.52 44 42 39.52 42 34V14C42 8.48 37.52 4 32 4ZM17.72 37.26C17.34 37.64 16.84 37.84 16.32 37.84C15.78 37.84 15.28 37.64 14.9 37.26C14.52 36.88 14.3 36.38 14.3 35.84C14.3 35.32 14.52 34.8 14.9 34.42C15.08 34.24 15.3 34.1 15.54 34C16.04 33.8 16.58 33.8 17.08 34C17.2 34.04 17.32 34.1 17.42 34.18C17.54 34.24 17.64 34.34 17.72 34.42C18.1 34.8 18.32 35.32 18.32 35.84C18.32 36.38 18.1 36.88 17.72 37.26ZM14.3 27.84C14.3 27.58 14.36 27.32 14.46 27.08C14.56 26.82 14.7 26.62 14.9 26.42C15.36 25.96 16.06 25.74 16.7 25.88C16.82 25.9 16.96 25.94 17.08 26C17.2 26.04 17.32 26.1 17.42 26.18C17.54 26.24 17.64 26.34 17.72 26.42C17.9 26.62 18.06 26.82 18.16 27.08C18.26 27.32 18.3 27.58 18.3 27.84C18.3 28.38 18.1 28.88 17.72 29.26C17.34 29.64 16.84 29.84 16.32 29.84C16.04 29.84 15.78 29.78 15.54 29.68C15.3 29.58 15.08 29.44 14.9 29.26C14.52 28.88 14.3 28.38 14.3 27.84ZM25.72 37.26C25.54 37.44 25.32 37.58 25.08 37.68C24.84 37.78 24.58 37.84 24.3 37.84C23.78 37.84 23.28 37.64 22.9 37.26C22.52 36.88 22.3 36.38 22.3 35.84C22.3 35.7 22.32 35.58 22.34 35.44C22.38 35.32 22.42 35.2 22.46 35.08C22.52 34.96 22.58 34.84 22.64 34.72C22.72 34.62 22.8 34.52 22.9 34.42C23.08 34.24 23.3 34.1 23.54 34C24.28 33.7 25.16 33.86 25.72 34.42C26.1 34.8 26.3 35.32 26.3 35.84C26.3 36.38 26.1 36.88 25.72 37.26ZM25.72 29.26C25.34 29.64 24.84 29.84 24.3 29.84C23.78 29.84 23.28 29.64 22.9 29.26C22.52 28.88 22.3 28.38 22.3 27.84C22.3 27.32 22.52 26.8 22.9 26.42C23.64 25.68 24.98 25.68 25.72 26.42C25.9 26.62 26.06 26.82 26.16 27.08C26.26 27.32 26.3 27.58 26.3 27.84C26.3 28.38 26.1 28.88 25.72 29.26ZM18 20.92C15.94 20.92 14.24 19.24 14.24 17.16V15.16C14.24 13.1 15.92 11.4 18 11.4H30C32.06 11.4 33.76 13.08 33.76 15.16V17.16C33.76 19.22 32.08 20.92 30 20.92H18ZM33.72 37.26C33.34 37.64 32.84 37.84 32.3 37.84C32.04 37.84 31.78 37.78 31.54 37.68C31.3 37.58 31.08 37.44 30.9 37.26C30.52 36.88 30.32 36.38 30.32 35.84C30.32 35.32 30.52 34.8 30.9 34.42C31.44 33.86 32.34 33.7 33.08 34C33.32 34.1 33.54 34.24 33.72 34.42C34.1 34.8 34.3 35.32 34.3 35.84C34.3 36.38 34.1 36.88 33.72 37.26ZM34.16 28.6C34.06 28.84 33.92 29.06 33.72 29.26C33.34 29.64 32.84 29.84 32.3 29.84C31.78 29.84 31.28 29.64 30.9 29.26C30.52 28.88 30.3 28.38 30.3 27.84C30.3 27.32 30.52 26.8 30.9 26.42C31.64 25.68 32.98 25.68 33.72 26.42C34.1 26.8 34.32 27.32 34.32 27.84C34.32 28.1 34.26 28.36 34.16 28.6Z" fill="#111114"/>
</svg>
