<svg width="48" height="48" viewBox="0 0 48 48" fill="none" xmlns="http://www.w3.org/2000/svg">
<path d="M33.5005 7.12V4C33.5005 3.18 32.8205 2.5 32.0005 2.5C31.1805 2.5 30.5005 3.18 30.5005 4V7H17.5005V4C17.5005 3.18 16.8205 2.5 16.0005 2.5C15.1805 2.5 14.5005 3.18 14.5005 4V7.12C9.10046 7.62 6.48046 10.84 6.08046 15.62C6.04046 16.2 6.52046 16.68 7.08046 16.68H40.9205C41.5005 16.68 41.9805 16.18 41.9205 15.62C41.5205 10.84 38.9005 7.62 33.5005 7.12Z" fill="#111114"/>
<path d="M38 30C33.58 30 30 33.58 30 38C30 39.5 30.42 40.92 31.16 42.12C32.54 44.44 35.08 46 38 46C40.92 46 43.46 44.44 44.84 42.12C45.58 40.92 46 39.5 46 38C46 33.58 42.42 30 38 30ZM42.14 37.14L37.88 41.08C37.6 41.34 37.22 41.48 36.86 41.48C36.48 41.48 36.1 41.34 35.8 41.04L33.82 39.06C33.24 38.48 33.24 37.52 33.82 36.94C34.4 36.36 35.36 36.36 35.94 36.94L36.9 37.9L40.1 34.94C40.7 34.38 41.66 34.42 42.22 35.02C42.78 35.62 42.74 36.56 42.14 37.14Z" fill="#111114"/>
<path d="M40 19.6797H8C6.9 19.6797 6 20.5797 6 21.6797V33.9997C6 39.9997 9 43.9997 16 43.9997H25.86C27.24 43.9997 28.2 42.6597 27.76 41.3597C27.36 40.1997 27.02 38.9197 27.02 37.9997C27.02 31.9397 31.96 26.9997 38.02 26.9997C38.6 26.9997 39.18 27.0397 39.74 27.1397C40.94 27.3197 42.02 26.3797 42.02 25.1797V21.6997C42 20.5797 41.1 19.6797 40 19.6797ZM18.42 36.4197C18.04 36.7797 17.52 36.9997 17 36.9997C16.48 36.9997 15.96 36.7797 15.58 36.4197C15.22 36.0397 15 35.5197 15 34.9997C15 34.4797 15.22 33.9597 15.58 33.5797C15.78 33.3997 15.98 33.2597 16.24 33.1597C16.98 32.8397 17.86 33.0197 18.42 33.5797C18.78 33.9597 19 34.4797 19 34.9997C19 35.5197 18.78 36.0397 18.42 36.4197ZM18.42 29.4197C18.32 29.4997 18.22 29.5797 18.12 29.6597C18 29.7397 17.88 29.7997 17.76 29.8397C17.64 29.8997 17.52 29.9397 17.4 29.9597C17.26 29.9797 17.12 29.9997 17 29.9997C16.48 29.9997 15.96 29.7797 15.58 29.4197C15.22 29.0397 15 28.5197 15 27.9997C15 27.4797 15.22 26.9597 15.58 26.5797C16.04 26.1197 16.74 25.8997 17.4 26.0397C17.52 26.0597 17.64 26.0997 17.76 26.1597C17.88 26.1997 18 26.2597 18.12 26.3397C18.22 26.4197 18.32 26.4997 18.42 26.5797C18.78 26.9597 19 27.4797 19 27.9997C19 28.5197 18.78 29.0397 18.42 29.4197ZM25.42 29.4197C25.04 29.7797 24.52 29.9997 24 29.9997C23.48 29.9997 22.96 29.7797 22.58 29.4197C22.22 29.0397 22 28.5197 22 27.9997C22 27.4797 22.22 26.9597 22.58 26.5797C23.34 25.8397 24.68 25.8397 25.42 26.5797C25.78 26.9597 26 27.4797 26 27.9997C26 28.5197 25.78 29.0397 25.42 29.4197Z" fill="#111114"/>
</svg>
