<svg width="20" height="20" viewBox="0 0 20 20" fill="none" xmlns="http://www.w3.org/2000/svg">
<path d="M7.1652 15.7721C7.88061 15.8449 8.43868 16.4495 8.4388 17.1841C8.43875 17.9678 7.80329 18.6034 7.01953 18.6034C6.28497 18.6032 5.68044 18.0451 5.60758 17.3298L5.60026 17.1841L5.60758 17.0392C5.68023 16.3237 6.28482 15.7649 7.01953 15.7648L7.1652 15.7721Z" fill="#4D4D5C"/>
<path d="M16.5337 15.7721C17.2491 15.8449 17.8072 16.4495 17.8073 17.1841C17.8072 17.9678 17.1718 18.6034 16.388 18.6034C15.6535 18.6032 15.0489 18.0451 14.9761 17.3298L14.9688 17.1841L14.9761 17.0392C15.0487 16.3237 15.6533 15.7649 16.388 15.7648L16.5337 15.7721Z" fill="#4D4D5C"/>
<path d="M2.10579 1.88867C2.49212 1.88867 2.82314 1.88843 3.09701 1.90902C3.38037 1.93034 3.6565 1.977 3.9279 2.09782L4.08008 2.17188C4.42832 2.35716 4.72683 2.62551 4.94841 2.95394L5.0599 3.14193C5.15965 3.33273 5.22532 3.53275 5.278 3.73926C5.29079 3.78944 5.30245 3.84192 5.31462 3.89632H15.1453L15.8981 3.90039C16.1269 3.90425 16.3338 3.91193 16.5182 3.92806C16.8935 3.9609 17.2599 4.033 17.5949 4.22998L17.7756 4.34717C18.1833 4.63871 18.4922 5.05132 18.6561 5.52881L18.6976 5.66716C18.7809 5.9898 18.774 6.31641 18.7367 6.64372C18.7156 6.8277 18.6825 7.03225 18.6406 7.25732L18.4933 7.99544L18.2166 9.35368C18.1414 9.72301 18.0772 10.0399 18.0042 10.2985C17.9476 10.4992 17.8787 10.6932 17.7772 10.8779L17.6641 11.0602C17.4409 11.3782 17.1446 11.6368 16.8014 11.8154L16.6517 11.887C16.385 12.0033 16.1145 12.0488 15.8371 12.0693C15.5692 12.0892 15.2455 12.0881 14.8687 12.0881H6.77458C6.80931 12.276 6.83778 12.4223 6.86898 12.5446C6.91732 12.7341 6.95667 12.8138 6.98861 12.8612L7.06755 12.9621C7.15316 13.0571 7.25825 13.1335 7.37598 13.1859L7.4891 13.2209C7.5413 13.2319 7.61139 13.242 7.70882 13.2493C7.91348 13.2647 8.17889 13.2648 8.58773 13.2648H17.0578L17.1343 13.2689C17.5124 13.3073 17.8073 13.6269 17.8073 14.0151C17.8072 14.4034 17.5124 14.7229 17.1343 14.7614L17.0578 14.7646H8.58773C8.2014 14.7646 7.87038 14.7657 7.59652 14.7451C7.38409 14.7291 7.17586 14.6987 6.9707 14.6336L6.76644 14.5563C6.40448 14.3952 6.08821 14.1477 5.84521 13.8369L5.74512 13.7002C5.57898 13.4539 5.48577 13.1902 5.41553 12.9149C5.34766 12.6488 5.2906 12.3228 5.22347 11.9424L3.993 4.97298C3.92193 4.57026 3.87528 4.30843 3.82454 4.10954C3.80036 4.01477 3.77861 3.94744 3.75863 3.89795L3.70492 3.79297C3.63287 3.68617 3.5391 3.59628 3.43066 3.52848L3.31755 3.46826C3.26534 3.44502 3.17997 3.41948 2.9847 3.40479C2.78004 3.3894 2.51462 3.38932 2.10579 3.38932H1.66634C1.25213 3.38932 0.916016 3.05321 0.916016 2.639C0.916016 2.22478 1.25213 1.88867 1.66634 1.88867H2.10579Z" fill="#4D4D5C"/>
</svg>
