<svg width="1376" height="231" viewBox="0 0 1376 231" fill="none" xmlns="http://www.w3.org/2000/svg">
<path d="M182.333 48.168C181.743 47.6359 181.007 47.2909 180.221 47.1766C179.434 47.0623 178.631 47.1838 177.913 47.5258C177.196 47.8677 176.595 48.4148 176.189 49.0979C175.782 49.7809 175.587 50.5693 175.628 51.3632C175.669 52.1571 175.945 52.921 176.42 53.5583C176.895 54.1956 177.549 54.6777 178.298 54.9436C179.047 55.2095 179.858 55.2473 180.629 55.0522C181.4 54.857 182.095 54.4378 182.628 53.8475C183.341 53.055 183.711 52.0117 183.656 50.9468C183.601 49.8818 183.125 48.8824 182.333 48.168Z" fill="#F0F0F5"/>
<path d="M168.126 35.8594C165.475 37.8578 163.388 40.5091 162.067 43.5548C163.657 43.9469 168.42 45.4969 170.605 51.3965C171.262 51.1824 172.679 50.3567 173.662 47.1689C174.98 42.901 177.481 38.7959 180.723 37.4176C177.49 34.2184 173.229 33.4651 168.126 35.8594Z" fill="#F0F0F5"/>
<path d="M194.383 38.9455L194.384 38.9444C191.244 35.1518 186.763 32.7151 181.873 32.1406C176.983 31.5661 172.06 32.8978 168.126 35.8594C175.211 32.5354 180.671 35.2776 184.014 42.2086C189.34 43.1638 192.958 40.5137 194.383 38.9455Z" fill="#F0F0F5"/>
<path d="M172.155 68.77C175.211 70.0667 178.551 70.5491 181.849 70.1703C181.393 68.5965 180.354 63.6966 184.37 58.8543C183.856 58.3921 182.433 57.5779 179.181 58.3205C174.826 59.3129 170.021 59.1997 167.206 57.0804C166.052 61.4806 167.53 65.5472 172.155 68.77Z" fill="#F0F0F5"/>
<path d="M161.699 44.4859L161.698 44.4857C159.983 49.1016 160.114 54.2005 162.061 58.7229C164.009 63.2454 167.624 66.8437 172.155 68.77C165.734 64.2961 165.379 58.196 169.709 51.8345C167.873 46.7441 163.77 44.9364 161.699 44.4859Z" fill="#F0F0F5"/>
<path d="M198.64 48.8253C198.235 45.5303 196.982 42.3965 195.005 39.7296C193.87 40.9113 190.147 44.2612 183.946 43.2039C183.802 43.8802 183.809 45.5201 186.078 47.9653C189.115 51.2409 191.419 55.4591 190.992 58.9567C195.379 57.7557 198.161 54.4424 198.64 48.8253Z" fill="#F0F0F5"/>
<path d="M182.839 70.0232L182.839 70.0244C187.694 69.2008 192.044 66.5383 194.987 62.5904C197.929 58.6424 199.237 53.7128 198.64 48.8253C197.976 56.6233 192.871 59.981 185.197 59.4114C181.707 63.5467 182.194 68.0045 182.839 70.0232Z" fill="#F0F0F5"/>
<path d="M212.616 61.5085H208.277V41.2606H215.248C216.408 41.2471 217.565 41.3832 218.691 41.6656C219.636 41.8991 220.525 42.3169 221.308 42.8951C222.033 43.4464 222.605 44.1731 222.971 45.0067C223.376 45.9617 223.574 46.992 223.55 48.0291C223.569 49.0721 223.367 50.1073 222.957 51.0666C222.572 51.9411 221.981 52.7099 221.236 53.3083C220.421 53.9478 219.487 54.4196 218.488 54.6967C217.302 55.029 216.075 55.1897 214.844 55.1738H212.616V61.5085ZM212.53 51.3556H214.902C216.213 51.3556 217.235 51.1001 217.968 50.589C218.7 50.0785 219.067 49.2831 219.067 48.2028C219.067 47.0651 218.71 46.26 217.996 45.7877C217.283 45.3153 216.261 45.079 214.93 45.0788H212.53V51.3556Z" fill="#F0F0F5"/>
<path d="M236.682 61.8561C235.316 61.8731 233.959 61.6429 232.676 61.1764C231.503 60.7445 230.441 60.0579 229.566 59.166C228.667 58.2291 227.982 57.1091 227.556 55.8827C227.06 54.4361 226.82 52.9141 226.847 51.3851C226.819 49.8535 227.069 48.3295 227.585 46.887C228.028 45.6625 228.723 44.5443 229.624 43.6041C230.492 42.7169 231.543 42.0307 232.705 41.5937C233.939 41.1319 235.248 40.9015 236.566 40.914C237.993 40.89 239.411 41.1354 240.746 41.6372C241.92 42.0854 242.978 42.7921 243.841 43.7049C244.71 44.654 245.366 45.7785 245.765 47.0026C246.225 48.417 246.45 49.8977 246.43 51.3851C246.463 52.9737 246.214 54.5555 245.692 56.0565C245.259 57.285 244.557 58.4015 243.639 59.325C242.761 60.1831 241.704 60.8353 240.544 61.2343C239.301 61.658 237.995 61.8683 236.682 61.8561ZM236.827 58.0377C237.522 58.0452 238.212 57.9073 238.851 57.6327C239.474 57.3585 240.02 56.9364 240.442 56.4032C240.918 55.7888 241.267 55.086 241.469 54.3355C241.727 53.3737 241.849 52.3806 241.831 51.3851C241.831 49.0902 241.349 47.4076 240.385 46.3373C239.904 45.8068 239.313 45.3881 238.654 45.1108C237.994 44.8334 237.281 44.7041 236.566 44.732C235.875 44.7275 235.191 44.8653 234.556 45.137C233.922 45.4124 233.362 45.8337 232.922 46.3665C232.424 46.9811 232.056 47.6893 231.837 48.449C231.561 49.4027 231.429 50.3924 231.446 51.3851C231.426 52.3848 231.568 53.3811 231.866 54.3355C232.106 55.0936 232.494 55.7965 233.008 56.4032C233.473 56.9407 234.058 57.3618 234.715 57.6327C235.385 57.9056 236.103 58.0433 236.827 58.0377Z" fill="#F0F0F5"/>
<path d="M265.868 60.7067C265.597 60.8413 265.303 60.9754 264.986 61.1089C264.619 61.2595 264.242 61.3844 263.857 61.4825C263.363 61.6083 262.861 61.6996 262.354 61.7556C261.705 61.8265 261.053 61.86 260.401 61.856C258.97 61.874 257.547 61.6489 256.192 61.1906C254.984 60.7804 253.879 60.1143 252.953 59.2378C252.03 58.3403 251.318 57.2486 250.87 56.0419C250.355 54.6345 250.105 53.1438 250.132 51.6452C250.105 50.0759 250.355 48.5141 250.87 47.0317C251.306 45.765 252.029 44.6164 252.982 43.6755C253.935 42.7346 255.094 42.027 256.366 41.608C257.806 41.1262 259.317 40.8915 260.835 40.9138C261.831 40.9038 262.825 41.0007 263.8 41.203C264.53 41.3491 265.243 41.5721 265.926 41.8682L264.971 45.5127C264.359 45.3022 263.73 45.1474 263.091 45.05C262.545 44.9615 261.994 44.9132 261.442 44.9056C260.517 44.8945 259.596 45.0215 258.709 45.2824C257.927 45.5126 257.205 45.9136 256.597 46.4565C255.989 47.0177 255.518 47.7123 255.223 48.4857C254.876 49.4169 254.709 50.4057 254.732 51.3992C254.732 53.5446 255.334 55.1585 256.54 56.2407C257.744 57.323 259.369 57.8641 261.413 57.8642C261.977 57.8536 262.539 57.7906 263.091 57.6762C263.748 57.5507 264.388 57.3518 265 57.0833L265.868 60.7067Z" fill="#F0F0F5"/>
<path d="M282.354 57.0833H274.573L273.127 61.5087H268.846L275.76 41.2607H281.4L288.226 61.5087H283.8L282.354 57.0833ZM275.76 53.265H281.169L278.478 44.7608L275.76 53.265Z" fill="#F0F0F5"/>
<path d="M298.091 61.5087H293.752V45.2524H287.995V41.2607H303.818V45.2524H298.091V61.5087Z" fill="#F0F0F5"/>
<path d="M315.677 61.8561C314.312 61.8731 312.954 61.6428 311.671 61.1764C310.498 60.7446 309.437 60.0579 308.562 59.166C307.663 58.2292 306.977 57.1092 306.551 55.8827C306.055 54.4362 305.815 52.9142 305.842 51.3851C305.814 49.8535 306.064 48.3295 306.58 46.887C307.024 45.6627 307.718 44.5446 308.619 43.6041C309.487 42.717 310.538 42.0307 311.7 41.5937C312.934 41.132 314.243 40.9016 315.561 40.914C316.988 40.8901 318.406 41.1354 319.741 41.6372C320.915 42.0854 321.973 42.7921 322.836 43.7049C323.706 44.6543 324.361 45.7787 324.76 47.0026C325.221 48.417 325.446 49.8977 325.425 51.3851C325.458 52.9736 325.209 54.5554 324.688 56.0565C324.254 57.2851 323.553 58.4016 322.634 59.325C321.756 60.183 320.699 60.8352 319.539 61.2343C318.296 61.6581 316.99 61.8683 315.677 61.8561ZM315.822 58.0377C316.518 58.0452 317.207 57.9073 317.846 57.6327C318.469 57.3587 319.015 56.9366 319.437 56.4032C319.913 55.7889 320.262 55.086 320.464 54.3355C320.722 53.3738 320.844 52.3806 320.826 51.3851C320.826 49.0902 320.344 47.4076 319.38 46.3373C318.899 45.8068 318.309 45.3881 317.649 45.1108C316.989 44.8334 316.277 44.7041 315.561 44.732C314.871 44.7275 314.186 44.8654 313.551 45.137C312.917 45.4125 312.357 45.8337 311.917 46.3665C311.419 46.981 311.05 47.6892 310.832 48.449C310.556 49.4027 310.424 50.3924 310.442 51.3851C310.421 52.3848 310.563 53.3811 310.861 54.3355C311.101 55.0937 311.489 55.7966 312.004 56.4032C312.468 56.941 313.053 57.3622 313.71 57.6327C314.38 57.9058 315.098 58.0434 315.822 58.0377Z" fill="#F0F0F5"/>
<path d="M352.5 61.5087H348.132L347.033 48.0581L342.868 61.5087H338.731L334.623 48.1164L333.525 61.5087H329.157L331.181 41.2607H336.359L340.929 56.5335L345.442 41.2607H350.446L352.5 61.5087Z" fill="#F0F0F5"/>
<path fill-rule="evenodd" clip-rule="evenodd" d="M508.964 51.025C517.222 47.8444 516.929 33.1938 503.889 33.1938L457.547 33.2035L457.18 38.6227C457.18 38.6227 464.059 41.8854 465.08 42.3601C465.013 43.5263 464.208 57.666 464.155 58.5865C463.364 59.0587 455.88 63.6057 455.88 63.6057L455.526 69.3815H501.968C516.507 69.3815 518.025 54.4033 508.964 51.025ZM489.737 59.5286H484.399C484.464 58.3527 484.635 55.3359 484.694 54.266H490.131C493.776 54.266 493.522 59.519 489.737 59.5286ZM490.448 46.4636C490.448 46.4636 485.367 46.4612 485.108 46.4612C485.167 45.3335 485.299 42.748 485.353 41.7119C485.416 41.7119 490.697 41.7119 490.697 41.7119C494.091 41.7119 494.108 46.4661 490.45 46.4661L490.448 46.4636Z" fill="#F0F0F5"/>
<path fill-rule="evenodd" clip-rule="evenodd" d="M439.479 32.6568H419.022C408.581 32.6568 403.356 40.9386 402.929 47.2012C402.929 47.2277 402.575 52.6349 402.575 52.6349C401.792 58.9216 407.143 69.6541 417.314 69.6541H437.602C447.431 69.6974 453.732 63.8108 454.645 53.5024L455.013 48.1554C455.421 42.5795 452.407 32.6543 439.476 32.6543L439.479 32.6568ZM432.043 56.5192C431.965 58.3505 430.845 60.2879 428.793 60.3167H426.736C425.062 60.2927 424.357 58.953 424.452 56.6083C424.452 56.6228 425.157 44.4566 425.157 44.4566C425.213 42.5771 426.636 40.8229 428.158 40.8229H430.196C431.868 40.8133 432.888 42.1699 432.888 44.2422L432.043 56.5192Z" fill="#F0F0F5"/>
<path d="M519.322 33.6759L518.959 39.0711C518.959 39.0711 527.224 43.3193 528.224 43.8228C528.158 44.9361 527.436 57.0444 527.379 58.001C526.513 58.4613 517.809 63.1649 517.809 63.1649L517.536 68.8974H557.443L557.799 63.348C557.799 63.348 550.105 58.3385 549.261 57.7986C549.312 56.8083 549.927 44.6735 549.978 43.6614C550.901 43.2156 559.229 39.1241 559.229 39.1241L559.5 33.6759H519.319H519.322Z" fill="#F0F0F5"/>
<path d="M556.606 57.4057L555.93 55.8274H555.357V57.4057H554.983V54.0323H555.864C556.428 54.0323 556.879 54.1021 556.879 54.772V55.0154C556.879 55.4153 556.706 55.6684 556.325 55.7696L557.028 57.4082H556.609L556.606 57.4057ZM556.498 54.8106C556.498 54.2949 556.145 54.3454 555.744 54.3454H555.354V55.4997H555.733C556.137 55.4997 556.496 55.5455 556.496 54.984V54.813L556.498 54.8106Z" fill="#F0F0F5"/>
<path d="M555.864 58.5939C554.247 58.5939 552.929 57.2926 552.929 55.6951C552.929 54.0975 554.247 52.7963 555.864 52.7963C557.483 52.7963 558.8 54.0975 558.8 55.6951C558.8 57.2926 557.483 58.5939 555.864 58.5939ZM555.864 53.1601C554.449 53.1601 553.298 54.2975 553.298 55.6951C553.298 57.0927 554.449 58.23 555.864 58.23C557.28 58.23 558.432 57.0927 558.432 55.6951C558.432 54.2975 557.28 53.1601 555.864 53.1601Z" fill="#F0F0F5"/>
<path d="M557.709 35.3626C557.667 36.2084 557.602 37.5216 557.575 38.0493C556.862 38.3938 548.187 42.5867 548.187 42.5867L547.37 58.6878C547.37 58.6878 555.371 63.8057 556.033 64.2298C555.998 64.7841 555.893 66.3889 555.839 67.213H519.324C519.366 66.319 519.444 64.7286 519.469 64.1986C520.145 63.8395 529.166 59.0419 529.166 59.0419L530.132 42.8275C530.132 42.8275 521.518 38.4734 520.737 38.0783C520.776 37.4927 520.867 36.1457 520.92 35.3649H557.709V35.3626Z" fill="#F0F0F5"/>
<path fill-rule="evenodd" clip-rule="evenodd" d="M506.788 51.8179L504.529 51.2275L506.728 50.4396C515.793 47.2661 514.841 34.8807 503.914 34.8807C503.914 34.8807 460.469 34.8903 459.141 34.8903C459.087 35.6662 459 36.9867 458.958 37.5867C459.763 37.9601 466.984 41.3192 466.984 41.3192L465.944 59.5697C465.944 59.5697 458.133 64.2298 457.528 64.5913C457.497 65.0949 457.394 66.7792 457.338 67.6949H501.964C514.421 67.6949 516.569 54.4011 506.786 51.8155L506.788 51.8179ZM482.724 61.095L483.194 52.7022H490.132C495.908 52.7022 495.619 61.0829 489.744 61.095H482.724ZM490.525 48.03L483.441 48.0251L483.843 40.1408H490.578C496.452 40.1408 495.935 48.0276 490.522 48.0276L490.525 48.03Z" fill="#F0F0F5"/>
<path fill-rule="evenodd" clip-rule="evenodd" d="M419.023 34.3433C411.214 34.3433 405.487 39.5722 404.772 47.336C404.772 47.336 404.42 52.7433 404.42 52.7553C403.725 59.2686 408.808 67.9697 417.317 67.9697H437.607C449.703 68.0251 452.322 58.8396 452.807 53.3577C452.807 53.3577 453.173 48.0469 453.173 48.0518C453.615 43.0011 451.106 34.3433 439.476 34.3433H419.023ZM434.535 44.4614C434.535 44.4614 433.691 56.6252 433.693 56.6083C433.569 59.5769 431.47 61.8468 428.803 61.8853H426.724C423.92 61.8444 422.678 59.4806 422.798 56.536C422.798 56.536 423.503 44.3698 423.503 44.3891C423.583 41.6566 425.758 39.259 428.156 39.259H430.189C432.436 39.2493 434.633 41.0542 434.537 44.43V44.459L434.535 44.4614Z" fill="#F0F0F5"/>
<path d="M676.405 55.1983H669.036L673.928 59.9497H676.405C677.103 59.9497 677.671 60.5092 677.671 61.1967C677.671 61.8842 677.103 62.4428 676.405 62.4428H673.928V59.9497H669.117V69.4639H673.928V67.1852H676.405C679.757 67.1852 682.483 64.4988 682.483 61.1967C682.483 57.8948 679.757 55.1983 676.405 55.1983ZM691.564 54.88C687.273 54.88 683.782 58.3211 683.782 62.5497C683.782 66.7783 687.273 70.2195 691.564 70.2195C695.854 70.2195 699.346 66.7783 699.346 62.5497C699.346 58.3211 695.854 54.88 691.564 54.88ZM691.564 65.4768C689.924 65.4768 688.594 64.1614 688.594 62.5497C688.594 60.938 689.924 59.6226 691.564 59.6226C693.204 59.6226 694.534 60.938 694.534 62.5497C694.534 64.1614 693.204 65.4768 691.564 65.4768ZM666.551 55.1983V69.4639H661.743V59.1936H656.82V69.4639H652.012V55.1983H666.551Z" fill="#F0F0F5"/>
<path d="M735.441 36.4159V50.6776H730.47V45.3587H725.701V50.6776H720.727V36.4159H725.701V41.3311H730.47V36.4159H735.441ZM654.859 36.4147L654.671 42.0369C654.645 42.9358 654.584 43.757 654.491 44.4777C654.398 45.1812 654.23 45.744 653.986 46.1516C653.684 46.6542 653.182 46.815 652.451 46.6599L652.012 46.568V50.6397L652.137 50.6713C652.52 50.766 652.889 50.8321 653.231 50.8752C653.571 50.9154 653.899 50.9355 654.201 50.9355C655.199 50.9355 656.032 50.7087 656.67 50.2665C657.306 49.8243 657.802 49.2644 658.15 48.446C658.493 47.642 658.736 46.6715 658.879 45.5602C659.021 44.4576 659.114 43.2142 659.154 41.8676L659.198 40.3945H662.12V50.6742H667.129V36.4147H654.859ZM674.29 46.8178V45.1875H681.016V41.7022H674.29V40.2711H681.841V36.4159H669.309V50.673H682.103V46.8178H674.29ZM697.487 36.4156L693.183 41.189L688.878 36.4156H683.627V50.6745H688.604V43.9272H688.637L688.651 43.941L693.169 48.3285L697.742 43.8813L697.747 43.8905V43.9502L697.761 50.6745H702.734V36.4156H697.487ZM737.11 43.1555V50.6745H741.851V43.1555C741.851 41.8368 742.961 40.7618 744.294 40.7618C745.626 40.7618 746.717 41.8368 746.717 43.1555V45.9487H741.907L746.615 50.6745H751.5V43.1555C751.5 39.2273 748.264 36.0343 744.294 36.0343C740.328 36.0343 737.11 39.2273 737.11 43.1555ZM711.612 36.0343C707.642 36.0343 704.406 39.2273 704.406 43.1555V50.6745H709.29L713.999 45.9487H709.188V43.1555C709.188 41.8368 710.275 40.7618 711.612 40.7618C712.949 40.7618 714.054 41.8368 714.054 43.1555V50.6745H718.795V43.1555C718.795 39.2273 715.577 36.0343 711.612 36.0343Z" fill="#F0F0F5"/>
<path d="M633.082 39.5405L627.176 47.9923L632.519 53.2381V61.4399H621.064L619.142 70.2195H642.809V49.0982L633.082 39.5405Z" fill="#F0F0F5"/>
<path d="M619.142 61.0158V69.7812L621.333 61.0158H619.142Z" fill="#F0F0F5"/>
<path d="M626.154 46.5663L633.605 39.5405L627.534 47.8676L626.154 46.5663Z" fill="#F0F0F5"/>
<path d="M626.391 32.0898L609.5 48.7232V69.7812H619.737V52.8503L633.605 39.194L626.391 32.0898Z" fill="#F0F0F5"/>
<path fill-rule="evenodd" clip-rule="evenodd" d="M862.26 44.1687C860.537 44.3008 859.182 42.9734 859.056 41.3889C858.917 39.6515 860.203 38.2407 861.774 38.1087C863.539 37.9627 864.908 39.3457 865.005 40.958C865.103 42.6746 863.824 44.0436 862.267 44.1687H862.26ZM972.8 42.8344C972.8 39.3735 976.032 36.8578 980.125 36.8161C983.447 36.7744 985.157 38.345 985.157 40.548C985.115 44.273 981.161 46.6984 977.248 46.6984C974.197 46.6984 972.8 44.8984 972.8 42.8344ZM997.999 48.8944C997.506 48.8944 993.19 52.9391 989.597 52.9391C988.027 52.9391 987.394 52.1746 987.394 50.8751C987.394 48.4497 988.833 46.2049 988.833 45.0791C988.833 44.537 988.471 44.3147 987.978 44.3147C987.297 44.3147 986.685 44.4258 986.136 44.6135C986.164 44.5718 986.199 44.5301 986.227 44.4884L986.199 44.4745C987.346 42.9108 987.526 41.2707 987.526 40.4437C987.526 37.7056 985.865 34.7868 980.069 34.6964C973.599 34.6547 967.449 38.6021 967.4 43.8143C967.359 47.2265 969.242 49.5616 974.225 49.5616C976.963 49.5616 979.138 48.8805 980.667 48.1647C977.387 51.2851 973.474 53.8703 970.09 53.8703C965.774 53.8703 966.629 48.8388 963.175 48.8388C962.049 48.8388 961.424 49.5129 960.298 50.4094C959.401 51.1252 957.018 53.0572 954.148 53.0572C952.709 53.0572 952.084 52.2928 952.125 50.9029C952.257 46.6775 956.615 40.0337 952.396 40.0337C949.609 40.0337 940.895 53.1476 935.599 53.1476C934.209 53.1476 933.445 52.1121 933.396 50.2704C933.438 44.9262 938.205 39.5333 938.205 39.5333C938.205 38.4979 937.35 37.8724 936.093 37.8724C932.361 37.8724 928.629 43.6197 928.149 48.95C926.787 50.6944 923.847 53.0989 921.582 53.0989C919.469 53.0989 919.427 51.0349 918.795 46.8096C918.253 43.168 917.718 39.2206 914.841 39.2206C911.609 39.2206 906.307 44.6552 904.778 46.0034C905.181 45.0583 908.329 38.7689 908.329 38.7689C908.239 38.3658 907.432 37.8724 906.355 37.8724C904.333 37.8724 903.749 39.0399 902.804 40.5688C901.859 42.0491 899.705 47.2613 899.03 48.8319C896.695 50.8056 893.283 53.0572 890.135 53.0572C888.606 53.0572 888.071 52.1607 888.071 50.8542C888.071 48.4288 889.461 46.6289 889.461 45.51C889.461 44.9679 889.148 44.7455 888.606 44.7455C886.181 44.7455 879.711 52.2441 873.692 52.2441C872.344 52.2441 871.58 51.57 871.58 50.3121C871.58 46.1354 876.792 39.9781 882.81 39.9364C887.209 39.9364 888.245 43.3487 890.357 43.3487C891.254 43.3487 891.796 42.5425 891.796 41.6877C891.796 40.1171 890.406 37.8237 884.207 37.8237C874.707 37.8237 866.652 43.446 864.922 49.5338C862.629 51.0696 858.765 53.1823 856.228 53.1823C852.065 53.1823 857.528 36.8925 851.961 36.8925C847.485 36.8925 839.264 45.0096 833.802 50.1106C834.323 38.2963 835.31 32 830.626 32C827.137 32 824.899 33.8208 818.394 41.9379C807.643 55.4479 804.725 56.539 801.5 57.8941C802.021 59.4022 803.008 59.7705 804.516 59.7705C809.304 59.7705 813.307 56.0247 818.047 49.1029C821.793 43.5849 825.33 37.3929 827.255 37.3929C828.506 37.3929 827.985 41.5557 827.672 46.2397C827.206 53.9398 826.838 56.4903 828.972 56.4903C832.926 56.4903 842.503 43.6892 846.248 43.6892C848.069 43.6892 847.861 46.1354 847.916 48.8388C848.069 52.4318 847.812 56.4903 852.6 56.4903C856.909 56.4903 861.44 54.0858 864.595 51.9661C864.595 54.2108 866.534 56.3583 869.988 56.3583C875.874 56.3583 879.822 53.3005 882.838 50.611C882.164 54.3846 883.915 56.4069 886.883 56.3583C891.018 56.4 895.639 53.9746 898.245 51.6882C896.091 56.671 893.394 62.5573 892.449 66.8243C891.824 69.5625 892.852 70.4659 893.797 70.2852C894.291 70.0628 897.522 61.4801 902.603 52.3206C904.896 48.1856 908.398 44.2799 910.956 44.2799C913.069 44.2799 913.02 46.3439 913.562 49.4017C914.146 52.6819 914.82 56.4069 918.454 56.4069C921.589 56.4069 925.647 54.0441 928.205 51.5283C928.712 55.1143 931.179 56.3652 933.542 56.3652C938.845 56.3652 944.411 50.2982 947.691 46.2605C947.24 47.6088 946.705 49.6728 946.705 51.9661C946.705 54.7946 948.365 56.4139 950.93 56.4139C954.884 56.4139 958.338 54.4819 961.215 51.9661C962.202 54.885 964.586 56.3652 968.269 56.3652C974.218 56.3652 979.145 52.5846 982.557 48.9709C982.342 49.784 982.238 50.6388 982.238 51.4658C982.238 54.4749 983.718 56.4069 986.685 56.4069C992.836 56.4069 998.541 51.3337 998.5 49.5338C998.5 49.1307 998.319 48.9083 998.006 48.9083L997.999 48.8944ZM861.204 40.8677C861.836 40.8816 862.872 41.0206 862.9 40.3186C862.934 39.5333 861.857 39.6932 861.218 39.7071L861.204 40.8677ZM863.379 39.3388C862.781 38.887 861.176 39.0469 860.314 39.0469V43.2166H861.204V41.5279H862.198L862.879 43.2166H863.789L863.052 41.375C864.178 40.9163 863.907 39.7418 863.379 39.3388ZM865.603 40.5549C865.318 38.7619 863.615 37.2191 861.482 37.5527C859.647 37.8376 858.083 39.5055 858.438 41.7225C858.723 43.4946 860.446 45.0722 862.601 44.7108C864.408 44.4119 865.943 42.7232 865.596 40.5549H865.603Z" fill="#F0F0F5"/>
<path d="M1200.27 41.6535C1200.55 41.7037 1200.71 41.5112 1200.92 41.3856C1203.15 40.0446 1205.75 37.1198 1207.91 36.0099C1208.15 35.886 1208.35 35.7655 1208.63 35.819L1205.77 44.3036C1201.85 44.0375 1198.25 44.9013 1195.1 47.2518C1194.89 47.4042 1192.96 48.9193 1193.24 49.1537C1198.11 49.9238 1202.69 48.489 1206.38 45.3232L1215.5 45.1541C1215.54 45.509 1215.21 45.6965 1214.98 45.8891C1212.81 47.7005 1209.8 49.1989 1207.51 50.94C1207.4 51.022 1207.22 50.9166 1207.29 51.2363L1214.98 56.4195L1215.49 57.1545L1205.46 56.9887L1208.63 66.4896C1208.35 66.5431 1208.15 66.4226 1207.91 66.2987C1205.81 65.2256 1203.08 62.3008 1200.92 60.9197C1200.72 60.7874 1200.54 60.615 1200.27 60.6551L1197.34 70.1543L1194.16 60.6551L1186.74 66.2652L1186.04 66.4879L1189.22 56.9871L1179.18 57.1511C1178.98 56.9787 1179.73 56.3592 1179.87 56.2488C1181.72 54.7286 1184.29 53.4228 1186.26 51.9529C1186.48 51.7922 1187.28 51.3117 1187.21 51.0689L1179.3 45.6564L1179.18 45.1491L1188.22 45.3952L1192.98 58.313C1195.28 57.1813 1198.52 56.6941 1200.72 55.5121C1201.56 55.0568 1202.19 54.2816 1202.28 53.319L1201.43 53.2169C1201.27 53.473 1201.23 53.7459 1201.03 53.9903C1200.35 54.8107 1195.3 56.6321 1194.08 56.9067C1193.87 56.9552 1193.65 57.0423 1193.42 56.967L1186.05 35.8107L1194.16 41.6451L1197.34 32.1543L1200.27 41.6535Z" fill="#F0F0F5"/>
<path d="M1075.61 58.991V63.4928H1073.43V47.8227H1078.87C1080.26 47.8227 1082.33 49.1687 1083 50.3792C1085.82 55.4786 1081.17 61.0117 1075.61 58.9927V58.991ZM1075.61 56.9904C1079.35 58.7164 1082.7 55.4703 1081.21 51.6582C1080.97 51.0321 1079.69 49.8217 1079.04 49.8217H1075.61V56.9904Z" fill="#F0F0F5"/>
<path d="M1070.25 56.073C1070.39 57.1829 1070.83 57.5646 1071.76 58.0736C1070.7 59.2472 1069.4 59.9453 1068.58 58.1573C1064.67 61.2176 1059.82 58.1037 1059.86 53.4044C1059.91 49.4852 1063.04 46.845 1066.91 47.7306C1067.25 47.8077 1067.78 48.1709 1067.99 48.1642C1068.08 48.1609 1068.06 47.8545 1068.19 47.8227C1068.73 47.6888 1069.65 47.9131 1070.25 47.8227C1070.48 50.4227 1069.94 53.5366 1070.25 56.0746L1070.25 56.073ZM1068.08 49.9891C1064.3 48.3903 1061.76 50.3708 1062.22 54.4072C1062.55 57.3135 1065.96 58.5624 1068.08 56.5735V49.9891Z" fill="#F0F0F5"/>
<path d="M1099.2 53.8229C1099.97 58.1071 1104.21 57.9731 1107.23 55.9909L1107.15 57.9915C1103.55 60.5011 1098.5 59.7762 1097.31 55.1287C1095.03 46.2808 1107.84 44.3472 1107.4 53.8229H1099.2ZM1105.23 52.3229C1105.04 48.3635 1099.64 48.5895 1099.37 52.3229H1105.23Z" fill="#F0F0F5"/>
<path d="M1058.2 47.821V59.1568H1055.86V49.6559H1050.93L1050.68 49.9054V59.1568H1048.5V47.821H1058.2Z" fill="#F0F0F5"/>
<path d="M1136.81 47.5348C1145.54 46.5922 1145.69 60.851 1136.17 59.2488C1130.06 58.2192 1130.15 48.253 1136.81 47.5348ZM1136.98 48.7017C1131.21 49.306 1131.64 59.0446 1138.43 58.1422C1143.7 57.4424 1143.23 48.0471 1136.98 48.7017Z" fill="#F0F0F5"/>
<path d="M1118.11 47.821V49.8217H1114.26V59.1568H1112.09V49.8217H1108.24V47.821H1118.11Z" fill="#F0F0F5"/>
<path d="M1131.33 47.8227L1126.49 53.3826L1132 59.1551C1131.55 59.1099 1131.01 59.2338 1130.58 59.1534C1129.65 58.9776 1126.18 54.2297 1125.58 54.3352L1121.03 59.1551H1119.62L1124.79 53.3843L1119.78 47.8244C1120.18 47.8596 1120.65 47.7541 1121.03 47.8261C1121.94 47.9968 1124.51 51.6934 1125.58 52.3111L1129.91 47.8244H1131.33L1131.33 47.8227Z" fill="#F0F0F5"/>
<path d="M1095.86 47.821L1091.18 53.3826L1097.03 59.1568H1094.1C1093.69 59.1568 1089.16 54.0422 1088.51 53.3809L1093.43 47.821H1095.86Z" fill="#F0F0F5"/>
<path d="M1166.13 59.1568L1164.95 59.0546L1160.86 49.82L1156.57 59.13L1155.43 59.1568L1160.47 47.8478C1160.81 47.7624 1161.25 47.7524 1161.43 48.0856L1166.13 59.1568Z" fill="#F0F0F5"/>
<path d="M1154.25 59.1568L1153.06 59.0546L1148.98 49.82L1144.69 59.13L1143.38 59.1551L1148.59 47.8478L1149.49 47.9868L1154.25 59.1568Z" fill="#F0F0F5"/>
<path d="M1088.16 47.821H1085.98V59.1568H1088.16V47.821Z" fill="#F0F0F5"/>
<path d="M1168.6 43.6926C1175.86 42.4771 1174.18 53.4964 1167.91 50.8027C1164.55 49.3579 1165.16 44.2685 1168.6 43.6926ZM1168.94 44.3606C1165.88 44.8712 1165.88 49.8284 1168.91 50.3105C1173.78 51.0873 1173.56 43.5854 1168.94 44.3606Z" fill="#F0F0F5"/>
<path d="M1202.95 68.3261L1199.79 65.8785L1200.77 62.1602C1200.99 61.9693 1203.64 64.2194 1204.04 64.4856L1202.95 68.3278V68.3261Z" fill="#F0F0F5"/>
<path d="M1191.82 33.9875L1194.89 36.4184L1193.66 40.1484L1190.6 37.7125L1191.82 33.9875Z" fill="#F0F0F5"/>
<path d="M1185.71 50.9919L1185.61 51.3368L1182.45 53.3123L1179.19 51.3184L1179.29 50.9752L1182.45 48.998L1185.71 50.9919Z" fill="#F0F0F5"/>
<path d="M1215.5 51.32L1212.24 53.3173C1212.03 53.324 1209.39 51.6348 1209.15 51.397C1209.01 51.2598 1208.91 51.243 1208.97 50.9919L1212.24 48.9946L1215.5 51.32Z" fill="#F0F0F5"/>
<path d="M1200.77 40.1517L1199.79 36.4267L1202.95 33.9841L1204.04 37.8263C1203.64 38.0925 1200.99 40.3426 1200.77 40.1517Z" fill="#F0F0F5"/>
<path d="M1193.66 62.1619L1194.89 65.8919L1191.82 68.3228L1190.6 64.5978L1193.66 62.1619Z" fill="#F0F0F5"/>
<path d="M1186.7 40.6724L1187.89 44.4861L1183.89 44.3036L1182.7 40.4866L1186.7 40.6724Z" fill="#F0F0F5"/>
<path d="M1211.98 40.4866L1210.65 44.2434L1206.8 44.4861C1206.55 44.2199 1207.88 41.2366 1207.99 40.6757L1211.98 40.4866Z" fill="#F0F0F5"/>
<path d="M1187.89 57.8241L1186.7 61.6412L1182.7 61.8237L1183.89 58.0066C1185.22 57.9279 1186.58 58.1255 1187.89 57.8241H1187.89Z" fill="#F0F0F5"/>
<path d="M1210.56 57.9899L1211.97 61.5943C1212.1 61.961 1211.46 61.8388 1211.22 61.8321C1210.19 61.8069 1209.07 61.529 1207.99 61.6345L1206.63 58.0719C1206.89 57.6584 1206.98 57.9899 1207.04 57.9899H1210.56Z" fill="#F0F0F5"/>
<path d="M1195.42 48.3216C1197.91 46.0799 1201.47 45.0436 1204.79 45.2361C1203.8 46.1569 1202.41 46.9672 1201.15 47.4477C1200.55 47.6771 1198.53 48.3199 1198.01 48.3199H1195.42L1195.42 48.3216Z" fill="#F0F0F5"/>
<path d="M1195.25 35.4842L1194.07 34.7091L1194.42 33.3178C1195.65 33.9674 1195.6 34.2068 1195.25 35.4842Z" fill="#F0F0F5"/>
<path d="M1194.42 68.9924L1194.07 67.6012L1195.25 66.8261C1195.6 68.1034 1195.65 68.3428 1194.42 68.9924Z" fill="#F0F0F5"/>
<path d="M1215.16 48.1576C1215.36 48.4422 1214.39 48.9293 1214.22 49.1353L1212.99 48.484C1213.72 47.4728 1214.19 47.58 1215.16 48.1559V48.1576Z" fill="#F0F0F5"/>
<path d="M1183.04 44.3187C1181.77 44.4861 1181.39 44.2367 1181.2 42.9878L1182.54 43.0631L1183.04 44.3187Z" fill="#F0F0F5"/>
<path d="M1181.53 54.1527C1180.49 54.7738 1180.17 54.7805 1179.35 53.8246L1180.58 53.1834C1180.78 53.3123 1181.74 53.8564 1181.53 54.1544V54.1527Z" fill="#F0F0F5"/>
<path d="M1215.16 54.1527C1214.19 54.7303 1213.72 54.8374 1212.99 53.8246L1214.22 53.1733C1214.39 53.3809 1215.36 53.8681 1215.16 54.151V54.1527Z" fill="#F0F0F5"/>
<path d="M1189.89 37.1517L1188.74 36.3765L1189.06 35.1527L1190.21 35.9195L1189.89 37.1517Z" fill="#F0F0F5"/>
<path d="M1183.04 57.9916L1182.54 59.2472L1181.2 59.3225C1181.39 58.0736 1181.77 57.8241 1183.04 57.9916Z" fill="#F0F0F5"/>
<path d="M1213.49 59.3225C1212.22 59.4899 1211.84 59.2405 1211.65 57.9916L1212.99 58.0669L1213.49 59.3225Z" fill="#F0F0F5"/>
<path d="M1181.53 48.1576C1181.11 49.2709 1180.26 49.3412 1179.52 48.4003C1180.08 47.3489 1180.69 47.6988 1181.53 48.1576Z" fill="#F0F0F5"/>
<path d="M1213.49 42.9878L1212.99 44.2434L1211.65 44.3187C1211.84 43.0698 1212.23 42.8203 1213.49 42.9878Z" fill="#F0F0F5"/>
<path d="M1189.89 65.1586L1190.21 66.3925L1189.06 67.1592L1188.74 65.9354L1189.89 65.1586Z" fill="#F0F0F5"/>
<path d="M1205.94 65.8484L1205.62 67.1592C1205.49 67.2798 1204.53 66.6068 1204.48 66.3774L1204.79 65.1586L1205.94 65.8484Z" fill="#F0F0F5"/>
<path d="M1205.62 35.1527L1205.94 36.4619L1204.79 37.1517L1204.53 35.819L1205.62 35.1527Z" fill="#F0F0F5"/>
<path d="M1199.44 35.4842C1198.96 34.2353 1199.11 33.949 1200.27 33.3178C1200.62 34.5952 1200.67 34.8346 1199.44 35.4842Z" fill="#F0F0F5"/>
<path d="M1200.27 68.9924C1199.1 68.3613 1198.96 68.075 1199.44 66.8261C1200.67 67.4756 1200.62 67.715 1200.27 68.9924Z" fill="#F0F0F5"/>
<path d="M1209.77 62.6926C1209.88 62.7679 1210.29 64.0068 1210.06 63.9951L1208.8 63.749L1208.31 62.7411C1208.32 62.4164 1209.63 62.5871 1209.77 62.6926Z" fill="#F0F0F5"/>
<path d="M1210.14 38.3202L1209.79 39.6294L1208.47 39.8186L1208.8 38.563L1210.14 38.3202Z" fill="#F0F0F5"/>
<path d="M1185.85 38.5127L1186.21 39.8186L1184.9 39.6294L1184.54 38.3185L1185.85 38.5127Z" fill="#F0F0F5"/>
<path d="M1186.21 62.4917L1185.86 63.8025L1184.54 63.9917L1184.91 62.6909L1186.21 62.4917Z" fill="#F0F0F5"/>
<path d="M1170.57 45.4873C1171.29 45.6848 1171.46 47.2167 1170.48 47.4042C1171.14 47.878 1171.17 48.5895 1171.32 49.3211C1169.73 49.6727 1170.68 47.4728 1168.98 47.8211V49.3228H1168.14V45.489C1168.8 45.6045 1169.99 45.3299 1170.57 45.489V45.4873ZM1168.98 47.1547C1169.44 47.1648 1169.95 47.2535 1170.24 46.8233C1170.69 45.9627 1168.5 45.3667 1168.98 47.1547Z" fill="#F0F0F5"/>
<path d="M46.1434 170.658L54.7298 161.939L63.3161 170.658H76.9127L85.606 161.842L94.2655 170.658H101.013L109.926 161.602L101.553 153.077L92.7024 162.059L91.8195 161.162L100.653 152.186L92.9159 144.307H78.341L70.1314 152.672L61.888 144.307H47.5378L30.5 161.613L39.3957 170.658H46.1434ZM92.7248 162.093L100.322 169.813H94.6029L87.0118 162.093H92.7248ZM86.084 161.145C85.2687 160.323 79.6006 154.584 78.4928 153.442H84.189L91.7914 161.145H86.084ZM91.3415 145.157C90.1663 146.351 84.3127 152.329 84.099 152.58H78.386C79.5668 151.381 85.4204 145.403 85.6397 145.186L91.3415 145.157ZM78.684 145.157H84.3858C83.2612 146.299 77.7618 151.918 77.1883 152.506H71.4753L78.684 145.157ZM70.5925 153.397H76.2942L68.6749 161.145H62.962L70.5925 153.397ZM68.585 162.007L76.2605 169.813H70.553L65.4923 164.674L62.8833 162.007H68.585ZM64.7444 165.108L69.3666 169.813H63.676L56.0736 162.093H61.7755L64.7444 165.108ZM55.1346 161.145L47.5435 153.442H53.2397L60.8646 161.145H55.1346ZM60.4709 145.157C59.2957 146.362 53.414 152.329 53.1947 152.552H47.4985L51.7101 148.264L54.7747 145.163L60.4709 145.157ZM47.8809 145.157H53.5826L50.8442 147.944L46.3008 152.552H40.6215C41.7855 151.353 47.6672 145.386 47.8809 145.163V145.157ZM39.7556 153.442H45.4517L37.8493 161.145H32.1419L39.7556 153.442ZM37.8381 162.082C38.6028 162.852 44.3327 168.671 45.4517 169.813H39.7387L32.1363 162.082H37.8381Z" fill="#F0F0F5"/>
<path d="M118.765 170.766H126.418V149.954H126.654L131.119 170.766H138.592L143.231 149.954H143.433V170.766H151.474V144.312H138.176L135.252 158.798H135.106L132.064 144.312H118.765V170.766Z" fill="#F0F0F5"/>
<path fill-rule="evenodd" clip-rule="evenodd" d="M165.296 170.767H173.011V158.136C173.011 151.929 167.764 150.491 162.698 150.491C160.106 150.538 157.532 150.942 155.045 151.69V156.868C156.968 155.93 159.06 155.4 161.191 155.31C163.339 155.31 165.442 155.709 165.296 158.365C160.185 158.365 152.925 158.113 152.925 165.268C152.925 169.031 155.399 171.206 159.043 171.206C161.68 171.206 163.491 170.475 165.155 168.351H165.273V170.749L165.296 170.767ZM165.296 162.127V163.235C165.296 164.714 164.633 166.415 162.934 166.415C162.682 166.432 162.428 166.395 162.19 166.307C161.952 166.22 161.734 166.083 161.55 165.905C161.368 165.727 161.223 165.513 161.124 165.276C161.027 165.038 160.978 164.783 160.983 164.526C160.983 162.407 162.844 162.099 164.532 162.099C164.784 162.099 165.037 162.139 165.296 162.127Z" fill="#F0F0F5"/>
<path d="M183.346 150.942H175.047V170.766H183.346V162.036H183.498L188.339 170.766H197.59L191.59 160.688L197.59 150.942H188.283L183.498 159.609H183.346V150.942Z" fill="#F0F0F5"/>
<path d="M213.249 164.526C211.996 165.022 210.848 165.548 209.47 165.548C206.743 165.548 205.129 163.572 205.129 160.9C205.129 157.936 206.817 156.189 209.706 156.189C210.902 156.218 212.074 156.527 213.131 157.091V151.421C211.228 150.824 209.248 150.511 207.255 150.491C200.676 150.491 196.06 153.705 196.06 160.717C196.06 167.358 200.491 171.218 206.901 171.218C209.054 171.213 211.195 170.878 213.249 170.224V164.514V164.526Z" fill="#F0F0F5"/>
<path d="M226.779 150.942L222.876 160.237H222.668V150.942H214.987V170.766H223.32L227.189 161.528H227.341V170.766H235.05V150.942H226.779Z" fill="#F0F0F5"/>
<path fill-rule="evenodd" clip-rule="evenodd" d="M271.386 150.491C264.981 150.491 260.545 154.151 260.545 160.866C260.545 167.58 265.043 171.218 271.386 171.218C277.729 171.218 282.29 167.512 282.29 160.866C282.29 154.219 277.747 150.491 271.386 150.491ZM271.386 156.2C273.326 156.2 273.219 159.535 273.219 160.877C273.219 162.219 273.298 165.559 271.386 165.559C269.7 165.559 269.526 163.172 269.526 161.928V159.786C269.526 158.507 269.7 156.189 271.386 156.189V156.2Z" fill="#F0F0F5"/>
<path d="M283.796 170.766H291.416V149.954H291.652L296.144 170.766H303.618L308.257 149.954H308.465V170.766H316.5V144.312H303.206L300.311 158.798H300.159L297.061 144.312H283.796V170.766Z" fill="#F0F0F5"/>
<path fill-rule="evenodd" clip-rule="evenodd" d="M240.605 150.942C240.605 154.619 241.46 161.91 238.474 165.096H236.405V174.307H244.03V170.766H252.465V174.307H260.118V165.096H257.756V150.942H240.605ZM250.086 165.096H245.801C247.393 162.333 247.252 159.729 247.252 156.64H250.064V165.096H250.086Z" fill="#F0F0F5"/>
<path fill-rule="evenodd" clip-rule="evenodd" d="M437.711 149.877C443.044 149.419 449.57 149.307 470.976 149.307H589.5V150.42H481.418C474.178 150.42 466.672 150.488 460.819 150.99C456.174 151.275 451.599 152.231 447.242 153.825C444.766 154.766 442.282 155.98 439.139 157.522L438.956 157.611C436.622 158.758 434.275 159.88 431.916 160.978C423.955 164.666 413.991 168.655 396.452 169.306H366.5V168.482C390.556 167.618 399.313 163.624 406.365 160.405L406.564 160.314C408.653 159.355 410.734 158.38 412.808 157.39C417.059 155.373 420.507 153.736 423.698 152.677C428.226 151.162 432.936 150.221 437.711 149.877ZM518.187 157.512L517.894 156.425C517.782 156.115 517.635 155.818 517.455 155.54C517.263 155.257 517.03 155.002 516.765 154.782C516.511 154.566 516.233 154.38 515.936 154.227C515.647 154.08 515.347 153.955 515.038 153.853C514.435 153.657 513.817 153.506 513.19 153.402C512.572 153.296 511.951 153.213 511.326 153.152C510.704 153.091 510.08 153.046 509.455 153.018C508.833 152.993 508.213 152.975 507.591 152.96C506.348 152.938 505.105 152.927 503.862 152.929C502.412 152.929 501.228 152.938 500.125 152.96C499.504 152.972 498.878 152.99 498.253 153.016C497.567 153.046 496.956 153.086 496.38 153.143C495.7 153.21 495.068 153.297 494.508 153.4C494.187 153.46 493.871 153.529 493.568 153.605C493.237 153.689 492.939 153.779 492.659 153.877C492.349 153.985 492.048 154.116 491.758 154.269C491.469 154.423 491.195 154.602 490.94 154.803C490.664 155.015 490.418 155.262 490.209 155.537C490.104 155.675 490.013 155.824 489.939 155.98C489.87 156.128 489.814 156.282 489.772 156.439C489.67 156.802 489.601 157.173 489.564 157.547C489.539 157.796 489.525 158.045 489.521 158.294C489.516 158.453 489.516 158.611 489.516 158.77V164.137C489.518 164.393 489.537 164.648 489.573 164.902C489.645 165.413 489.809 165.908 490.057 166.365C490.185 166.594 490.342 166.808 490.522 167.003C490.697 167.188 490.891 167.357 491.1 167.507C491.508 167.794 491.951 168.031 492.418 168.213C492.879 168.393 493.353 168.541 493.834 168.657C494.273 168.765 494.744 168.856 495.269 168.942C496.218 169.082 497.174 169.175 498.133 169.222C498.999 169.268 499.942 169.293 501.014 169.301H505.319C505.798 169.301 506.275 169.301 506.756 169.296C507.715 169.289 508.673 169.26 509.631 169.21C510.595 169.163 511.556 169.072 512.511 168.938C512.992 168.871 513.469 168.783 513.942 168.676C514.424 168.57 514.896 168.428 515.355 168.25C515.589 168.16 515.816 168.051 516.033 167.926C516.266 167.789 516.487 167.633 516.694 167.46C517.103 167.129 517.452 166.732 517.725 166.287C517.985 165.844 518.159 165.359 518.238 164.855C518.274 164.616 518.292 164.375 518.293 164.132V158.983C518.293 158.749 518.293 158.516 518.277 158.284C518.262 158.025 518.232 157.767 518.187 157.512ZM514.141 163.929C514.141 164.129 514.141 164.329 514.125 164.525C514.094 164.936 513.987 165.337 513.81 165.711C513.622 166.09 513.351 166.425 513.017 166.691C512.85 166.824 512.67 166.94 512.479 167.036C512.297 167.125 512.108 167.2 511.915 167.261C511.542 167.378 511.161 167.467 510.774 167.528C510.016 167.644 509.249 167.711 508.481 167.728C507.722 167.753 506.962 167.761 506.203 167.765H501.66C500.989 167.765 500.194 167.759 499.382 167.726C499.009 167.714 498.637 167.692 498.265 167.66C497.838 167.626 497.437 167.576 497.078 167.514C496.682 167.45 496.292 167.356 495.912 167.231C495.723 167.167 495.538 167.089 495.361 166.997C495.18 166.9 495.009 166.784 494.853 166.652C494.525 166.391 494.253 166.072 494.05 165.71C493.857 165.339 493.738 164.935 493.7 164.521C493.68 164.321 493.671 164.121 493.673 163.92V158.434C493.67 158.329 493.674 158.224 493.683 158.118C493.705 157.919 493.744 157.723 493.785 157.526C493.824 157.341 493.866 157.16 493.912 156.977C493.955 156.783 494.017 156.593 494.096 156.41C494.176 156.224 494.281 156.05 494.41 155.892C494.54 155.736 494.692 155.597 494.862 155.481C495.022 155.373 495.192 155.278 495.37 155.198C495.542 155.119 495.718 155.051 495.899 154.993C496.249 154.881 496.608 154.793 496.972 154.731C497.308 154.669 497.662 154.622 498.052 154.585C498.41 154.553 498.769 154.531 499.13 154.518L499.178 154.516C499.522 154.504 499.861 154.491 500.202 154.485C500.915 154.469 501.629 154.464 502.342 154.464H503.983C505.116 154.464 506.245 154.467 507.379 154.491C507.798 154.498 508.222 154.509 508.64 154.527C509.017 154.54 509.461 154.563 509.917 154.606C510.345 154.647 510.771 154.712 511.191 154.803C511.631 154.894 512.056 155.044 512.452 155.252C513.005 155.484 513.467 155.883 513.77 156.389C513.969 156.749 514.086 157.145 514.115 157.553C514.133 157.753 514.14 157.953 514.141 158.153V163.929ZM522.584 169.306V152.93H543.933V154.988H527.025V160.087H543.543V162.146H527.025V169.306H522.584ZM547.848 152.93H553.207V169.306H547.848V152.93ZM484.616 162.334C484.439 162.076 484.227 161.842 483.986 161.639C483.521 161.261 482.988 160.972 482.414 160.787C482.134 160.693 481.85 160.613 481.562 160.546C481.281 160.481 480.997 160.424 480.712 160.377C480.145 160.285 479.574 160.216 479.002 160.169C478.432 160.118 477.862 160.085 477.29 160.069L472.175 159.883H470.042C468.64 159.881 467.238 159.837 465.839 159.752C465.496 159.731 465.153 159.703 464.811 159.669C464.439 159.633 464.068 159.585 463.698 159.525C463.338 159.472 462.985 159.381 462.645 159.254C462.365 159.145 462.112 158.981 461.901 158.772C461.685 158.551 461.534 158.278 461.464 157.98C461.423 157.818 461.399 157.652 461.394 157.485C461.386 157.314 461.391 157.143 461.41 156.973C461.433 156.66 461.537 156.358 461.713 156.095C461.798 155.978 461.904 155.875 462.026 155.794C462.158 155.709 462.299 155.64 462.448 155.588C462.771 155.479 463.104 155.397 463.443 155.344C463.755 155.287 464.086 155.241 464.487 155.199C465.189 155.125 465.894 155.074 466.6 155.047C467.237 155.02 467.932 155.002 468.723 154.993C469.18 154.988 469.641 154.988 470.101 154.988H470.856C471.567 154.988 472.277 154.991 472.989 155.003C473.697 155.011 474.405 155.028 475.112 155.053C475.464 155.065 475.817 155.082 476.169 155.106C476.572 155.133 476.905 155.169 477.216 155.214C477.559 155.262 477.899 155.335 478.23 155.431C478.405 155.479 478.575 155.539 478.741 155.613C479.023 155.734 479.26 155.936 479.421 156.19C479.502 156.319 479.566 156.457 479.611 156.601C479.707 156.917 479.752 157.244 479.746 157.573V157.835H484.648V157.052C484.645 156.871 484.627 156.691 484.593 156.513C484.532 156.161 484.405 155.822 484.22 155.513C484.032 155.208 483.794 154.936 483.515 154.707C483.245 154.485 482.949 154.294 482.634 154.139C482.021 153.844 481.371 153.631 480.7 153.503C480.372 153.437 480.042 153.381 479.71 153.335C479.382 153.29 479.054 153.246 478.725 153.214C478.069 153.148 477.412 153.098 476.754 153.065C476.098 153.03 475.442 153.003 474.786 152.984C473.473 152.947 472.159 152.929 470.844 152.931C469.244 152.931 467.932 152.946 466.714 152.979C466.025 152.996 465.336 153.022 464.647 153.059C463.953 153.089 463.261 153.143 462.571 153.221C461.858 153.299 461.15 153.423 460.454 153.592C460.103 153.677 459.758 153.78 459.418 153.902C459.07 154.024 458.736 154.178 458.418 154.361C458.089 154.549 457.787 154.779 457.52 155.045C457.264 155.304 457.05 155.6 456.886 155.922C456.725 156.239 456.612 156.578 456.551 156.927C456.518 157.106 456.497 157.287 456.486 157.469C456.475 157.655 456.477 157.842 456.494 158.029C456.531 158.409 456.64 158.78 456.819 159.122C456.906 159.288 457.007 159.447 457.122 159.599C457.235 159.752 457.367 159.894 457.515 160.02C457.795 160.255 458.109 160.452 458.447 160.605C458.77 160.755 459.104 160.882 459.445 160.987C460.124 161.191 460.816 161.347 461.518 161.453C462.153 161.557 462.829 161.638 463.577 161.706C464.199 161.76 464.855 161.805 465.65 161.839C466.34 161.871 467.029 161.893 467.718 161.905C469.155 161.941 470.607 161.944 471.854 161.944H472.883C473.224 161.944 473.565 161.95 473.907 161.961C474.591 161.98 475.274 162.012 475.955 162.055C476.296 162.074 476.638 162.096 476.979 162.121C477.381 162.152 477.69 162.188 477.983 162.23C478.318 162.275 478.648 162.348 478.969 162.447C479.12 162.491 479.265 162.549 479.404 162.619C479.537 162.686 479.659 162.769 479.77 162.866C479.883 162.965 479.98 163.079 480.057 163.206C480.135 163.336 480.197 163.475 480.238 163.621C480.279 163.77 480.305 163.923 480.315 164.078C480.321 164.159 480.323 164.241 480.323 164.322V164.584C480.324 164.906 480.277 165.227 480.184 165.537C480.136 165.684 480.073 165.827 479.996 165.962C479.919 166.08 479.82 166.185 479.705 166.269C479.446 166.454 479.156 166.595 478.847 166.688C478.531 166.789 478.208 166.869 477.88 166.926C477.222 167.037 476.558 167.112 475.891 167.149C475.219 167.194 474.532 167.222 473.842 167.235C473.319 167.246 472.797 167.246 472.271 167.246H467.658C466.978 167.246 466.297 167.228 465.618 167.192C465.28 167.175 464.943 167.15 464.607 167.118C464.239 167.079 463.913 167.036 463.612 166.98C463.295 166.929 462.984 166.846 462.685 166.732C462.252 166.574 461.897 166.263 461.689 165.861C461.613 165.715 461.553 165.561 461.509 165.403C461.423 165.077 461.382 164.741 461.388 164.404V163.796H456.485V165.11C456.491 165.341 456.52 165.571 456.575 165.795C456.631 166.025 456.715 166.25 456.823 166.461C456.932 166.668 457.064 166.862 457.216 167.041C457.519 167.385 457.884 167.674 458.291 167.894C458.678 168.109 459.088 168.284 459.512 168.415C459.929 168.547 460.353 168.657 460.783 168.741C461.182 168.823 461.597 168.893 462.053 168.955C462.832 169.064 463.669 169.143 464.611 169.199C465.4 169.246 466.238 169.28 467.17 169.293C467.83 169.307 468.495 169.307 469.157 169.307H474.83C475.969 169.286 477.107 169.233 478.243 169.146C478.814 169.103 479.383 169.044 479.95 168.968C480.527 168.896 481.099 168.787 481.66 168.64C482.259 168.485 482.833 168.246 483.362 167.932C483.873 167.624 484.307 167.209 484.631 166.717C484.946 166.213 485.142 165.648 485.201 165.062C485.279 164.425 485.22 163.779 485.028 163.165C484.931 162.87 484.791 162.59 484.614 162.332L484.616 162.334ZM569.141 152.929H575.199L575.279 153.023L589.499 169.306H584.351L581.398 165.932H563.29L560.439 169.306H555.306L569.141 152.929ZM572.483 154.64L564.454 164.133H580.773C578.008 160.969 575.245 157.805 572.483 154.64Z" fill="#F0F0F5"/>
<path d="M652.43 143.367H639.5V149.334H652.43V143.367Z" fill="#F0F0F5"/>
<path d="M655.046 143.367V149.334H664.849V175.303H670.573V143.367H655.046Z" fill="#F0F0F5"/>
<path d="M661.988 169.339H639.5V175.307H661.988V169.339Z" fill="#F0F0F5"/>
<path d="M661.988 160.681H639.5V166.648H661.988V160.681Z" fill="#F0F0F5"/>
<path d="M661.988 152.026H639.5V157.993H661.988V152.026Z" fill="#F0F0F5"/>
<path d="M691.468 143.307V156.137H689.028V145.544H682.917V156.137H680.476V143.307H691.468Z" fill="#F0F0F5"/>
<path d="M704.637 156.137H694.658V143.307H704.637V145.544H697.102V148.001H704.513V150.164H697.102V153.903H704.637V156.137Z" fill="#F0F0F5"/>
<path d="M709.732 148.403H714.31C715.414 148.403 716.022 147.998 716.022 146.972C716.022 145.945 715.417 145.544 714.31 145.544H709.732V148.403ZM709.732 150.64V156.137H707.292V143.307H714.434C717.34 143.307 718.499 144.809 718.499 146.972C718.499 149.134 717.34 150.64 714.434 150.64H709.732Z" fill="#F0F0F5"/>
<path d="M726.962 153.903C728.456 153.903 729.17 153.281 729.17 152.015C729.17 150.805 728.405 150.179 726.977 150.179H723.131V153.913L726.962 153.903ZM727.334 148.054C728.314 148.054 728.831 147.634 728.831 146.791C728.831 146.001 728.281 145.547 727.334 145.547H723.131V148.057L727.334 148.054ZM720.691 143.307H727.585C729.883 143.307 731.307 144.7 731.307 146.608C731.307 147.743 730.808 148.642 729.919 149.044C730.452 149.332 730.896 149.769 731.201 150.303C731.506 150.837 731.66 151.448 731.646 152.068C731.646 154.765 730.043 156.137 726.962 156.137H720.691V143.307Z" fill="#F0F0F5"/>
<path d="M737.542 150.329H740.929L739.236 146.387L737.542 150.329ZM741.855 152.506H736.617L735.069 156.153H732.466L738.096 143.307H740.448L746.079 156.137H743.424L741.855 152.506Z" fill="#F0F0F5"/>
<path d="M755.858 145.544H751.244C750.122 145.544 749.571 145.948 749.571 146.881C749.571 147.815 750.122 148.219 751.244 148.219H755.858V145.544ZM758.301 143.307V156.137H755.858V150.462H753.847L749.962 156.137H747.095L751.026 150.456C748.247 150.437 747.095 148.988 747.095 146.881C747.095 144.775 748.216 143.307 751.12 143.307H758.301Z" fill="#F0F0F5"/>
<path d="M689.119 175.112H687.086L682.917 166.096V175.112H680.476V162.282H683.648L688.121 171.998L692.593 162.282H695.729V175.112H693.285V166.096L689.119 175.112Z" fill="#F0F0F5"/>
<path d="M708.877 175.112H698.898V162.282H708.877V164.519H701.341V166.973H708.752V169.139H701.341V172.878H708.877V175.112Z" fill="#F0F0F5"/>
<path d="M713.972 172.878H717.857C719.46 172.878 720.138 172.017 720.138 170.769C720.138 169.521 719.46 168.66 717.857 168.66H713.972V172.878ZM722.614 170.769C722.614 173.096 721.187 175.125 717.945 175.125H711.531V162.285H721.383V164.522H713.972V166.429H717.945C721.187 166.429 722.614 168.445 722.614 170.784" fill="#F0F0F5"/>
<path d="M734.942 175.112H724.963V162.282H734.942V164.519H727.407V166.973H734.818V169.139H727.407V172.878H734.942V175.112Z" fill="#F0F0F5"/>
<path d="M749.088 162.285V175.115H746.648V164.537H741.446V169.394C741.446 174.197 740.591 175.168 737.515 175.168H736.385V172.804H737.364C738.755 172.804 739.076 172.29 739.076 169.381V162.285H749.088Z" fill="#F0F0F5"/>
<path d="M758.425 168.296H754.709V172.863H758.416C760.161 172.863 760.875 171.929 760.875 170.573C760.875 169.217 760.161 168.283 758.416 168.283M758.522 175.1H752.29V162.285H754.709V166.059H758.522C761.909 166.059 763.36 168.146 763.36 170.585C763.36 173.025 761.918 175.112 758.522 175.112" fill="#F0F0F5"/>
<path d="M776.795 162.282V175.112H774.352V169.154H768.065V175.112H765.625V162.282H768.065V166.92H774.352V162.282H776.795Z" fill="#F0F0F5"/>
<path d="M783.738 169.304H787.122L785.429 165.362L783.738 169.304ZM788.048 171.481H782.831L781.283 175.128H778.679L784.295 162.285H786.647L792.277 175.115H789.623L788.048 171.481Z" fill="#F0F0F5"/>
<path d="M802.06 164.519H797.445C796.323 164.519 795.77 164.92 795.77 165.856C795.77 166.793 796.323 167.194 797.445 167.194H802.06V164.519ZM804.5 162.285V175.115H802.06V169.44H800.046L796.16 175.122H793.294L797.225 169.44C794.446 169.422 793.294 167.972 793.294 165.866C793.294 163.759 794.415 162.285 797.319 162.285H804.5Z" fill="#F0F0F5"/>
<path d="M883.165 155.823C882.096 155.289 881.213 153.724 881.379 152.619C881.415 152.326 881.674 151.995 881.913 151.83C882.233 151.595 882.606 151.443 882.999 151.388C885.852 151.13 888.705 150.89 891.577 150.688C892.589 150.614 893.344 151.13 893.876 151.957C894.391 152.767 894.871 153.614 895.533 154.7C894.355 154.7 893.509 154.718 892.642 154.7C891.63 154.682 890.637 154.627 889.625 154.608C888.815 154.591 888.207 154.903 887.895 155.694C887.195 157.478 886.478 159.264 885.797 161.031C887.14 161.031 888.353 161.014 889.57 161.031C889.994 161.031 890.434 161.086 890.839 161.179C891.373 161.307 891.63 161.62 891.611 162.246C891.556 164.492 891.577 164.492 889.329 164.584C888.115 164.639 886.883 164.639 885.668 164.73C885.411 164.749 885.023 165.025 884.968 165.245C884.494 167.046 884.083 168.864 883.735 170.694C883.532 171.78 883.846 172.111 884.895 172.001C886.645 171.817 888.41 171.615 890.122 171.191C892.201 170.676 892.956 171.191 892.661 173.363C892.606 173.749 892.201 174.302 891.833 174.411C888.908 175.388 885.888 175.995 882.815 175.755C880.146 175.552 879.041 174.192 879.06 171.503C879.079 168.192 880.017 165.025 880.919 161.896C881.379 160.314 882.041 158.785 882.632 157.24C882.777 156.761 882.982 156.282 883.165 155.823ZM996.082 164.013C994.628 164.38 993.192 164.73 991.737 165.099C990.709 165.373 989.88 165.044 989.125 164.344C987.431 162.762 986.695 160.866 987.431 158.621C988.223 156.209 989.088 153.817 990.063 151.478C990.579 150.245 990.966 150.245 991.997 151.074C994.628 153.246 993.984 153.043 993.081 155.399C992.549 156.799 992.106 158.231 991.756 159.688C991.445 160.975 991.978 161.472 993.284 161.27C996.8 160.738 996.763 160.738 997.83 157.332C998.308 155.786 998.935 154.277 999.596 152.803C1000.13 151.607 1000.5 151.571 1001.57 152.288C1003.85 153.815 1003.87 153.836 1002.87 156.375C1000.81 161.638 999.726 167.105 999.394 172.756C999.358 173.52 999.247 174.278 999.063 175.021C998.88 175.793 998.456 175.94 997.775 175.552C996.994 175.125 996.221 174.683 995.455 174.228C994.739 173.785 994.407 173.161 994.572 172.294C995.07 169.59 995.566 166.847 996.082 164.013ZM902.157 155.251C900.943 155.325 899.893 155.399 898.827 155.454C897.335 155.527 895.919 153.891 896.36 152.474C896.47 152.105 897.098 151.7 897.52 151.626C899.666 151.307 901.82 151.043 903.979 150.835C905.287 150.688 906.594 150.652 907.919 150.521C909.703 150.338 911.617 151.24 912.391 152.657C912.98 153.76 912.722 154.369 911.508 154.534C910.386 154.7 909.262 154.791 908.14 154.848C907.495 154.882 907.201 155.122 906.999 155.768C905.103 161.858 903.87 168.1 902.986 174.411C902.784 175.921 902.488 176.086 901.071 175.571C900.814 175.479 900.557 175.369 900.316 175.259C898.496 174.393 898.127 173.823 898.532 171.872C899.618 166.664 900.797 161.472 901.955 156.263C902.01 155.951 902.066 155.656 902.157 155.251Z" fill="#F0F0F5"/>
<path d="M874.347 148.239C872.341 148.515 870.555 148.682 868.788 149.032C867.611 149.251 866.747 149.62 866.635 151.33C866.194 157.755 864.556 163.94 862.936 170.141C862.624 171.319 862.053 172.369 861.022 173.087C859.752 173.934 858.519 173.418 858.261 171.908C857.82 169.202 858.537 166.627 859.145 164.031C860.103 159.827 861.042 155.618 861.962 151.404C861.996 151.24 861.996 151.056 861.996 150.816C860.543 151.166 859.164 151.516 857.765 151.828C857.408 151.902 857.044 151.939 856.679 151.94C854.801 151.957 854.175 151.13 854.655 149.325C854.986 148.093 855.796 147.283 856.937 146.86C863.103 144.595 869.36 142.625 876.04 142.754C877.717 142.792 879.41 142.884 881.065 143.159C883.107 143.492 883.881 145.792 882.556 147.448C882.225 147.853 881.839 148.239 881.232 147.927C880.551 147.577 880.163 147.891 879.979 148.515C879.298 150.835 878.581 153.154 877.991 155.491C876.63 160.94 875.949 166.497 875.599 172.093C875.507 173.62 874.992 175.001 873.409 175.627C872.156 176.125 870.96 175.497 870.648 174.191C869.967 171.412 870.224 168.633 870.758 165.889C871.77 160.588 872.949 155.326 874.035 150.061C874.145 149.491 874.218 148.903 874.347 148.239ZM971.289 165.098C971.472 164.786 971.62 164.436 971.841 164.179C975.209 160.442 978.577 156.724 981.964 153.026C982.461 152.492 983.069 152.068 983.639 151.608C984.265 151.111 984.89 151.204 985.479 151.682C986.989 152.914 987.192 154.239 985.791 155.565C983.639 157.627 983.493 160.368 983.086 162.964C982.516 166.553 982.314 170.197 981.964 173.824C981.761 175.976 981.302 176.235 979.368 175.24C977.381 174.21 976.663 173.05 977.013 170.86C977.399 168.411 977.988 166.001 978.485 163.572C978.541 163.276 978.596 162.983 978.504 162.576C978.062 163.091 977.584 163.572 977.16 164.103C974.583 167.418 972.007 170.731 969.467 174.063C968.6 175.185 968.086 175.349 966.817 174.706C966.485 174.541 966.21 174.301 965.878 174.118C964.939 173.565 964.626 172.791 964.866 171.707C966.099 166.368 967.296 161.013 968.546 155.674C968.877 154.24 969.284 152.823 969.781 151.442C970.184 150.337 970.608 150.246 971.583 150.854C971.602 150.871 971.639 150.89 971.657 150.908C973.976 152.363 974.124 152.785 973.35 155.4C972.485 158.399 971.676 161.418 970.847 164.417C970.81 164.529 970.847 164.658 970.865 164.767C971.049 164.896 971.178 165.008 971.289 165.098ZM951.854 173.805C951.743 174.097 951.669 174.32 951.597 174.54C951.099 175.957 950.564 176.142 949.276 175.294C948.947 175.077 948.628 174.844 948.32 174.596C946.846 173.399 946.627 172.718 947.344 170.933C949.187 166.329 950.383 161.491 950.895 156.558C950.914 156.448 950.895 156.318 950.895 156.153C949.497 155.748 948.632 154.791 948.191 153.412C947.951 152.693 948.118 152.085 948.89 151.866C952.331 150.835 955.83 149.97 959.436 150.908C961.443 151.423 963.099 152.49 964.094 154.369C965.418 156.925 964.608 159.854 962.069 161.859C961.608 162.209 961.129 162.522 960.596 162.889C961.995 163.884 963.1 165.062 963.208 166.828C963.262 167.556 963.175 168.288 962.951 168.983C962.013 171.65 960.283 173.713 957.854 175.147C955.866 176.326 954.172 176.03 952.517 174.43C952.314 174.227 952.113 174.046 951.854 173.805ZM952.443 171.338C954.891 171.136 956.842 170.269 958.221 168.356C958.535 167.933 958.719 167.361 958.811 166.847C958.995 165.852 958.461 164.896 957.523 164.73C956.584 164.584 955.608 164.694 954.632 164.73C954.467 164.73 954.246 164.953 954.191 165.117C953.603 167.142 953.052 169.183 952.443 171.338ZM955.075 154.7C956.252 156.927 955.058 159.099 955.058 161.343C957.082 160.516 958.866 159.504 960.1 157.718C961.055 156.32 960.577 154.993 958.94 154.534C957.633 154.166 956.344 154.35 955.075 154.7ZM941.53 152.73C943.388 151.792 943.738 151.828 944.695 153.614C947.363 158.565 947.457 163.681 945.338 168.835C944.558 170.777 943.328 172.506 941.749 173.879C937.038 177.962 932.215 174.982 930.762 171.153C929.567 168.025 929.621 164.805 930.431 161.583C931.37 157.809 933.099 154.498 935.99 151.847C937.941 150.042 938.567 150.08 940.591 151.809C940.903 152.104 941.199 152.416 941.53 152.73ZM934.461 167.361C934.535 168.025 934.59 168.797 934.683 169.552C934.737 169.938 934.849 170.324 934.978 170.712C935.547 172.294 936.487 172.553 937.738 171.45C938.031 171.191 938.308 170.896 938.548 170.583C940.885 167.583 942.025 164.105 942.099 160.35C942.137 158.951 941.732 157.515 941.289 156.153C940.922 154.993 940.204 154.884 939.229 155.601C938.786 155.934 938.4 156.338 938.069 156.761C935.657 159.835 934.701 163.422 934.461 167.361ZM918.393 165.189C917.969 167.821 917.545 170.436 917.159 173.068C916.754 175.902 916.607 176.012 913.827 175.349L912.944 175.128C912.134 174.926 911.691 174.43 911.822 173.601C911.986 172.517 912.207 171.442 912.484 170.381C913.608 165.87 914.766 161.362 915.925 156.853C916.054 156.356 915.835 156.153 915.613 155.767C915.08 154.901 914.584 153.962 914.38 152.971C914.215 152.085 915.117 151.699 915.835 151.423C918.038 150.554 920.432 150.288 922.773 150.651C924.871 150.963 926.693 151.809 928.165 153.355C929.822 155.105 930.172 156.889 929.16 159.08C927.834 161.933 925.9 164.325 923.435 166.275C923.167 166.481 922.885 166.665 922.589 166.828C921.429 167.473 920.729 167.38 919.793 166.442C919.386 166.037 919.038 165.577 918.669 165.153C918.578 165.174 918.486 165.187 918.393 165.189ZM918.521 162.798C918.614 162.889 918.705 162.962 918.796 163.055C920.086 162.208 921.448 161.454 922.625 160.478C923.546 159.706 924.337 158.711 924.945 157.682C925.626 156.539 924.981 155.453 923.637 155.306C922.827 155.215 921.999 155.271 921.189 155.306C920.434 155.362 919.957 155.803 919.791 156.558C919.551 157.534 919.331 158.528 919.129 159.521C918.907 160.607 918.724 161.712 918.521 162.798Z" fill="#F0F0F5"/>
<path d="M1124.39 177.284L1122.36 171.781L1120.68 171.416L1121 170.476C1121.1 170.177 1121.02 169.92 1120.78 169.725C1120.71 169.673 1120.65 169.621 1120.57 169.564C1120.24 169.317 1119.69 169.032 1118.83 168.026C1117.62 166.63 1116.52 164.992 1115.91 163.074C1115.28 161.066 1115.15 158.848 1115.14 158.63V158.321L1115.13 158.255L1115.12 158.217C1115.02 157.861 1114.78 157.728 1114.46 157.643C1113.76 157.462 1113.13 157.087 1112.29 156.422C1111.54 155.819 1110.56 154.21 1110.27 152.957C1110.06 152.055 1109.98 151.167 1109.99 150.602L1110.2 150.564C1110.42 150.521 1110.9 150.493 1111.34 150.493C1111.68 150.493 1111.93 150.383 1112.07 150.165C1112.28 149.837 1112.12 149.486 1112.04 149.291C1111.88 148.954 1111.4 147.924 1110.39 147.226C1109.36 146.509 1107.31 145.242 1105.91 144.501C1104.33 143.656 1103.73 143.39 1103.52 143.309C1103.11 143.148 1102.72 143.119 1102.35 143.115C1102.28 143.115 1102.2 143.115 1102.12 143.115C1101.52 143.115 1100.49 143.138 1099.57 143.162C1098.92 143.176 1098.28 143.191 1097.78 143.2C1096.55 143.219 1094.75 143.233 1093.01 143.243C1092.09 143.248 1091.24 143.257 1090.59 143.262C1090.43 143.262 1090.26 143.262 1090.06 143.262C1088.11 143.262 1084.14 143.195 1081.64 143.134C1081.92 142.63 1082.26 142.018 1082.52 141.553C1082.89 140.912 1083.48 139.692 1084.01 138.614L1084.02 138.581C1084.21 138.186 1084.39 137.821 1084.54 137.522C1085.07 136.454 1085.48 135.495 1085.72 134.925L1085.75 134.839C1086.03 134.189 1086.11 133.453 1086.11 133.13C1086.11 133.026 1086.1 132.817 1086.09 132.708C1086.11 132.712 1086.35 132.765 1086.43 132.779C1086.72 132.831 1087.12 132.864 1087.57 132.855C1087.91 132.85 1088.22 132.822 1088.47 132.76C1089.13 132.598 1089.76 132.247 1090.26 131.758C1090.88 131.146 1090.97 130.832 1090.98 130.828C1090.98 130.828 1091.07 130.6 1090.91 130.5C1090.57 130.296 1090 129.963 1089.66 129.835C1089.04 129.607 1088.25 129.394 1087.22 129.38C1086.25 129.365 1085.37 129.645 1085.37 129.645C1085.37 129.645 1085.32 129.042 1085.28 129.038L1089.04 129.147C1090.41 129.147 1092.01 129.009 1094.34 128.724C1097.12 128.382 1098.9 127.836 1100.75 127.167C1102.49 126.536 1104.23 125.653 1105.25 124.978C1106.22 124.337 1106.78 123.953 1107.69 123.184C1108.72 122.315 1109.55 121.47 1109.84 121.1L1110.45 120.307H1104.13L1103.98 120.516C1103.91 120.61 1103.24 121.484 1102.74 122.016C1102.2 122.586 1101.59 123.212 1100.42 124.1C1099.49 124.812 1098.6 125.273 1097.7 125.51C1097.37 125.596 1097.03 125.638 1096.66 125.638C1096.37 125.638 1096.08 125.61 1095.8 125.553C1095.22 125.439 1094.78 125.111 1094.66 125.012C1094.41 124.807 1094.16 124.713 1093.91 124.713C1093.68 124.713 1093.47 124.798 1093.28 124.959L1093.21 125.016C1093.04 125.168 1092.85 125.339 1092.56 125.51C1091.91 125.895 1091.3 126.18 1090.73 126.355C1090.25 126.507 1089.72 126.583 1089.2 126.583C1088.8 126.583 1088.42 126.536 1088.09 126.445C1087.58 126.303 1087.22 125.861 1087.13 125.766C1086.95 125.567 1086.74 125.425 1086.47 125.425C1086.29 125.425 1086.11 125.482 1085.96 125.591C1085.85 125.667 1085.51 125.838 1085.01 126.032C1084.5 126.232 1083.82 126.336 1083.1 126.336C1082.79 126.336 1082.48 126.317 1082.17 126.279C1080.87 126.113 1079.65 125.482 1079.3 125.296C1078.7 124.964 1077.89 124.418 1077.74 124.309L1077.47 124.119L1075.65 125.401L1076.24 125.904C1076.45 126.08 1076.75 126.279 1076.94 126.398C1077.2 126.564 1077.67 126.839 1078.2 127.129C1078.57 127.324 1078.81 127.438 1079.15 127.613L1079.18 127.628C1079.35 127.718 1079.56 127.851 1079.7 127.965C1079.92 128.155 1080.12 128.425 1080.12 128.606C1079.96 128.606 1079.6 128.572 1079.45 128.572C1079.36 128.572 1079.27 128.572 1079.2 128.572C1078.66 128.587 1078.27 128.686 1077.88 128.909C1077.63 129.052 1077.22 129.28 1076.99 129.408L1076.91 129.455C1076.77 129.531 1076.31 129.707 1075.94 129.769C1075.62 129.826 1075.08 129.888 1074.51 129.949L1074.24 129.978C1073.6 130.049 1072.05 130.263 1071.35 130.429C1070.63 130.6 1070.29 131.051 1070.36 131.782C1070.38 132.019 1070.45 132.299 1070.53 132.632C1070.55 132.727 1070.58 132.826 1070.6 132.926C1070.68 133.268 1070.74 133.444 1070.79 133.6C1070.8 133.648 1070.82 133.69 1070.84 133.743C1070.96 134.137 1071.19 134.317 1071.64 134.369C1072.5 134.464 1073.32 134.569 1073.95 134.664C1074.76 134.787 1075.26 134.863 1075.8 134.996C1075.42 135.3 1074.86 135.76 1074.16 136.302C1073.22 137.033 1070.85 138.87 1069.79 139.763C1067.59 141.619 1066.36 142.759 1064.89 145.702C1064.76 145.968 1064.55 146.391 1064.55 146.391C1064.21 147.074 1064.07 147.354 1063.82 147.924C1063.42 148.888 1063.92 149.301 1064.16 149.538L1064.34 149.704C1064.59 149.961 1065.14 150.383 1065.66 150.811C1065.92 151.02 1066.33 151.352 1066.7 151.66C1065.76 151.779 1064.51 151.998 1063.6 152.107C1062.12 152.287 1060.7 152.496 1060.13 152.596C1059.43 152.719 1059.25 153.004 1059.06 153.422L1059.03 153.488C1058.91 153.773 1058.71 154.348 1058.42 155.25C1058.24 155.829 1058.42 156.142 1058.62 156.375L1058.64 156.403C1058.72 156.498 1059.45 157.386 1060.41 158.45C1061.35 159.504 1062.05 160.24 1062.98 161.165C1063.64 161.816 1064.56 162.689 1065.11 163.212C1064.91 163.511 1064.61 163.952 1064.38 164.275C1064.08 164.693 1063.44 165.609 1062.83 166.502L1062.24 167.356C1061.58 168.306 1061.24 168.719 1060.78 169.289L1060.56 169.559C1060.02 170.229 1059.04 171.287 1058.42 171.867L1058.4 171.886C1057.79 172.455 1057.63 172.612 1056.87 173.671C1056.11 174.73 1054.86 176.857 1054.85 176.876L1054.61 177.293C1054.61 177.293 1054.44 177.597 1054.92 177.597H1059.19C1059.65 177.597 1059.74 177.26 1059.74 177.26C1059.86 176.956 1060.29 175.916 1060.57 175.304C1060.8 174.777 1061.24 173.714 1061.41 173.31H1062.57C1063.02 173.31 1063.03 172.925 1063.03 172.925C1063.04 172.887 1063.06 172.702 1063.25 172.147C1063.42 171.625 1063.82 170.851 1064.29 170.077C1064.69 169.426 1065.06 168.89 1066.06 167.608C1066.7 166.787 1067.38 166.027 1067.85 165.576C1067.92 165.628 1068.12 165.766 1068.22 165.828C1068.75 166.184 1069.22 166.312 1069.88 166.502C1070.64 166.725 1071.59 166.787 1072.6 166.853L1072.87 166.872C1073.51 166.915 1074.43 166.924 1075.08 166.924C1075.5 166.924 1075.8 166.924 1075.8 166.924C1075.8 166.924 1076.08 166.905 1076.17 166.905C1076.75 166.905 1076.32 166.321 1076.32 166.321L1074.02 163.402C1074.02 163.402 1073.82 163.05 1073.2 163.107C1072.41 163.183 1070.99 163.245 1070.54 163.269C1070.48 163.264 1070.45 163.145 1070.48 163.012C1070.93 162.561 1072.03 161.403 1072.55 160.857C1072.71 160.686 1072.92 160.472 1073.15 160.23L1073.25 160.121C1073.75 159.603 1074.37 158.886 1074.82 158.407C1075.1 158.635 1075.53 158.977 1075.98 159.342C1076.51 159.779 1076.88 159.95 1077.3 159.95C1077.65 159.95 1077.97 159.831 1078.39 159.665C1079.17 159.356 1081.19 158.583 1083.21 158.098C1085.2 157.624 1086.94 157.234 1089.62 156.916C1091.72 156.669 1093.32 156.636 1093.95 156.631C1094.16 156.883 1094.81 157.624 1095.17 158.003C1095.67 158.521 1096.55 159.342 1096.95 159.675C1097.21 159.898 1097.27 160.031 1097.11 160.344C1096.86 160.833 1096.36 161.626 1095.6 162.613C1094.85 163.601 1093.19 165.595 1091.98 167.053L1091.36 167.798C1090.77 168.51 1090.31 169.028 1089.9 169.488C1089.53 169.915 1089.2 170.281 1088.86 170.704C1088.23 171.477 1087.86 172.118 1087.38 173.239C1086.79 174.658 1086.11 176.648 1086.03 176.876L1085.82 177.607H1089.91C1090.25 177.607 1090.41 177.388 1090.41 177.388C1090.41 177.388 1090.95 176.79 1091.13 176.591C1091.26 176.443 1091.24 176.282 1091.24 176.282C1091.24 176.277 1091.24 175.622 1091.29 175.138C1091.32 174.63 1091.45 173.462 1091.49 173.144C1091.51 173.082 1091.69 172.982 1091.88 172.959C1092.16 172.93 1092.49 172.925 1092.59 172.925C1093 172.935 1093.07 172.607 1093.07 172.607C1093.1 172.527 1093.12 172.441 1093.15 172.346C1093.2 172.185 1093.26 172.004 1093.37 171.724C1093.5 171.411 1093.81 170.433 1094.5 169.298C1095.14 168.244 1096.26 166.981 1097.27 166.056C1098.31 165.115 1099.41 164.299 1101.07 163.231C1102.49 162.324 1103.85 161.735 1104.21 161.602C1104.63 161.45 1104.94 161.203 1104.83 160.762C1104.77 160.572 1104.62 159.803 1104.56 159.181C1104.52 158.877 1104.52 158.203 1104.52 157.818C1104.92 158.003 1105.8 158.483 1106.86 159.038C1108.44 159.86 1109.92 160.795 1110.85 161.559C1111.77 162.314 1112.63 163.663 1113.37 164.902C1113.9 165.79 1114.52 167.119 1115.21 168.391C1115.46 168.857 1115.7 169.346 1115.91 169.763C1116.29 170.504 1116.58 171.178 1116.89 171.805C1117.27 172.546 1117.59 173.191 1117.83 173.557C1118.24 174.207 1118.51 174.525 1118.81 174.82C1119.08 175.095 1119.4 175.38 1119.88 175.822C1120.29 176.187 1121.13 177.056 1121.5 177.412C1121.72 177.621 1121.92 177.592 1121.9 177.597H1124.12C1124.47 177.597 1124.38 177.284 1124.38 177.284H1124.39ZM1085.59 130.22C1085.89 130.03 1086.61 129.736 1087.43 129.736C1088.8 129.736 1090.08 130.457 1090.26 130.737C1090.44 131.017 1089.28 132.128 1087.61 132.128C1086.59 132.128 1085.91 131.625 1085.64 131.34C1085.57 131.274 1085.56 131.136 1085.7 131.174C1086.43 131.364 1088.35 131.687 1089.55 130.752C1089.58 130.728 1089.59 130.666 1089.51 130.614C1089.04 130.32 1087.24 129.565 1085.62 130.277C1085.51 130.324 1085.38 130.343 1085.59 130.215L1085.59 130.22ZM1077.44 124.921L1076.37 125.681L1076.14 125.482L1077.48 124.527C1077.48 124.527 1081.3 127.96 1085.74 126.194C1086.41 125.928 1086.54 125.828 1086.91 126.132C1087.36 126.498 1089.56 128.05 1093.92 125.339C1094.4 125.092 1094.73 125.638 1095.84 125.857C1097.6 126.203 1100.9 125.543 1104.7 120.8C1104.71 120.8 1105.86 120.8 1105.86 120.8C1105.86 120.8 1101.36 126.384 1096.71 126.26C1095.04 126.218 1094.56 125.71 1094.35 125.819C1088.72 128.672 1086.95 126.293 1086.56 126.431C1083.49 127.49 1080.42 127.096 1077.43 124.921H1077.44ZM1065.2 147.492C1065 147.71 1064.86 147.872 1064.75 148.019C1064.74 148.028 1064.73 148.043 1064.72 148.052C1064.71 148.057 1064.71 148.066 1064.7 148.076C1064.53 148.328 1064.43 148.65 1064.43 148.65C1064.43 148.65 1064.34 148.826 1064.33 149.044C1064.16 148.85 1064.05 148.584 1064.28 148.043C1064.58 147.331 1064.72 147.084 1065.34 145.84C1066.76 142.982 1067.84 141.989 1070.01 140.157C1071.1 139.24 1073.43 137.403 1074.33 136.715C1075.22 136.026 1076.13 135.281 1076.36 135.086C1076.6 134.892 1076.65 134.678 1076.32 134.583C1075.64 134.388 1074.86 134.241 1073.88 134.094C1072.9 133.947 1071.81 133.823 1071.55 133.795C1071.29 133.766 1071.22 133.709 1071.15 133.501C1071.09 133.292 1071.02 133.144 1070.92 132.717C1070.92 132.717 1070.54 131.639 1070.81 131.203C1071.09 130.761 1071.77 130.676 1072.4 130.609C1073.03 130.543 1074.72 130.348 1075.39 130.282C1076.05 130.215 1076.72 130.049 1077.38 129.655C1078.05 129.256 1078.48 128.928 1079.52 128.928C1080.28 128.928 1080.99 129.028 1081.03 129.071C1081.03 129.071 1081.32 129.285 1080.58 129.185C1080.05 129.114 1079.18 129.133 1078.59 129.342C1078.33 129.432 1078.14 129.546 1077.67 129.845C1077.21 130.144 1076.47 130.438 1075.59 130.538C1074.83 130.623 1071.94 130.923 1071.58 131.022C1071.23 131.117 1070.84 131.298 1071.05 132.152H1071.08C1071.17 132.176 1071.49 132.242 1071.72 132.276C1071.89 132.299 1072.49 132.38 1073.11 132.456C1073.49 132.499 1073.87 132.541 1074.16 132.57C1075.36 132.674 1076.53 132.755 1077.74 132.793C1078.94 132.831 1080.34 132.812 1080.71 132.784C1080.95 132.765 1081.27 132.774 1081.46 132.893C1081.73 133.087 1081.59 133.467 1081.43 133.762C1081.37 133.866 1081.31 133.971 1081.24 134.08C1081.12 134.255 1080.99 134.441 1080.85 134.626C1080.83 134.649 1080.81 134.673 1080.8 134.697C1080.76 134.74 1080.72 134.782 1080.69 134.83C1080.54 135.006 1080.35 135.21 1080.13 135.438C1080.11 135.457 1080.09 135.476 1080.07 135.499C1079.91 135.665 1079.76 135.817 1079.63 135.936C1079.58 135.984 1079.54 136.031 1079.48 136.079C1079.46 136.097 1079.45 136.116 1079.43 136.135C1079.39 136.169 1079.35 136.202 1079.31 136.24C1079.03 136.492 1078.54 136.9 1078.39 137.028C1078.21 137.175 1077.57 137.669 1077.36 137.835C1077.26 137.911 1077 138.115 1076.74 138.315C1076.37 138.595 1075.97 138.889 1075.53 139.207C1075.25 139.416 1074.95 139.63 1074.64 139.858C1073.03 141.016 1071.15 142.35 1069.69 143.48C1069.64 143.523 1069.59 143.561 1069.55 143.585C1069.42 143.684 1069.25 143.822 1069.06 143.974C1068.8 144.188 1068.55 144.392 1068.33 144.577C1066.66 146.011 1065.69 146.989 1065.2 147.511V147.492ZM1080.4 130.149C1080.4 130.149 1080.07 130.837 1079.24 130.823C1078.42 130.809 1078.03 130.329 1078.03 130.329C1078.03 130.329 1078.33 129.892 1079.19 129.859C1080.04 129.826 1080.4 130.149 1080.4 130.149ZM1060.25 171.558C1059.73 172.185 1058.94 172.83 1058.71 173.058C1057.91 173.809 1056.9 175.765 1056.21 177.189H1055.3C1055.3 177.189 1057.09 173.652 1058.08 172.736C1058.56 172.299 1059.46 171.501 1060.08 170.798C1062.3 168.268 1065.33 163.487 1065.33 163.487L1065.82 163.919C1065.82 163.919 1062.39 168.98 1060.25 171.558H1060.25ZM1089.61 156.536C1086.9 156.859 1085.17 157.244 1083.14 157.728C1081.11 158.212 1079.09 158.977 1078.24 159.319C1077.38 159.66 1077.1 159.722 1076.3 159.072C1075.51 158.426 1074.79 157.847 1074.79 157.847C1074.62 158.037 1074.39 158.279 1074.14 158.545C1073.92 158.383 1073.37 158.027 1072.11 157.476C1070.82 156.911 1069.55 156.584 1068.96 156.446C1068.57 156.342 1067.99 156.218 1067.22 156.109C1065.59 155.881 1064.23 155.848 1063.82 155.838C1063.5 155.829 1063.15 155.838 1063.02 155.848C1062.81 155.663 1062.6 155.539 1062.6 155.539C1062.6 155.539 1064.45 155.473 1066.56 155.72C1068.66 155.967 1069.99 156.37 1071.02 156.641C1072.42 157.006 1074.14 157.989 1074.14 157.989C1074.14 157.989 1074.39 157.704 1074.75 157.4C1074.75 157.4 1074.75 157.4 1074.75 157.396C1074.75 157.396 1074.81 157.343 1074.9 157.282C1074.99 157.215 1075.12 157.12 1075.29 157.006C1075.41 156.93 1075.55 156.845 1075.7 156.75C1075.89 156.641 1076.1 156.517 1076.33 156.384C1076.51 156.289 1076.69 156.195 1076.86 156.109C1077.13 155.971 1077.43 155.834 1077.76 155.687C1077.81 155.663 1077.87 155.639 1077.92 155.615C1078.04 155.563 1078.17 155.506 1078.3 155.449C1078.53 155.354 1078.75 155.259 1078.98 155.169C1079.4 155.008 1079.99 154.78 1080.33 154.656C1080.52 154.585 1080.72 154.519 1080.92 154.452C1081.19 154.357 1081.47 154.272 1081.75 154.181C1082.01 154.101 1082.26 154.025 1082.53 153.954C1082.62 153.925 1082.72 153.901 1082.81 153.873C1083.05 153.806 1083.29 153.745 1083.53 153.688C1083.78 153.626 1084.03 153.569 1084.28 153.517C1084.55 153.46 1084.81 153.408 1085.08 153.355C1085.37 153.303 1085.65 153.251 1085.95 153.203C1086.12 153.175 1086.3 153.146 1086.47 153.123C1086.49 153.123 1086.52 153.118 1086.54 153.113C1086.83 153.071 1087.13 153.033 1087.43 152.995C1087.77 152.957 1088.1 152.919 1088.44 152.885C1088.82 152.852 1089.26 152.814 1089.54 152.79C1089.7 152.776 1089.87 152.767 1090.04 152.752C1090.36 152.729 1090.81 152.7 1091.12 152.686C1091.43 152.672 1091.98 152.643 1092.26 152.629C1092.99 155.169 1093.75 156.256 1093.75 156.256C1093.02 156.266 1091.51 156.318 1089.61 156.541L1089.61 156.536ZM1069.37 157.073C1069.37 157.073 1069.81 157.149 1070.1 157.272L1067.5 161.051L1066.95 160.638L1069.37 157.073H1069.37ZM1066.74 160.486C1066.69 160.439 1066.63 160.387 1066.55 160.325C1066.35 160.145 1066.07 159.898 1065.76 159.537L1065.6 159.366C1065.11 158.796 1064.89 158.583 1064.33 157.747C1064.02 157.301 1063.76 156.812 1063.59 156.365C1063.63 156.365 1063.95 156.375 1064.01 156.375C1064.44 156.384 1065.75 156.418 1067.32 156.641C1067.73 156.698 1068.09 156.76 1068.38 156.821C1068.63 156.873 1068.85 156.926 1069.03 156.973C1068.62 157.59 1068.04 158.473 1067.87 158.782C1067.69 159.081 1067.05 160.026 1066.74 160.496V160.486ZM1098.11 160.928C1097.47 161.991 1095.74 164.213 1094.1 166.279C1092.82 167.883 1091.41 169.369 1090.31 170.623C1089.21 171.876 1088.81 172.902 1088.4 173.994C1088.15 174.654 1087.51 176.69 1087.33 177.184H1086.37C1086.51 176.757 1087.15 174.725 1087.71 173.395C1088.18 172.27 1088.54 171.672 1089.12 170.969C1089.82 170.101 1090.47 169.441 1091.62 168.059C1092.77 166.677 1094.98 164.038 1095.89 162.851C1096.32 162.281 1096.67 161.811 1096.94 161.412C1097.7 160.254 1097.72 160.069 1097.69 159.883C1097.67 159.774 1097.38 159.423 1096.58 158.739C1096.42 158.592 1096.22 158.402 1096.01 158.198C1095.95 158.141 1095.89 158.084 1095.83 158.027C1095.77 157.965 1095.71 157.908 1095.66 157.851C1095.6 157.799 1095.55 157.742 1095.49 157.69C1095.47 157.666 1095.45 157.638 1095.42 157.619C1095.21 157.396 1094.95 157.097 1094.71 156.826C1094.53 156.612 1094.37 156.427 1094.29 156.327C1094.25 156.28 1094.23 156.251 1094.23 156.251C1093.37 155.008 1092.88 153.346 1092.7 152.634C1092.93 152.681 1093.09 152.805 1093.18 153.018C1093.22 153.118 1093.66 154.908 1094.61 156.071C1096.36 158.212 1097.79 159.086 1098.09 159.366C1098.52 159.765 1098.71 159.936 1098.1 160.928H1098.11ZM1104.14 157.324C1103.99 158.905 1104.35 160.662 1104.4 160.857C1104.45 161.061 1104.3 161.118 1104.13 161.184C1104.02 160.852 1103.79 160.13 1103.74 159.679C1103.68 159.072 1103.59 158.184 1103.63 157.467C1103.67 156.755 1103.75 155.254 1104.48 153.887C1105.27 152.373 1105.81 152.021 1106.95 151.143C1108.1 150.265 1109.05 149.999 1109.81 149.752C1110.33 149.581 1110.65 149.586 1110.81 149.515C1111.04 149.41 1110.41 148.612 1110.18 148.389C1109.74 147.948 1103.36 144.776 1103.3 144.743C1103.07 144.62 1102.51 144.392 1101.91 144.415C1094.39 144.724 1085.36 144.838 1082.76 144.819C1080.52 144.8 1074.96 144.928 1073.71 145.74C1072.41 146.58 1069.73 149.937 1069.73 149.937L1068.24 151.969L1069.06 152.657C1069.06 152.657 1066.69 152.828 1065.07 152.995C1063.45 153.165 1060.98 153.517 1060.61 153.574C1060.24 153.631 1060.08 153.664 1059.96 154.015C1059.84 154.367 1059.53 155.321 1059.48 155.459C1059.44 155.596 1059.45 155.696 1059.54 155.824C1059.64 155.952 1060.11 156.536 1061.09 157.619C1062.06 158.701 1063.4 160.149 1064.47 161.203C1065.54 162.257 1066.06 162.822 1067.18 163.743C1068.3 164.66 1069.43 165.562 1071.35 165.728C1072.96 165.866 1074.55 165.842 1075.2 165.823L1075.77 166.549C1075.77 166.549 1073.94 166.573 1072.88 166.502C1071.81 166.431 1070.76 166.378 1069.98 166.15C1069.2 165.923 1068.68 165.633 1068.32 165.396C1067.97 165.158 1067.76 164.992 1067.76 164.992L1065.56 163.102C1065.56 163.102 1064.09 161.726 1063.15 160.786C1062.2 159.846 1061.52 159.119 1060.59 158.084C1059.65 157.049 1058.92 156.171 1058.83 156.052C1058.73 155.933 1058.55 155.791 1058.69 155.34C1058.83 154.889 1059.12 153.996 1059.29 153.631C1059.45 153.26 1059.49 153.109 1060.03 153.014C1060.57 152.919 1061.94 152.714 1063.48 152.525C1065.02 152.335 1067.8 151.983 1067.8 151.983C1067.8 151.983 1067.61 151.827 1067.35 151.603L1068.61 149.88C1068.75 149.685 1068.91 149.481 1069.07 149.272L1070.1 147.915C1070.1 147.915 1070.99 146.775 1071.35 146.319C1071.45 146.205 1071.55 146.087 1071.66 145.968C1071.86 145.754 1072.12 145.498 1072.31 145.313C1072.35 145.28 1072.39 145.242 1072.43 145.208C1072.54 145.113 1072.66 145.023 1072.77 144.938C1073 144.781 1073.28 144.624 1073.51 144.525C1073.63 144.477 1073.75 144.439 1073.87 144.415C1074.07 144.377 1074.25 144.34 1074.43 144.311C1074.75 144.259 1075.09 144.216 1075.35 144.173C1075.35 144.173 1077.65 143.893 1078.48 143.794C1079.31 143.699 1080.59 143.504 1080.59 143.504C1080.59 143.504 1080.59 143.504 1080.6 143.494C1080.82 143.499 1080.95 143.499 1080.95 143.499C1083.57 143.575 1088.64 143.665 1090.48 143.646C1092.31 143.627 1095.73 143.613 1097.69 143.585C1099.04 143.566 1101.42 143.49 1102.25 143.504C1102.62 143.509 1102.94 143.542 1103.26 143.665C1103.51 143.765 1104.18 144.083 1105.6 144.838C1107.03 145.593 1109.07 146.865 1110.04 147.539C1111.01 148.209 1111.55 149.196 1111.65 149.415C1111.75 149.628 1111.89 149.942 1111.39 149.942C1110.88 149.942 1110.45 150.004 1110.1 150.084C1109.83 150.146 1109.35 150.336 1109 150.488C1106.72 151.509 1104.5 153.327 1104.13 157.329L1104.14 157.324ZM1115.78 164.736C1114.04 161.051 1114.62 158.91 1113.93 158.483C1113.23 158.06 1109.77 157.628 1108.67 151.181L1109.37 150.834C1109.37 150.834 1109.57 156.57 1114.22 157.861C1114.76 157.98 1114.77 158.602 1114.8 159.176C1114.83 159.746 1115.53 167.015 1120.75 169.987L1120.45 170.267C1119.21 169.545 1117.4 168.168 1115.78 164.736ZM1123.72 177.189L1121.94 172.356L1120.19 171.962L1120.54 171.639L1122.18 172L1124.06 177.184H1123.72V177.189Z" fill="#F0F0F5"/>
<path d="M1053.5 190.511C1053.5 196.355 1055.27 198.302 1058.29 198.302H1073.74C1074.61 198.302 1075.05 197.87 1075.05 197.001V189.642H1071.57C1070.7 189.642 1070.27 190.074 1070.26 190.938V193.972H1064.75V187.045H1073.74C1074.61 187.045 1075.05 186.613 1075.05 185.749V182.72H1058.29C1055.27 182.72 1053.5 184.666 1053.5 190.511ZM1118.52 193.977C1118.52 193.977 1124.08 187.99 1124.64 187.387C1125.22 186.751 1125.39 186.252 1125.4 185.341V182.715H1103.91V185.744C1103.91 186.608 1104.35 187.04 1105.21 187.04H1110.32L1103.95 193.967V196.996C1103.95 197.86 1104.39 198.292 1105.26 198.292H1125.5V193.962H1118.52L1118.52 193.977ZM1097.96 186.086C1097.05 183.446 1095.93 182.725 1092.45 182.725H1081.57L1076.79 198.307H1081.15L1081.89 195.662H1088.92L1089.34 197.186C1089.61 198.017 1090.07 198.307 1090.88 198.307H1102.16L1097.96 186.086ZM1082.76 192.548L1084.28 187.05H1085.6C1086.26 187.05 1086.6 187.268 1086.78 187.923L1088.06 192.548H1082.75H1082.76Z" fill="#F0F0F5"/>
<path d="M1339.88 134.314L1339.84 134.556C1330.24 136.573 1320.48 137.882 1310.7 138.814C1287.13 141.061 1262.98 141.381 1239.33 140.313C1223.18 139.584 1206.56 138.305 1190.69 135.136C1190.36 135.069 1187.9 134.66 1187.86 134.52C1187.84 134.457 1187.83 134.269 1187.95 134.313C1190.78 134.791 1193.62 135.217 1196.47 135.566C1215.55 137.909 1235.25 138.488 1254.47 138.692C1276.95 138.931 1299.74 138.563 1322.11 136.534C1328.06 135.994 1333.99 135.265 1339.88 134.314H1339.88Z" fill="#F0F0F5"/>
<path d="M1339.88 184.305C1337.12 183.877 1334.35 183.458 1331.57 183.112C1322.52 181.991 1313.42 181.368 1304.32 180.884C1280.98 179.645 1257.45 179.553 1234.07 180.407C1222.98 180.813 1211.84 181.391 1200.78 182.565C1196.49 183.021 1192.2 183.588 1187.95 184.307L1187.86 184.098C1195.38 182.488 1203.01 181.335 1210.66 180.473C1226.11 178.731 1241.66 178.005 1257.19 177.826C1275.21 177.619 1293.24 178.138 1311.17 179.864C1320.81 180.792 1330.41 182.12 1339.88 184.066V184.305Z" fill="#F0F0F5"/>
<path d="M1295.24 148.658L1294.94 149.792C1294.41 149.847 1293.89 149.865 1293.39 150.053C1292.62 150.343 1292.14 150.954 1291.82 151.697L1289.03 161.561L1298.87 152.315C1299.05 151.754 1299.26 150.821 1298.9 150.308C1298.57 149.834 1297.88 149.866 1297.37 149.799L1297.69 148.658H1306.71L1306.41 149.771C1306.14 149.881 1305.83 149.822 1305.56 149.866C1304.04 150.114 1303.27 150.868 1302.78 152.32C1301.42 156.3 1300.6 160.73 1299.38 164.774C1299.25 166.395 1300.32 166.677 1301.68 166.665L1301.3 167.865H1292.28L1292.58 166.671C1294.45 166.796 1295.11 165.75 1295.62 164.144L1298.13 155.022L1288.29 164.269C1288.15 164.537 1288.11 165.19 1288.14 165.494C1288.26 166.558 1289.28 166.7 1290.15 166.665L1289.86 167.865H1280.75L1281.11 166.673C1281.9 166.678 1282.77 166.548 1283.38 166.004C1284.31 165.167 1284.7 163.083 1285.05 161.877C1285.91 158.889 1286.86 155.764 1287.59 152.754C1287.82 151.83 1288.24 150.451 1287.09 149.994C1286.69 149.834 1286.26 149.86 1285.84 149.8L1286.13 148.661H1295.24L1295.24 148.658Z" fill="#F0F0F5"/>
<path d="M1317.94 148.658L1317.64 149.792C1316.96 149.85 1316.3 149.894 1315.7 150.247C1314.88 150.724 1314.54 151.59 1314.26 152.453C1313.7 154.181 1313.31 156.032 1312.8 157.781L1320.34 152.138C1321.09 151.478 1322.43 150.013 1320.55 149.86L1320.78 148.659H1329.06L1328.76 149.792C1328.67 149.85 1327.9 149.839 1327.73 149.861C1325.78 150.113 1324.06 151.411 1322.48 152.512C1320.98 153.55 1319.55 154.68 1318.06 155.723L1321.15 165.246C1321.57 166.151 1322.25 166.657 1323.27 166.666L1322.91 167.866H1314.87L1315.23 166.675C1316.24 166.72 1316.97 166.156 1316.88 165.074L1314.72 158.025L1312.24 159.769C1311.88 161.296 1311.21 162.913 1310.94 164.445C1310.63 166.161 1311.24 166.706 1312.92 166.667L1312.53 167.867H1303.52L1303.82 166.673C1305.81 166.76 1306.59 165.792 1307.15 164.027C1308.45 159.995 1309.39 155.712 1310.55 151.634C1310.69 150.089 1309.87 149.87 1308.54 149.804L1308.84 148.664H1317.94L1317.94 148.658Z" fill="#F0F0F5"/>
<path d="M1223.51 154.899C1223.35 154.053 1223.13 153.2 1222.72 152.437C1221.4 150 1218.71 149.88 1216.25 149.806L1214.47 156.159C1217.36 156.003 1222.23 155.762 1223.07 159.46C1224.19 164.421 1218.58 167.6 1214.44 167.865L1204.71 167.861L1205.06 166.688C1205.86 166.638 1206.59 166.584 1207.22 166.06C1208.15 165.296 1208.39 163.941 1208.71 162.833C1209.68 159.513 1210.84 155.843 1211.6 152.499C1211.73 151.921 1211.9 151.278 1211.72 150.699C1211.45 149.856 1210.51 149.876 1209.79 149.797L1210.06 148.716L1224.05 148.657L1224.7 154.898H1223.51L1223.51 154.899ZM1212.12 166.462C1212.64 166.993 1214.42 166.466 1215.04 166.193C1216.78 165.42 1218.81 163.224 1218.96 161.233C1219.16 158.703 1217.9 157.782 1215.56 157.657C1215.34 157.644 1214.11 157.626 1214.02 157.718L1212.07 164.801C1211.98 165.249 1211.78 166.101 1212.12 166.462H1212.12Z" fill="#F0F0F5"/>
<path d="M1265.91 148.658L1265.61 149.85C1263.53 149.851 1262.58 150.661 1261.95 152.587C1260.65 156.542 1259.75 160.776 1258.59 164.779C1258.53 165.318 1258.63 165.965 1259.09 166.292C1259.25 166.403 1259.85 166.662 1260.03 166.662H1260.88L1260.5 167.862H1251.19L1251.54 166.69C1253.25 166.698 1254.16 166.006 1254.74 164.413C1255.71 160.566 1257.05 156.724 1257.97 152.872C1258.29 151.556 1258.56 150.18 1256.77 150.039C1254.7 149.874 1253.89 151.019 1253.3 152.813C1252.33 155.787 1251.63 158.865 1250.67 161.847C1249.75 164.721 1248.14 169.075 1244.34 168.058C1242.3 167.509 1241.24 165.185 1242.33 163.284C1243.42 161.382 1246.27 161.644 1246.69 163.842C1245.73 163.838 1244.89 164.512 1245.21 165.556C1245.34 165.975 1245.83 166.099 1246.22 165.972C1247.56 165.532 1248.54 162.4 1248.95 161.128C1249.78 158.587 1250.6 155.898 1251.32 153.326C1251.52 152.597 1251.86 151.776 1251.68 151.01C1251.43 149.974 1249.73 149.834 1248.88 149.859L1249.18 148.658H1265.91Z" fill="#F0F0F5"/>
<path d="M1323.86 167.862L1324.18 166.723C1325.74 166.36 1326.62 165.075 1327.48 163.826L1336.82 148.916C1338.43 148.683 1340.04 148.439 1341.57 147.877C1341.64 148.463 1341.58 149.061 1341.59 149.651C1341.69 153.166 1341.8 156.693 1341.9 160.208C1341.93 161.542 1341.86 162.966 1341.95 164.291C1342.04 165.617 1342.48 166.776 1344.02 166.663L1343.73 167.864H1334.03L1334.39 166.672C1335.24 166.668 1336.13 166.623 1336.86 166.149C1338.26 165.244 1337.73 163.15 1337.76 161.743H1331.02C1330.6 162.616 1329.94 163.409 1329.51 164.262C1328.66 165.931 1329.42 166.66 1331.13 166.665L1330.78 167.865H1323.86L1323.86 167.862ZM1337.75 160.181L1337.54 151.605C1337.17 151.621 1337.1 151.841 1336.92 152.107L1332.02 160.181H1337.75Z" fill="#F0F0F5"/>
<path d="M1220.85 167.862L1221.22 166.671C1222.34 166.712 1223.24 166.02 1223.96 165.223C1227.77 159.899 1231.27 154.339 1234.94 148.916C1236.47 148.687 1238.01 148.458 1239.45 147.877L1239.48 164.411C1239.55 165.602 1239.83 166.748 1241.25 166.663L1240.96 167.864H1232.15L1232.5 166.691C1233.55 166.656 1234.79 166.457 1235.33 165.423C1235.42 165.256 1235.63 164.632 1235.63 164.473V161.743H1228.6C1228.2 162.724 1226.64 164.207 1226.64 165.254C1226.64 166.3 1227.97 166.713 1228.83 166.665L1228.45 167.865H1220.85L1220.85 167.862ZM1235.64 151.599C1235.48 151.634 1235.29 151.641 1235.19 151.781L1229.66 160.181H1235.64V151.599Z" fill="#F0F0F5"/>
<path d="M1284.12 148.658L1282.31 155.072L1281.43 155.025C1281.37 153.108 1281.23 150.989 1279.23 150.174C1278.98 150.073 1277.8 149.708 1277.65 149.919L1273.73 163.891C1273.03 165.872 1274.3 166.785 1276.14 166.665L1275.75 167.865H1265.85L1266.2 166.692C1267.79 166.676 1268.94 166.181 1269.59 164.664L1273.77 149.891C1270.62 149.875 1268.49 152.481 1267.15 155.082H1266.2L1267.92 148.661H1284.12L1284.12 148.658Z" fill="#F0F0F5"/>
<path d="M1206.43 148.899C1205.51 151.697 1203.14 153.75 1200.19 153.942C1195.15 154.267 1191.27 150.785 1185.84 151.918C1183.85 152.332 1182.12 153.348 1180.59 154.659C1181.65 151.89 1184.19 149.551 1187 148.717C1193.16 146.889 1198.62 152.705 1205.11 149.628C1205.56 149.414 1205.97 149.115 1206.43 148.899Z" fill="#F0F0F5"/>
<path d="M1203.88 155.859C1203.11 158.213 1201.27 160.119 1198.86 160.691C1195.11 161.579 1191.73 159.555 1188.17 158.879C1184.37 158.16 1180.93 159.024 1178.04 161.62C1179.13 158.819 1181.61 156.534 1184.46 155.678C1190.53 153.85 1195.98 159.513 1202.31 156.691C1202.85 156.448 1203.34 156.11 1203.88 155.859H1203.88Z" fill="#F0F0F5"/>
<path d="M1201.34 162.762C1201.51 163.003 1200.28 164.95 1200.04 165.25C1195.53 170.966 1188.61 165.49 1183.16 165.534C1181.09 165.55 1179.03 166.14 1177.28 167.238L1175.5 168.522C1176.75 165.524 1179.49 163.101 1182.65 162.431C1186.28 161.664 1189.29 163.331 1192.7 164.063C1195.67 164.702 1198.78 164.582 1201.34 162.762H1201.34Z" fill="#F0F0F5"/>
<path d="M1330.66 148.658L1329.88 151.291C1329.15 151.322 1328.41 151.254 1327.68 151.366C1326.03 151.616 1324.36 152.827 1323.01 153.772C1322.11 154.401 1320.74 155.307 1319.96 156.016C1319.9 156.074 1319.82 156.115 1319.79 156.204L1322.49 164.364C1322.78 164.885 1323.14 165.423 1323.74 165.587L1323.68 165.88C1322.75 165.861 1322.11 165.104 1321.78 164.303L1318.96 156.02C1320.42 155.016 1321.82 153.911 1323.28 152.907C1324.5 152.07 1325.86 151.097 1327.33 150.839C1328.04 150.716 1328.76 150.694 1329.47 150.697L1330.01 148.667L1330.66 148.659L1330.66 148.658Z" fill="#F0F0F5"/>
<path d="M1242.97 168.342C1244.43 169.299 1246.52 169.326 1247.99 168.366C1249.63 167.298 1250.68 164.779 1251.31 162.971C1252.64 159.154 1253.52 155.143 1255.06 151.416C1255.24 151.205 1255.42 151.072 1255.68 150.998L1251.84 163.391C1251.02 165.662 1249.57 168.791 1247.06 169.465C1245.88 169.783 1244.13 169.778 1243.17 168.883C1242.98 168.705 1242.84 168.62 1242.97 168.342Z" fill="#F0F0F5"/>
<path d="M1204.77 156.88C1204.41 157.583 1204.03 158.288 1203.55 158.914C1202.36 160.466 1200.73 161.611 1198.8 162.013C1194.03 163.008 1189.52 159.635 1184.69 159.938C1182.38 160.083 1180.27 161.228 1178.58 162.76C1178.59 162.006 1179.39 161.516 1179.95 161.127C1184.46 157.999 1188.17 159.781 1192.8 161.015C1197.44 162.25 1201.4 161.974 1204.05 157.497C1204.26 157.139 1204.24 156.766 1204.77 156.88H1204.77Z" fill="#F0F0F5"/>
<path d="M1202.23 163.782C1201.38 165.775 1199.8 167.581 1197.81 168.455C1191.11 171.407 1184.88 163.735 1177.61 168.475L1176.03 169.664C1176.1 169.492 1176.11 169.166 1176.21 169.03C1176.43 168.724 1177.74 167.831 1178.12 167.612C1184.94 163.692 1190.52 170.23 1197.01 168.238C1198.85 167.673 1200.29 166.413 1201.31 164.796C1201.55 164.405 1201.72 163.664 1202.23 163.781L1202.23 163.782Z" fill="#F0F0F5"/>
<path d="M1207.31 149.919C1206.4 151.875 1204.95 153.644 1202.96 154.53C1197.66 156.892 1192.68 152.67 1187.41 152.975C1185.02 153.114 1182.89 154.217 1181.12 155.798C1181.15 155.391 1181.25 155.197 1181.53 154.927C1182.77 153.722 1184.85 152.824 1186.54 152.567C1191.37 151.83 1195.4 155.018 1200.13 154.72C1202.67 154.56 1204.98 153.158 1206.33 150.991C1206.44 150.81 1206.81 150.031 1206.87 149.975C1206.99 149.867 1207.17 149.926 1207.31 149.916L1207.31 149.919Z" fill="#F0F0F5"/>
<path d="M1308.13 148.658L1307.36 151.271C1306.49 151.332 1305.36 151.217 1304.7 151.925C1304.21 152.446 1303.86 154.242 1303.65 155.006C1302.68 158.521 1301.79 162.058 1300.86 165.582C1300.5 165.577 1300.34 165.151 1300.38 164.834C1301.5 160.925 1302.35 156.846 1303.53 152.967C1303.67 152.509 1303.78 152.104 1304.08 151.717C1304.76 150.842 1305.91 150.707 1306.94 150.691L1307.51 148.717L1308.13 148.658H1308.13Z" fill="#F0F0F5"/>
<path d="M1267.27 148.658L1266.49 151.291C1265.09 151.282 1264.07 151.234 1263.48 152.699L1260 165.583C1259.44 165.561 1259.49 164.995 1259.55 164.559C1260.7 160.835 1261.51 156.922 1262.69 153.22C1262.97 152.326 1263.3 151.455 1264.19 151.027C1264.79 150.739 1265.43 150.76 1266.08 150.694L1266.63 148.664L1267.27 148.658Z" fill="#F0F0F5"/>
<path d="M1241.08 148.057L1240.99 165.522C1240.65 165.522 1240.43 164.819 1240.42 164.533C1240.39 159.088 1240.48 153.654 1240.48 148.214L1241.08 148.057H1241.08Z" fill="#F0F0F5"/>
<path d="M1343.13 148.057L1343.46 165.522C1343.01 165.562 1342.86 164.42 1342.84 164.111C1342.67 161.614 1342.71 158.834 1342.66 156.313L1342.48 148.179L1343.13 148.059L1343.13 148.057Z" fill="#F0F0F5"/>
<path d="M1274.96 165.582C1274.47 165.538 1274.44 164.947 1274.5 164.545L1278.14 150.973C1278.18 150.906 1278.74 150.968 1278.73 151.135L1274.96 165.582Z" fill="#F0F0F5"/>
<path d="M1205.13 169.242L1205.27 168.761L1205.39 168.701L1214.85 168.705C1216.75 168.563 1218.6 168.041 1220.14 166.902C1220.3 167.493 1219.58 167.826 1219.14 168.074C1217.73 168.875 1216.22 169.146 1214.62 169.246L1205.13 169.243V169.242Z" fill="#F0F0F5"/>
<path d="M1296.78 148.658L1296 151.291C1294.5 151.284 1293.7 151.268 1293.15 152.814L1291.52 158.466L1290.86 158.501L1292.5 152.754C1293.07 151.102 1293.82 150.737 1295.54 150.672L1296.13 148.667L1296.78 148.659V148.658Z" fill="#F0F0F5"/>
<path d="M1266.38 169.243L1266.53 168.761L1266.65 168.701L1276.4 168.695L1276.96 166.757L1277.56 166.753L1276.91 169.243H1266.38Z" fill="#F0F0F5"/>
<path d="M1334.38 169.243L1334.53 168.761L1334.65 168.701L1344.4 168.706L1344.94 166.718L1345.5 166.752L1344.91 169.243H1334.38Z" fill="#F0F0F5"/>
<path d="M1292.76 169.243L1292.91 168.7L1301.88 168.705L1302.43 166.718C1302.56 166.765 1302.99 166.625 1302.98 166.811C1302.95 167.518 1302.44 168.493 1302.39 169.242H1292.76V169.243Z" fill="#F0F0F5"/>
<path d="M1251.9 169.243L1252.04 168.762L1252.16 168.702L1261.12 168.7L1261.63 166.718C1261.75 166.762 1262.21 166.628 1262.18 166.81L1261.5 169.242H1251.9V169.243Z" fill="#F0F0F5"/>
<path d="M1281.11 169.243L1281.26 168.699L1290.23 168.705L1290.8 166.748C1290.9 166.735 1291.35 166.635 1291.34 166.812C1291.3 167.537 1290.8 168.486 1290.75 169.243H1281.11Z" fill="#F0F0F5"/>
<path d="M1304.35 169.243L1304.5 168.7L1313.18 168.705L1313.72 166.718C1313.85 166.765 1314.29 166.625 1314.28 166.811C1314.24 167.518 1313.73 168.493 1313.69 169.242H1304.35L1304.35 169.243Z" fill="#F0F0F5"/>
<path d="M1319.6 148.658L1318.86 151.239C1318.76 151.361 1318.06 151.279 1317.85 151.296C1315.33 151.492 1315.75 153.371 1315.03 155.275L1314.22 155.92C1314.55 154.834 1314.74 153.55 1315.14 152.5C1315.7 150.996 1316.94 150.699 1318.41 150.69L1318.95 148.659L1319.6 148.657L1319.6 148.658Z" fill="#F0F0F5"/>
<path d="M1241.96 169.243H1232.68L1232.83 168.762L1232.94 168.702L1241.45 168.707L1241.93 167.203C1242.53 167.867 1242.07 168.497 1241.96 169.244V169.243Z" fill="#F0F0F5"/>
<path d="M1225.58 155.679L1224.82 148.658L1225.46 148.666L1226.23 156.22H1224.22L1224.11 155.679H1225.58Z" fill="#F0F0F5"/>
<path d="M1283 155.859L1284.94 148.692L1285.54 148.658L1283.53 156.399H1281.7V155.859H1283Z" fill="#F0F0F5"/>
<path d="M1221.33 169.243L1221.47 168.761L1221.59 168.701L1229.13 168.7L1229.64 166.718L1230.2 166.752L1229.55 169.243H1221.33Z" fill="#F0F0F5"/>
<path d="M1324.33 169.243L1324.48 168.699L1331.42 168.696L1331.93 166.718L1332.49 166.752L1331.9 169.243H1324.33Z" fill="#F0F0F5"/>
<path d="M1289.09 165.281C1289.12 165.027 1289.01 164.703 1289.17 164.498L1296.24 157.9L1296.1 158.743L1289.09 165.281Z" fill="#F0F0F5"/>
<path d="M1234.93 162.581V163.121H1229.63L1228.01 165.736C1227.65 165.75 1227.49 165.373 1227.64 165.059L1229.13 162.581H1234.93Z" fill="#F0F0F5"/>
<path d="M1217.43 151.244L1216.35 155.1C1216.24 155.291 1215.85 155.166 1215.65 155.199L1216.96 150.646C1218.21 150.608 1219.73 150.816 1220.81 151.488C1220.89 151.536 1221.29 151.825 1221.33 151.869C1221.43 152 1221.42 152.229 1221.24 152.139C1220.04 151.557 1218.77 151.228 1217.43 151.244Z" fill="#F0F0F5"/>
<path d="M1337.22 162.581V163.121H1331.78L1330.51 165.762C1330.3 165.971 1329.89 165.374 1330.03 165.161L1331.43 162.581H1337.22Z" fill="#F0F0F5"/>
<path d="M1266.32 156.399L1266.45 155.864L1267.73 155.848C1268.71 153.768 1270.26 151.308 1272.74 151.057L1272.71 151.655C1270.28 151.818 1268.95 154.416 1268.04 156.399H1266.32H1266.32Z" fill="#F0F0F5"/>
<path d="M1323.38 168.702L1323.27 169.243H1315.64L1315.76 168.702H1323.38Z" fill="#F0F0F5"/>
<path d="M1222.62 165.449C1222.55 165.453 1222.03 165.533 1222.1 165.373C1223.81 163.643 1224.67 160.91 1223.75 158.561C1223.96 158.308 1224.33 158.961 1224.41 159.12C1225.51 161.198 1224.08 163.941 1222.61 165.449H1222.62Z" fill="#F0F0F5"/>
<path d="M1313.86 159.401L1312.26 165.479C1312.11 165.802 1311.76 165.231 1311.74 165.005C1311.71 164.748 1311.87 164.345 1311.94 164.082C1312.3 162.709 1312.73 161.353 1313.11 159.985L1313.86 159.401H1313.86Z" fill="#F0F0F5"/>
<path d="M1250.95 152.258C1250.79 152.282 1250.86 152.239 1250.83 152.169C1250.5 151.318 1250.15 151.14 1249.24 151.058L1249.36 150.586C1250.33 150.461 1251.38 151.197 1250.95 152.259L1250.95 152.258Z" fill="#F0F0F5"/>
<path d="M1217.96 159.7C1217.67 159.467 1217.35 159.257 1216.99 159.152C1216.72 159.074 1215.34 158.875 1215.21 159.039L1213.47 165.606C1213.19 165.73 1212.95 165.468 1212.95 165.182L1214.67 158.558C1214.72 158.491 1214.78 158.504 1214.85 158.497C1215.46 158.419 1216.64 158.502 1217.2 158.754C1217.51 158.887 1218.1 159.336 1217.96 159.7Z" fill="#F0F0F5"/>
<path d="M1337.52 154.18L1334.5 159.52L1333.79 159.459L1336.84 154.238L1337.52 154.18Z" fill="#F0F0F5"/>
<path d="M1235.28 154.18L1232 159.465L1231.26 159.461L1234.57 154.269C1234.75 154.098 1235.05 154.21 1235.28 154.181L1235.28 154.18Z" fill="#F0F0F5"/>
</svg>
