<svg width="20" height="20" viewBox="0 0 20 20" fill="none" xmlns="http://www.w3.org/2000/svg">
<path fill-rule="evenodd" clip-rule="evenodd" d="M9.82129 1C13.5017 1.00018 16.6424 3.51367 16.6426 7.30778L16.6328 7.76676C16.5337 10.0512 15.7099 12.1881 14.7147 13.9761C13.7839 15.6482 12.6837 17.0501 11.8216 18.0296L11.4676 18.4235C11.2211 18.6921 10.9672 18.9894 10.5887 19.1689L10.4186 19.2381C10.104 19.3461 9.70114 19.3593 9.36475 19.278L9.22477 19.2373C8.86822 19.1142 8.61498 18.8895 8.39225 18.6554L8.17659 18.4211C7.27898 17.4409 5.99362 15.8794 4.92952 13.9679C3.86776 12.0605 3.00008 9.75745 3 7.30778C3.00019 3.5152 6.14073 1.00017 9.82129 1ZM9.82129 5.07552C8.28658 5.07574 7.04142 6.32072 7.04134 7.85547C7.04153 9.39011 8.28665 10.6344 9.82129 10.6346C11.356 10.6344 12.6002 9.39013 12.6004 7.85547C12.6003 6.32071 11.356 5.07571 9.82129 5.07552Z" fill="#006F3D"/>
</svg>
