<svg width="213" height="43" viewBox="0 0 213 43" fill="none" xmlns="http://www.w3.org/2000/svg">
<path d="M18.8725 37.6717C18.8725 37.8999 18.7764 38.1183 18.6063 38.2763L13.7754 42.765C13.2253 43.2761 12.311 42.8986 12.311 42.1603V5.32835C12.311 5.10009 12.4072 4.8817 12.5772 4.72367L17.4082 0.234972C17.9582 -0.27612 18.8725 0.101425 18.8725 0.839657V37.6717Z" fill="#006F3D"/>
<path d="M9.51824 34.0861C9.51824 34.6824 8.89356 35.0853 8.34526 34.8141C3.3843 32.3602 0.000176612 27.4602 0 21.8151C0 16.1697 3.38407 11.2684 8.34528 8.81434C8.89357 8.54313 9.51824 8.94609 9.51824 9.54233V34.0861Z" fill="#006F3D"/>
<path d="M21.6324 9.54234C21.6324 8.9461 22.257 8.54314 22.8053 8.81435C27.7665 11.2684 31.1506 16.1697 31.1506 21.8151C31.1504 27.4601 27.7662 32.3601 22.8053 34.8141C22.257 35.0853 21.6324 34.6824 21.6324 34.0861V9.54234Z" fill="#006F3D"/>
<path d="M50.6701 31.3411V28.9272C48.8804 28.8721 47.2982 28.5088 45.9236 27.8376C44.5583 27.1571 43.4881 26.2099 42.7132 24.9961C41.9383 23.7823 41.5508 22.3431 41.5508 20.6787C41.5508 19.0051 41.9383 17.5614 42.7132 16.3476C43.4881 15.1337 44.5583 14.1912 45.9236 13.5199C47.2982 12.8394 48.8804 12.4716 50.6701 12.4164V10.0577H54.185V12.4164C55.9655 12.4716 57.5431 12.8394 58.9177 13.5199C60.2923 14.1912 61.367 15.1337 62.142 16.3476C62.9169 17.5614 63.3044 19.0051 63.3044 20.6787C63.3044 22.3431 62.9169 23.7823 62.142 24.9961C61.367 26.2099 60.2923 27.1571 58.9177 27.8376C57.5431 28.5088 55.9655 28.8721 54.185 28.9272V31.3411H50.6701ZM50.6701 25.9065V15.4372C49.5354 15.474 48.5575 15.7085 47.7364 16.1407C46.9154 16.5729 46.2834 17.1752 45.8406 17.9476C45.3978 18.7109 45.1764 19.6212 45.1764 20.6787C45.1764 21.7362 45.3978 22.6466 45.8406 23.4098C46.2834 24.1731 46.9154 24.7708 47.7364 25.203C48.5575 25.626 49.5354 25.8605 50.6701 25.9065ZM54.185 25.9065C55.3198 25.8605 56.2977 25.626 57.1187 25.203C57.9398 24.7708 58.5717 24.1731 59.0146 23.4098C59.4574 22.6466 59.6788 21.7362 59.6788 20.6787C59.6788 19.6212 59.4574 18.7109 59.0146 17.9476C58.5717 17.1752 57.9398 16.5729 57.1187 16.1407C56.2977 15.7085 55.3198 15.474 54.185 15.4372V25.9065Z" fill="#111114"/>
<path d="M66.8396 30.4583V11.1474H70.4099V24.6788L79.4877 11.1474H83.0026V30.4583H79.4323V16.8165L70.3268 30.4583H66.8396Z" fill="#111114"/>
<path d="M87.8942 30.4583V11.1474H91.4921V18.6511H100.293V11.1474H103.891V30.4583H100.293V21.9339H91.4921V30.4583H87.8942Z" fill="#111114"/>
<path d="M117.657 30.8721C115.646 30.8721 113.884 30.4583 112.371 29.6307C110.858 28.8031 109.681 27.6399 108.842 26.141C108.002 24.6329 107.583 22.8627 107.583 20.8305C107.583 19.35 107.827 17.9982 108.316 16.7752C108.814 15.5429 109.515 14.4762 110.419 13.5751C111.333 12.6647 112.403 11.9658 113.63 11.4785C114.866 10.9819 116.222 10.7336 117.698 10.7336C119.221 10.7336 120.521 10.9267 121.601 11.3129C122.68 11.69 123.64 12.2279 124.479 12.9268L122.639 15.8648C122.048 15.3039 121.356 14.8901 120.563 14.6234C119.779 14.3475 118.907 14.2096 117.947 14.2096C116.923 14.2096 116.005 14.3613 115.194 14.6648C114.382 14.9682 113.69 15.4096 113.118 15.9889C112.546 16.5591 112.108 17.2487 111.803 18.058C111.499 18.8672 111.347 19.7776 111.347 20.7891C111.347 22.1776 111.619 23.3639 112.163 24.3478C112.707 25.3225 113.482 26.072 114.488 26.5961C115.493 27.1203 116.688 27.3824 118.072 27.3824C119.004 27.3824 119.912 27.2398 120.798 26.9548C121.693 26.6697 122.537 26.2145 123.33 25.5892L124.991 28.61C124.069 29.3273 122.998 29.8836 121.781 30.279C120.572 30.6744 119.197 30.8721 117.657 30.8721Z" fill="#111114"/>
<path d="M131.695 30.4583V14.4303H126.34V11.1474H140.663V14.4303H135.307V30.4583H131.695Z" fill="#111114"/>
<path d="M143.787 30.4583V11.1474H151.052C152.445 11.1474 153.682 11.3911 154.761 11.8785C155.84 12.3566 156.685 13.0509 157.293 13.9613C157.912 14.8717 158.221 15.9659 158.221 17.2441C158.221 18.5407 157.935 19.6396 157.363 20.5408C156.8 21.442 155.979 22.1316 154.899 22.6098C153.82 23.0788 152.51 23.3133 150.969 23.3133H147.385V30.4583H143.787ZM147.385 20.2649H150.956C152.109 20.2649 153.008 20.0258 153.654 19.5477C154.3 19.0695 154.623 18.3246 154.623 17.3131C154.623 16.3016 154.291 15.5429 153.626 15.0372C152.971 14.5222 152.09 14.2647 150.983 14.2647H147.385V20.2649Z" fill="#111114"/>
<path d="M170.581 30.8721C169.114 30.8721 167.753 30.6192 166.499 30.1135C165.253 29.5985 164.169 28.8859 163.247 27.9755C162.324 27.0651 161.609 25.9984 161.102 24.7754C160.594 23.5524 160.341 22.2282 160.341 20.8029C160.341 19.3683 160.594 18.0396 161.102 16.8165C161.609 15.5935 162.324 14.5268 163.247 13.6165C164.169 12.7061 165.253 11.998 166.499 11.4923C167.753 10.9865 169.114 10.7336 170.581 10.7336C172.039 10.7336 173.39 10.9911 174.636 11.506C175.881 12.021 176.965 12.7383 177.887 13.6578C178.81 14.5774 179.53 15.6487 180.046 16.8717C180.563 18.0855 180.821 19.3959 180.821 20.8029C180.821 22.2282 180.563 23.5524 180.046 24.7754C179.53 25.9984 178.81 27.0651 177.887 27.9755C176.965 28.8859 175.881 29.5985 174.636 30.1135C173.39 30.6192 172.039 30.8721 170.581 30.8721ZM170.581 27.4927C171.494 27.4927 172.343 27.3364 173.127 27.0237C173.921 26.7019 174.608 26.2513 175.189 25.672C175.779 25.0835 176.236 24.38 176.559 23.5616C176.891 22.734 177.057 21.8144 177.057 20.8029C177.057 19.4511 176.771 18.2741 176.199 17.2717C175.627 16.2694 174.852 15.4924 173.874 14.9406C172.897 14.3889 171.799 14.113 170.581 14.113C169.658 14.113 168.805 14.2693 168.021 14.582C167.237 14.8946 166.549 15.3452 165.959 15.9338C165.378 16.5223 164.921 17.2258 164.589 18.0442C164.266 18.8626 164.105 19.7822 164.105 20.8029C164.105 22.1546 164.386 23.3317 164.949 24.334C165.521 25.3363 166.296 26.1134 167.274 26.6651C168.251 27.2169 169.354 27.4927 170.581 27.4927Z" fill="#111114"/>
<path d="M184.491 30.4583V11.1474H188.061V24.6788L197.139 11.1474H200.654V30.4583H197.084V16.8165L187.978 30.4583H184.491ZM192.573 8.94045C191.502 8.94045 190.566 8.72895 189.763 8.30595C188.961 7.87376 188.338 7.28063 187.895 6.52659C187.462 5.77255 187.259 4.90355 187.286 3.91962H190.206C190.179 4.71045 190.377 5.34954 190.801 5.83691C191.235 6.31509 191.825 6.55418 192.573 6.55418C193.32 6.55418 193.906 6.31509 194.33 5.83691C194.764 5.34954 194.957 4.71045 194.911 3.91962H197.845C197.873 4.88516 197.66 5.74956 197.208 6.5128C196.766 7.26684 196.143 7.85996 195.34 8.29216C194.538 8.72436 193.615 8.94045 192.573 8.94045Z" fill="#111114"/>
</svg>
