<svg width="24" height="24" viewBox="0 0 24 24" fill="none" xmlns="http://www.w3.org/2000/svg">
<path fill-rule="evenodd" clip-rule="evenodd" d="M12 1.00977C16.4165 1.00998 20.1853 4.02617 20.1855 8.5791L20.1738 9.12988C20.0549 11.8712 19.0664 14.4355 17.8721 16.5811C16.7551 18.5876 15.4349 20.2698 14.4004 21.4453L13.9756 21.918C13.6797 22.2402 13.375 22.597 12.9209 22.8125L12.7168 22.8955C12.3392 23.0251 11.8558 23.041 11.4521 22.9434L11.2842 22.8945C10.8563 22.7469 10.5524 22.4771 10.2852 22.1963L10.0264 21.915C8.94923 20.7389 7.4068 18.8651 6.12988 16.5713C4.85576 14.2823 3.81455 11.5187 3.81445 8.5791C3.81468 4.02801 7.58333 1.00997 12 1.00977ZM12 5.90039C10.1583 5.90065 8.66416 7.39464 8.66406 9.23633C8.66429 11.0779 10.1584 12.571 12 12.5713C13.8416 12.5711 15.3347 11.0779 15.335 9.23633C15.3349 7.39462 13.8417 5.90062 12 5.90039Z" fill="#CFF9E6"/>
</svg>
