<svg width="48" height="48" viewBox="0 0 48 48" fill="none" xmlns="http://www.w3.org/2000/svg">
<path d="M43.1198 21.4791L40.3998 18.3191C39.8798 17.7191 39.4598 16.5991 39.4598 15.7991V12.3991C39.4598 10.2791 37.7198 8.53914 35.5998 8.53914H32.1998C31.4198 8.53914 30.2798 8.11914 29.6798 7.59914L26.5198 4.87914C25.1398 3.69914 22.8798 3.69914 21.4798 4.87914L18.3398 7.61914C17.7398 8.11914 16.5998 8.53914 15.8198 8.53914H12.3598C10.2398 8.53914 8.49977 10.2791 8.49977 12.3991V15.8191C8.49977 16.5991 8.07977 17.7191 7.57977 18.3191L4.87977 21.4991C3.71977 22.8791 3.71977 25.1191 4.87977 26.4991L7.57977 29.6791C8.07977 30.2791 8.49977 31.3991 8.49977 32.1791V35.5991C8.49977 37.7191 10.2398 39.4591 12.3598 39.4591H15.8198C16.5998 39.4591 17.7398 39.8791 18.3398 40.3991L21.4998 43.1191C22.8798 44.2991 25.1398 44.2991 26.5398 43.1191L29.6998 40.3991C30.2998 39.8791 31.4198 39.4591 32.2198 39.4591H35.6198C37.7398 39.4591 39.4798 37.7191 39.4798 35.5991V32.1991C39.4798 31.4191 39.8998 30.2791 40.4198 29.6791L43.1398 26.5191C44.2998 25.1391 44.2998 22.8591 43.1198 21.4791ZM33.3598 23.9991L31.0198 31.1191C30.7198 32.2991 29.4598 33.2591 28.1798 33.2591H24.4798C23.8398 33.2591 22.9398 33.0391 22.5398 32.6391L19.5998 30.3391C19.5398 31.6191 18.9598 32.1591 17.5398 32.1591H16.5798C15.0998 32.1591 14.4998 31.5791 14.4998 30.1791V20.6191C14.4998 19.2191 15.0998 18.6391 16.5798 18.6391H17.5598C19.0398 18.6391 19.6398 19.2191 19.6398 20.6191V21.3391L23.5198 15.5791C23.9198 14.9591 24.9398 14.5191 25.7998 14.8591C26.7398 15.1791 27.3398 16.2191 27.1398 17.1391L26.6598 20.2591C26.6198 20.5391 26.6798 20.7991 26.8598 20.9991C27.0198 21.1791 27.2598 21.2991 27.5198 21.2991H31.4198C32.1798 21.2991 32.8198 21.5991 33.1998 22.1391C33.5398 22.6591 33.5998 23.3191 33.3598 23.9991Z" fill="#111114"/>
</svg>
