<svg width="20" height="20" viewBox="0 0 20 20" fill="none" xmlns="http://www.w3.org/2000/svg">
<path fill-rule="evenodd" clip-rule="evenodd" d="M8.76412 1.66602C12.6837 1.66622 15.8608 4.84449 15.8608 8.76494L15.8519 9.1298C15.7764 10.6202 15.2404 11.9884 14.3846 13.0974L18.0665 16.7801C18.4214 17.1352 18.4214 17.7112 18.0665 18.0664C17.7114 18.4215 17.1356 18.4214 16.7805 18.0664L13.0986 14.3837C11.8993 15.3106 10.3962 15.8639 8.76338 15.8639L8.3986 15.8542C4.64866 15.6641 1.66606 12.5629 1.66602 8.76494L1.67563 8.39934C1.85969 4.76962 4.76965 1.85889 8.3986 1.6749L8.76412 1.66602ZM3.48475 8.76494C3.4848 11.6808 5.84821 14.0445 8.76338 14.0447C11.6788 14.0447 14.042 11.681 14.042 8.76494C14.042 5.84888 11.6788 3.48515 8.76338 3.48515C5.84818 3.4854 3.48475 5.84903 3.48475 8.76494Z" fill="#4D4D5C"/>
</svg>
