<svg width="20" height="20" viewBox="0 0 20 20" fill="none" xmlns="http://www.w3.org/2000/svg">
  <path
    d="M8.95 1.65C9.58 0.78 10.88 0.78 11.51 1.65L12.16 2.54C12.38 2.84 12.75 2.98 13.11 2.9L14.2 2.66C15.23 2.43 16.2 3.2 16.26 4.25L16.33 5.35C16.35 5.72 16.58 6.04 16.92 6.18L17.94 6.61C18.91 7.02 19.25 8.22 18.64 9.06L18 9.95C17.78 10.25 17.78 10.66 18 10.96L18.64 11.84C19.25 12.68 18.91 13.88 17.94 14.29L16.92 14.72C16.58 14.86 16.35 15.18 16.33 15.55L16.26 16.65C16.2 17.7 15.23 18.47 14.2 18.24L13.11 18C12.75 17.92 12.38 18.06 12.16 18.36L11.51 19.25C10.88 20.12 9.58 20.12 8.95 19.25L8.3 18.36C8.08 18.06 7.71 17.92 7.35 18L6.26 18.24C5.23 18.47 4.26 17.7 4.2 16.65L4.13 15.55C4.11 15.18 3.88 14.86 3.54 14.72L2.52 14.29C1.55 13.88 1.21 12.68 1.82 11.84L2.46 10.96C2.68 10.66 2.68 10.25 2.46 9.95L1.82 9.06C1.21 8.22 1.55 7.02 2.52 6.61L3.54 6.18C3.88 6.04 4.11 5.72 4.13 5.35L4.2 4.25C4.26 3.2 5.23 2.43 6.26 2.66L7.35 2.9C7.71 2.98 8.08 2.84 8.3 2.54L8.95 1.65Z"
    fill="currentColor"
    opacity="0.9"
  />
  <path
    d="M10.23 13.26C11.92 13.26 13.29 11.89 13.29 10.2C13.29 8.51 11.92 7.14 10.23 7.14C8.54 7.14 7.17 8.51 7.17 10.2C7.17 11.89 8.54 13.26 10.23 13.26Z"
    fill="none"
    stroke="currentColor"
    stroke-width="1.5"
  />
</svg>

