<svg width="48" height="48" viewBox="0 0 48 48" fill="none" xmlns="http://www.w3.org/2000/svg">
<path d="M20 31C19.18 31 18.5 31.68 18.5 32.5V35.5C18.5 36.32 19.18 37 20 37C20.82 37 21.5 36.32 21.5 35.5V32.5C21.5 31.68 20.82 31 20 31Z" fill="#111114"/>
<path d="M44 42.4995H42V19.9595C42 18.7195 41.44 17.5595 40.46 16.7995L26.46 5.91945C25.02 4.77945 22.98 4.77945 21.54 5.91945L7.54 16.7995C6.56 17.5595 6 18.7195 6 19.9395L5.9 42.4995H4C3.18 42.4995 2.5 43.1595 2.5 43.9995C2.5 44.8195 3.18 45.4995 4 45.4995H44C44.82 45.4995 45.5 44.8195 45.5 43.9995C45.5 43.1595 44.82 42.4995 44 42.4995ZM21 13.4995H27C27.82 13.4995 28.5 14.1795 28.5 14.9995C28.5 15.8195 27.82 16.4995 27 16.4995H21C20.18 16.4995 19.5 15.8195 19.5 14.9995C19.5 14.1795 20.18 13.4995 21 13.4995ZM34 42.4995H14V24.9995C14 23.3395 15.34 21.9995 17 21.9995H31C32.66 21.9995 34 23.3395 34 24.9995V42.4995Z" fill="#111114"/>
</svg>
