<svg width="64" height="36" viewBox="0 0 64 36" fill="none" xmlns="http://www.w3.org/2000/svg">
<rect width="64" height="36" rx="18" fill="#F0F0F5"/>
<rect x="6" y="6" width="24" height="24" rx="12" fill="white"/>
<path d="M18.0007 24.1676C18.4148 24.1676 18.7509 24.503 18.751 24.9172V26.417C18.751 26.8312 18.4149 27.1673 18.0007 27.1673C17.5865 27.1673 17.2511 26.8312 17.2511 26.417V24.9172C17.2512 24.5031 17.5865 24.1677 18.0007 24.1676Z" fill="#0E0E14"/>
<path d="M12.5799 22.361C12.8728 22.0684 13.3475 22.0682 13.6403 22.361C13.9332 22.6539 13.9332 23.1293 13.6403 23.4222L12.5799 24.4826C12.287 24.7755 11.8116 24.7755 11.5187 24.4826C11.226 24.1898 11.2261 23.7151 11.5187 23.4222L12.5799 22.361Z" fill="#0E0E14"/>
<path d="M22.361 22.361C22.6538 22.0682 23.1285 22.0684 23.4214 22.361L24.4826 23.4222C24.7752 23.7151 24.7754 24.1898 24.4826 24.4826C24.1897 24.7755 23.7143 24.7755 23.4214 24.4826L22.361 23.4222C22.0681 23.1293 22.0681 22.6539 22.361 22.361Z" fill="#0E0E14"/>
<path d="M18.0007 13.834C20.3018 13.834 22.1673 15.6995 22.1673 18.0007C22.1673 20.3018 20.3018 22.1673 18.0007 22.1673C15.6995 22.1673 13.834 20.3018 13.834 18.0007C13.834 15.6995 15.6995 13.834 18.0007 13.834Z" fill="#0E0E14"/>
<path d="M11.0841 17.2503C11.4982 17.2505 11.8337 17.5865 11.8337 18.0007C11.8336 18.4148 11.4982 18.7508 11.0841 18.751H9.5835C9.16946 18.7508 8.834 18.4147 8.83398 18.0007C8.83398 17.5866 9.16945 17.2505 9.5835 17.2503H11.0841Z" fill="#0E0E14"/>
<path d="M26.417 17.2503C26.8312 17.2503 27.1673 17.5864 27.1673 18.0007C27.1673 18.4149 26.8312 18.751 26.417 18.751H24.9172C24.503 18.7509 24.1677 18.4148 24.1676 18.0007C24.1676 17.5865 24.503 17.2504 24.9172 17.2503H26.417Z" fill="#0E0E14"/>
<path d="M11.5187 11.5187C11.8115 11.2259 12.2862 11.2261 12.5791 11.5187L13.6403 12.5791C13.9332 12.872 13.9332 13.3474 13.6403 13.6403C13.3474 13.9332 12.872 13.9332 12.5791 13.6403L11.5187 12.5791C11.2261 12.2862 11.2259 11.8115 11.5187 11.5187Z" fill="#0E0E14"/>
<path d="M23.4222 11.5187C23.7151 11.2261 24.1898 11.2259 24.4826 11.5187C24.7755 11.8116 24.7755 12.287 24.4826 12.5799L23.4222 13.6403C23.1293 13.9332 22.6539 13.9332 22.361 13.6403C22.0682 13.3475 22.0684 12.8728 22.361 12.5799L23.4222 11.5187Z" fill="#0E0E14"/>
<path d="M18.0007 8.83398C18.4149 8.83398 18.751 9.1701 18.751 9.58431V11.0841C18.7509 11.4983 18.4148 11.8337 18.0007 11.8337C17.5865 11.8336 17.2512 11.4983 17.2511 11.0841V9.58431C17.2511 9.17012 17.5865 8.83403 18.0007 8.83398Z" fill="#0E0E14"/>
</svg>
