<svg width="16" height="16" viewBox="0 0 16 16" fill="none" xmlns="http://www.w3.org/2000/svg">
<path fill-rule="evenodd" clip-rule="evenodd" d="M6.17153 8.61109C6.84479 8.61109 7.39057 9.15687 7.39057 9.83013V13.1825C7.39057 13.8347 6.8784 14.3674 6.23432 14.4001L6.17153 14.4016H2.81915L2.75635 14.4001C2.13307 14.3685 1.63321 13.8686 1.60159 13.2453L1.6001 13.1825V9.83013C1.6001 9.15687 2.14588 8.61109 2.81915 8.61109H6.17153ZM2.81915 13.1825H6.17153V9.83013H2.81915V13.1825Z" fill="#9D9DA3"/>
<path fill-rule="evenodd" clip-rule="evenodd" d="M13.1811 8.61109C13.8543 8.61109 14.4001 9.15687 14.4001 9.83013V13.1825C14.4001 13.8347 13.8879 14.3674 13.2438 14.4001L13.1811 14.4016H9.82867L9.76587 14.4001C9.14259 14.3685 8.64273 13.8686 8.61111 13.2453L8.60962 13.1825V9.83013C8.60962 9.15687 9.15541 8.61109 9.82867 8.61109H13.1811ZM9.82867 13.1825H13.1811V9.83013H9.82867V13.1825Z" fill="#9D9DA3"/>
<path fill-rule="evenodd" clip-rule="evenodd" d="M6.17153 1.60156C6.84479 1.60156 7.39057 2.14735 7.39057 2.82061V6.17299C7.39057 6.82519 6.8784 7.35787 6.23432 7.39055L6.17153 7.39204H2.81915L2.75635 7.39055C2.13307 7.35893 1.63321 6.85907 1.60159 6.23579L1.6001 6.17299V2.82061C1.6001 2.14735 2.14588 1.60156 2.81915 1.60156H6.17153ZM2.81915 6.17299H6.17153V2.82061H2.81915V6.17299Z" fill="#9D9DA3"/>
<path fill-rule="evenodd" clip-rule="evenodd" d="M13.1811 1.60156C13.8543 1.60156 14.4001 2.14735 14.4001 2.82061V6.17299C14.4001 6.82519 13.8879 7.35787 13.2438 7.39055L13.1811 7.39204H9.82867L9.76587 7.39055C9.14259 7.35893 8.64273 6.85907 8.61111 6.23579L8.60962 6.17299V2.82061C8.60962 2.14735 9.15541 1.60156 9.82867 1.60156H13.1811ZM9.82867 6.17299H13.1811V2.82061H9.82867V6.17299Z" fill="#9D9DA3"/>
</svg>
