<svg width="16" height="16" viewBox="0 0 16 16" fill="none" xmlns="http://www.w3.org/2000/svg">
<path fill-rule="evenodd" clip-rule="evenodd" d="M7.01174 1.33203C10.1474 1.33219 12.689 3.87481 12.689 7.01117L12.6819 7.30306C12.6216 8.4954 12.1927 9.58996 11.5081 10.4772L14.4536 13.4233C14.7376 13.7074 14.7376 14.1682 14.4536 14.4523C14.1696 14.7364 13.7089 14.7364 13.4248 14.4523L10.4793 11.5062C9.5199 12.2477 8.31738 12.6903 7.01115 12.6903L6.71932 12.6826C3.71937 12.5305 1.33329 10.0496 1.33325 7.01117L1.34095 6.71869C1.4882 3.81492 3.81616 1.48633 6.71932 1.33914L7.01174 1.33203ZM2.78824 7.01117C2.78828 9.34386 4.679 11.2348 7.01115 11.235C9.34346 11.235 11.234 9.34398 11.2341 7.01117C11.2341 4.67832 9.34348 2.78734 7.01115 2.78734C4.67898 2.78754 2.78824 4.67845 2.78824 7.01117Z" fill="#111114"/>
<circle cx="6.99146" cy="7.03052" r="1.55786" fill="#111114"/>
</svg>
