<svg width="170" height="110" viewBox="0 0 170 110" fill="none" xmlns="http://www.w3.org/2000/svg">

<g clip-path="url(#clip0_465_14291)">
<mask id="mask0_465_14291" style="mask-type:luminance" maskUnits="userSpaceOnUse" x="22" y="44" width="126" height="22">
<path d="M148 44H22V66H148V44Z" fill="white"/>
</mask>
<g mask="url(#mask0_465_14291)">
<path d="M147.895 51.993C147.826 51.8179 147.724 51.6676 147.596 51.5374C147.467 51.4095 147.314 51.313 147.143 51.2412C146.97 51.1716 146.781 51.1357 146.572 51.1357C146.364 51.1357 146.177 51.1716 146.002 51.2412C145.829 51.313 145.678 51.4118 145.547 51.5374C145.418 51.6676 145.318 51.8157 145.25 51.993C145.178 52.1657 145.141 52.3564 145.141 52.5606C145.141 52.7648 145.176 52.9511 145.25 53.1284C145.318 53.3034 145.418 53.4538 145.547 53.5794C145.678 53.7096 145.829 53.8061 146.002 53.8801C146.175 53.9497 146.368 53.9856 146.572 53.9856C146.776 53.9856 146.967 53.9497 147.143 53.8801C147.314 53.8083 147.467 53.7096 147.596 53.5794C147.724 53.4515 147.826 53.3034 147.895 53.1284C147.964 52.9533 147.999 52.7648 147.999 52.5606C147.999 52.3564 147.964 52.1657 147.895 51.993ZM147.613 53.1845C147.511 53.3685 147.367 53.5143 147.187 53.6198C147.007 53.7253 146.803 53.7814 146.572 53.7814C146.341 53.7814 146.137 53.7275 145.955 53.6198C145.776 53.5143 145.633 53.3685 145.529 53.1845C145.425 53.0005 145.374 52.794 145.374 52.5606C145.374 52.3273 145.425 52.1141 145.529 51.9324C145.633 51.7506 145.776 51.6047 145.955 51.4993C146.137 51.3938 146.341 51.3377 146.572 51.3377C146.803 51.3377 147.007 51.3916 147.187 51.4993C147.367 51.6047 147.511 51.7506 147.613 51.9324C147.718 52.1141 147.769 52.3228 147.769 52.5606C147.769 52.7985 147.718 53.0005 147.613 53.1845Z" fill="#9696A3"/>
<path d="M147.135 52.5651C147.239 52.4731 147.295 52.3519 147.295 52.2038C147.295 52.0557 147.241 51.9345 147.135 51.8403C147.031 51.7461 146.893 51.7012 146.722 51.7012H145.961V53.4111H146.185V52.7042H146.473L147.011 53.4111H147.299L146.738 52.7042C146.899 52.702 147.035 52.6526 147.137 52.5651H147.135ZM146.185 52.5202V51.8897H146.707C146.818 51.8897 146.904 51.9211 146.966 51.9749C147.029 52.0333 147.062 52.1073 147.062 52.2061C147.062 52.3048 147.029 52.3766 146.966 52.4327C146.904 52.4933 146.815 52.5202 146.707 52.5202H146.185Z" fill="#9696A3"/>
<path d="M116.754 51.1357V65.3783H130.15V62.5307H120.276V59.6898H128.364V56.8422H120.276V53.9833H130.15V51.1357H116.754Z" fill="#9696A3"/>
<path d="M137.703 53.701C139.569 53.701 141.172 54.8499 141.853 56.4836H145.249C144.454 53.0704 141.423 50.5303 137.803 50.5303C133.579 50.5303 130.152 53.9927 130.152 58.2653C130.152 62.5378 133.577 65.998 137.803 65.998C141.421 65.998 144.452 63.4578 145.249 60.0447H141.845C141.158 61.6716 139.56 62.8116 137.701 62.8116C135.211 62.8116 133.195 60.7718 133.195 58.2563C133.195 55.7408 135.213 53.701 137.701 53.701H137.703Z" fill="#9696A3"/>
<path d="M38.1154 65.2728V51.1357H31.1485L22 65.3805H25.7841L28.5341 61.1013H34.5953V65.3805H41.8352L50.6463 51.6653V65.3805H54.1686V51.1357H47.2018L38.1176 65.2751L38.1154 65.2728ZM34.5931 58.2514H30.3607L34.5931 51.6653V58.2514Z" fill="#9696A3"/>
<path d="M64.9883 65.3805H68.7726L71.5223 61.1013H77.5837V65.3805H81.1059V51.1357H74.139L64.9905 65.3805H64.9883ZM77.5815 58.2514H73.3491L77.5815 51.6653V58.2514Z" fill="#9696A3"/>
<path d="M95.4135 51.127H91.6273L87.0508 58.2538H90.8348L95.1825 51.486V65.3785H98.7051V51.1337H95.4068L95.4135 51.127Z" fill="#9696A3"/>
<path d="M86.5652 51.1338H83.043V65.3786H86.2589H90.0429L94.6194 58.2539H90.8354L86.5652 64.9006V51.1338Z" fill="#9696A3"/>
<path d="M92.4225 44L87.8438 51.1269H91.6278L96.2065 44H92.4225Z" fill="#9696A3"/>
<path d="M111.72 51.1357H107.936L98.7852 65.3783H102.569L111.38 51.6631V65.3783H114.903V51.1357H111.72Z" fill="#9696A3"/>
<path d="M69.673 51.1357H55.5859V53.9833H60.5708V65.3783H64.0931V53.9833H69.673V51.1357Z" fill="#9696A3"/>
</g>
</g>
<defs>
<clipPath id="clip0_465_14291">
<rect width="126" height="22" fill="white" transform="translate(22 44)"/>
</clipPath>
</defs>
</svg>
