<svg width="170" height="110" viewBox="0 0 170 110" fill="none" xmlns="http://www.w3.org/2000/svg">

<g clip-path="url(#clip0_465_14258)">
<path d="M46.8228 50.6953C45.8537 52.3924 44.8104 54.1163 43.7808 55.7683V50.6953H41.4727V58.9136H44.5357C45.5109 57.3343 46.4723 55.6828 47.379 54.0179V58.9136H49.7003V50.6953H46.8228Z" fill="white"/>
<path d="M57.0041 54.621C58.5494 54.5029 58.8779 53.8672 58.8779 52.6746C58.8779 51.2984 58.4256 50.6953 56.7082 50.6953H51.5781V58.9136H56.7082C58.102 58.9136 59.0159 58.4156 59.0159 56.731C59.0159 55.3879 58.6451 54.6929 57.0041 54.621ZM53.9413 52.6155H55.9802C56.1868 52.6155 56.3374 52.7205 56.3374 53.2055C56.3374 53.717 56.1868 53.7757 55.9802 53.7757H53.9413V52.6155ZM56.0144 56.9939H53.9413V55.5968H55.9668C56.2622 55.5968 56.4611 55.7549 56.4611 56.3185C56.4611 56.8485 56.2752 56.9939 56.0144 56.9939Z" fill="white"/>
<path d="M65.9164 50.6953H62.3251C61.4118 52.8513 59.9625 56.7574 59.3242 58.9136H61.8785C61.9885 58.5138 62.1396 57.9567 62.3251 57.3343H65.6626C65.8823 57.9567 66.1022 58.5271 66.2808 58.9136H68.884C67.9982 56.8034 66.6856 53.1922 65.9164 50.6953ZM62.9154 55.3879C63.2517 54.339 63.5823 53.3365 63.8291 52.6746H64.138C64.3236 53.3496 64.6323 54.3521 64.9828 55.3879H62.9154Z" fill="white"/>
<path d="M76.7532 56.8161V50.6953H74.4045V56.8161H71.6157V50.6953H69.2539V58.9136H75.8675V60.7284H77.9615L78.2501 56.8161H76.7532Z" fill="white"/>
<path d="M92.4059 54.621C93.9514 54.5029 94.2804 53.8672 94.2804 52.6746C94.2804 51.2984 93.8284 50.6953 92.1109 50.6953H86.9805V58.9136H92.1109C93.5047 58.9136 94.418 58.4156 94.418 56.731C94.418 55.3879 94.0469 54.6929 92.4059 54.621ZM89.3431 52.6155H91.3762C91.5887 52.6155 91.7408 52.7205 91.7408 53.2055C91.7408 53.717 91.5887 53.7757 91.3762 53.7757H89.3431V52.6155ZM91.4167 56.9939H89.3431V55.5968H91.3692C91.6648 55.5968 91.8638 55.7549 91.8638 56.3185C91.8638 56.8485 91.6788 56.9939 91.4167 56.9939Z" fill="white"/>
<path d="M101.408 50.6953C100.446 52.3924 99.3954 54.1163 98.3652 55.7683V50.6953H96.0586V58.9136H99.1209C100.096 57.3343 101.065 55.6828 101.964 54.0179V58.9136H104.285V50.6953H101.408Z" fill="white"/>
<path d="M110.995 50.6953V53.9988C110.995 54.444 110.61 54.6662 109.532 54.6662C108.461 54.6662 108.213 54.444 108.213 53.7037V50.6953H105.844V53.7497C105.844 56.1875 107.272 56.7774 108.914 56.7774C109.758 56.7774 110.549 56.672 110.995 56.5085V58.9136H113.35V50.6953H110.995Z" fill="white"/>
<path d="M123.199 56.8161V50.6953H116.95C116.846 52.9106 116.401 54.9158 115.837 56.8161H114.402L114.683 60.7284H116.798V58.9136H122.307V60.7284H124.408L124.697 56.8161H123.199ZM120.851 56.8161H118.343C118.749 55.3879 118.976 54.0113 119.121 52.6746H120.851V56.8161Z" fill="#9696A3"/>
<path d="M130.759 50.6953H125.629V58.9136H127.991V56.4952H130.759C132.304 56.4952 133.094 55.2112 133.094 53.6578C133.094 51.875 132.475 50.6953 130.759 50.6953ZM129.845 54.6662H127.991V52.6155H129.853C130.264 52.6155 130.512 52.8647 130.512 53.6578C130.512 54.4573 130.203 54.6662 129.845 54.6662Z" fill="#9696A3"/>
<path d="M147.451 54.621C148.995 54.5029 149.324 53.8672 149.324 52.6746C149.324 51.2984 148.872 50.6953 147.147 50.6953H142.023V58.9136H147.147C148.548 58.9136 149.462 58.4156 149.462 56.731C149.462 55.3879 149.093 54.6929 147.451 54.621ZM144.388 52.6155H146.42C146.632 52.6155 146.777 52.7205 146.777 53.2055C146.777 53.717 146.632 53.7757 146.42 53.7757H144.388V52.6155ZM146.461 56.9939H144.388V55.5968H146.413C146.708 55.5968 146.907 55.7549 146.907 56.3185C146.907 56.8485 146.722 56.9939 146.461 56.9939Z" fill="#9696A3"/>
<path d="M81.5502 55.6568H83.9824L85.1573 53.717H81.5502V52.6746H85.7873V50.6953H79.1875V58.9136H85.7873V56.9342H81.5502V55.6568Z" fill="white"/>
<path d="M136.593 55.6568H139.025L140.199 53.717H136.593V52.6746H140.83V50.6953H134.23V58.9136H140.83V56.9342H136.593V55.6568Z" fill="#9696A3"/>
<path d="M32.695 48.0068H25.6074L27.8903 51.7671H31.063L33.0094 53.6244V56.3826L31.063 58.2397H26.2256V53.1339H22.2852V62.0002H32.695L36.9498 57.9402V52.0666L32.695 48.0068Z" fill="#9696A3"/>
<path d="M32.6946 48.0068L31.0625 51.7671L33.0089 53.6244L36.9494 52.0666L32.6946 48.0068Z" fill="#9696A3"/>
<path d="M33.0089 56.3828L36.9494 57.9404L32.6946 62.0004L31.0625 58.2399L33.0089 56.3828Z" fill="#484852"/>
<path d="M22.2852 61.9997L26.2256 58.2393H31.063L32.695 61.9997H22.2852Z" fill="#484852"/>
<path d="M26.2353 51.7669H22.2811L20 48H23.9481L26.2353 51.7669Z" fill="white"/>
</g>
<defs>
<clipPath id="clip0_465_14258">
<rect width="130" height="14" fill="white" transform="translate(20 48)"/>
</clipPath>
</defs>
</svg>
