<svg width="170" height="110" viewBox="0 0 170 110" fill="none" xmlns="http://www.w3.org/2000/svg">

<g clip-path="url(#clip0_465_14315)">
<path d="M24.793 54.7953V64.4144L34.4105 54.7953H24.793ZM44.5807 44.6221H24.793V53.2872H35.7292L44.5807 44.6221ZM36.6614 65.3472H45.5139V45.5548L36.6608 54.4092L36.6614 65.3472ZM35.3427 65.3472V55.7281L25.7251 65.3472H35.3427Z" fill="#484852"/>
<path d="M23.4766 54.9842V66.6662H46.8339V43.3027H23.4766V54.9836V54.9842ZM35.3439 65.3473H25.7264L35.3439 55.7271V65.3473ZM45.5141 65.3473H36.6615V54.4087L45.5146 45.5544V65.3467L45.5141 65.3473ZM24.7942 44.6216H44.5819L35.7305 53.2878H24.7942V44.6216ZM24.7942 54.7949H34.4117L24.7942 64.4146V54.7949ZM69.9566 59.4056C69.6989 59.8867 69.3582 60.2653 68.9366 60.5413C68.5161 60.8167 68.0039 61.0016 67.4011 61.0966C66.7989 61.192 66.1029 61.2384 65.3109 61.2384C64.3815 61.2384 63.5728 61.1653 62.8848 61.0196C62.1969 60.8724 61.6211 60.5806 61.1564 60.1415C60.6911 59.7024 60.3477 59.0795 60.1234 58.2706C59.9008 57.4611 59.7892 56.3942 59.7892 55.0687C59.7892 53.692 59.9008 52.5907 60.1234 51.7655C60.3472 50.9391 60.6911 50.3102 61.1564 49.8815C61.6211 49.4506 62.1969 49.1718 62.8848 49.0415C63.5728 48.9133 64.3815 48.8489 65.3109 48.8489C66.1018 48.8489 66.7898 48.892 67.3758 48.9782C67.9602 49.0644 68.4594 49.2313 68.8719 49.4816C69.2854 49.7304 69.6159 50.0833 69.8655 50.5387C70.1157 50.9953 70.2914 51.5931 70.3955 52.3333H74.0076C73.8874 51.094 73.62 50.0571 73.2081 49.2231C72.7951 48.3886 72.2317 47.7122 71.5169 47.1967C70.803 46.6807 69.9345 46.3104 68.9118 46.0867C67.8874 45.8636 66.6884 45.7518 65.3109 45.7518C63.8488 45.7518 62.5538 45.8849 61.4265 46.1522C60.2997 46.4178 59.3541 46.9011 58.588 47.5976C57.8224 48.2942 57.2418 49.2449 56.8466 50.4487C56.4498 51.6536 56.253 53.194 56.253 55.0698C56.253 56.8764 56.4385 58.3742 56.8072 59.5611C57.1771 60.7486 57.7405 61.6944 58.4985 62.3996C59.2549 63.106 60.201 63.6046 61.337 63.8975C62.4719 64.1887 63.797 64.3355 65.3109 64.3355C66.7385 64.3355 67.9726 64.2155 69.0137 63.9738C70.0542 63.7333 70.9314 63.346 71.6457 62.812C72.359 62.2791 72.9186 61.5738 73.3229 60.6956C73.7273 59.8186 73.9898 58.7516 74.1101 57.4955H70.499C70.3965 58.2864 70.2149 58.9229 69.9566 59.4056ZM88.4855 54.94V54.7071C89.4494 54.4835 90.2279 54.0656 90.8215 53.4558C91.414 52.8449 91.7111 52.0229 91.7111 50.9904C91.7111 49.2356 91.2458 47.9871 90.3169 47.2475C89.3885 46.5067 87.8741 46.138 85.7752 46.138H76.4084V63.9476H86.137C88.1846 63.9476 89.7066 63.5478 90.7045 62.7476C91.703 61.9475 92.2011 60.67 92.2011 58.9147C92.2011 57.8315 91.9046 56.9402 91.311 56.2436C90.7169 55.5455 89.775 55.1124 88.4855 54.94ZM79.9181 49.1582H85.2081C86.3262 49.1582 87.1037 49.3 87.5431 49.5847C87.9819 49.8684 88.2013 50.44 88.2013 51.3007C88.2013 52.1789 87.9566 52.7898 87.4654 53.1335C86.9764 53.4771 86.2405 53.6489 85.2604 53.6489H79.9181V49.1582ZM87.9043 60.424C87.3797 60.7589 86.6012 60.9275 85.5693 60.9275H79.917V56.2818H85.517C86.7047 56.2818 87.5301 56.4411 87.9943 56.7602C88.4585 57.0776 88.6903 57.6935 88.6903 58.6055C88.6914 59.4826 88.4294 60.088 87.9043 60.424ZM97.9564 56.4886H108.252V53.4946H97.9564V49.1571H108.433V46.1391H94.4461V63.9482H108.459V60.928H97.9564V56.4886ZM123.581 54.8358V54.6296C124.526 54.388 125.297 53.9669 125.889 53.3647C126.484 52.7626 126.78 51.9455 126.78 50.9135C126.78 49.2444 126.143 47.9658 124.87 47.0789C123.597 46.1936 121.679 45.7496 119.116 45.7496C117.894 45.7496 116.782 45.8669 115.774 46.0987C114.768 46.3306 113.903 46.7135 113.181 47.2475C112.459 47.7804 111.904 48.4775 111.516 49.3382C111.129 50.1984 110.944 51.2571 110.962 52.5127H114.47C114.454 51.7382 114.565 51.1104 114.806 50.6298C115.047 50.1466 115.378 49.7773 115.799 49.5187C116.221 49.2607 116.714 49.0851 117.283 48.9896C117.88 48.8925 118.484 48.8451 119.089 48.8478C120.482 48.8478 121.515 49.0458 122.186 49.4413C122.857 49.8373 123.193 50.4231 123.193 51.1966C123.193 51.472 123.158 51.7431 123.089 52.0104C123.02 52.2776 122.886 52.5176 122.69 52.7331C122.491 52.948 122.212 53.1247 121.851 53.2622C121.489 53.4002 121.008 53.4695 120.405 53.4695H117.851V56.3091H120.509C121.163 56.3091 121.7 56.3604 122.122 56.4635C122.543 56.5671 122.87 56.7133 123.102 56.9026C123.335 57.0918 123.493 57.3335 123.58 57.6253C123.666 57.9176 123.709 58.2624 123.709 58.6584C123.709 59.5016 123.364 60.1431 122.677 60.5816C121.989 61.0202 120.81 61.24 119.14 61.24C118.493 61.2441 117.847 61.2011 117.205 61.1113C116.621 61.0251 116.108 60.8495 115.67 60.5822C115.231 60.3149 114.878 59.9358 114.612 59.4455C114.345 58.9551 114.178 58.3055 114.109 57.4966H110.548C110.617 58.7871 110.853 59.8676 111.257 60.7366C111.661 61.606 112.229 62.3069 112.96 62.8398C113.692 63.3733 114.577 63.7562 115.618 63.9891C116.659 64.2209 117.851 64.3371 119.192 64.3371C121.961 64.3371 124 63.8773 125.308 62.9571C126.615 62.0353 127.269 60.6902 127.269 58.918C127.269 57.8162 126.976 56.9086 126.392 56.1946C125.808 55.4778 124.87 55.0256 123.581 54.8364V54.8358ZM138.832 46.138H135.941L127.89 63.9476H131.735L133 60.9275H141.644L142.883 63.9476H146.805L138.832 46.138ZM134.136 58.2689L137.361 50.578L140.536 58.2689H134.136Z" fill="white"/>
</g>
<defs>
<clipPath id="clip0_465_14315">
<rect width="124" height="24" fill="white" transform="translate(23 43)"/>
</clipPath>
</defs>
</svg>
