<svg width="170" height="110" viewBox="0 0 170 110" fill="none" xmlns="http://www.w3.org/2000/svg">

<g clip-path="url(#clip0_465_14222)">
<path d="M14.707 55.0366C14.707 60.7816 19.371 65.4217 25.1454 65.4217C30.9199 65.4217 35.5838 60.7816 35.5838 55.0366C35.5838 49.2916 30.9199 44.6514 25.1454 44.6514C19.371 44.6514 14.707 49.2916 14.707 55.0366Z" fill="#9696A3"/>
<path d="M21.001 57.0993L25.1468 51.7225V48.7764H21.001V52.9746H16.7812V57.0993H21.001Z" fill="#111114"/>
<path d="M28.5512 55.0369L33.5113 48.7764H28.6992L21 58.7933V61.2239H25.1457V56.6573L28.6992 61.2239H33.5113L28.5512 55.0369Z" fill="#111114"/>
<path d="M41.4305 59.7501C41.3565 59.6764 41.3565 59.5291 41.4305 59.4555L42.8371 57.8351C42.9111 57.7614 42.9852 57.7614 43.1332 57.8351C43.9476 58.498 45.0581 59.0872 46.3906 59.0872C47.7232 59.0872 48.4635 58.498 48.4635 57.6141C48.4635 56.8776 48.0193 56.4356 46.5387 56.2147L45.7984 56.141C43.2813 55.7728 41.8747 54.5943 41.8747 52.3847C41.8747 50.1014 43.5774 48.5547 46.3166 48.5547C47.9453 48.5547 49.4999 49.0703 50.5364 49.8805C50.6104 49.9541 50.6844 50.0278 50.5364 50.1751L49.4259 51.8691C49.3519 51.9428 49.2778 51.9428 49.2038 51.9428C48.2414 51.3535 47.353 50.9853 46.3166 50.9853C45.2061 50.9853 44.6139 51.5745 44.6139 52.311C44.6139 53.0476 45.1321 53.4895 46.5387 53.7105L47.205 53.7841C49.796 54.1524 51.1286 55.3308 51.1286 57.5405C51.1286 59.7501 49.4259 61.4441 46.2425 61.4441C44.3177 61.4441 42.3929 60.6339 41.4305 59.7501Z" fill="#9696A3"/>
<path d="M61.7907 61.2235C61.6426 61.2235 61.5686 61.1498 61.5686 61.0761L59.4217 53.3425L57.2008 61.0761C57.2008 61.1498 57.1267 61.2235 56.9787 61.2235H55.1279C55.0539 61.2235 54.9798 61.1498 54.9058 61.0761L51.6484 48.9969C51.6484 48.9233 51.6484 48.8496 51.7965 48.8496H54.1655C54.3136 48.8496 54.3876 48.9233 54.3876 48.9969L56.1643 56.8042L58.3853 48.9969C58.3853 48.9233 58.4593 48.8496 58.6074 48.8496H60.2361C60.3101 48.8496 60.3841 48.9233 60.4581 48.9969L62.6791 56.8042L64.3818 48.9969C64.3818 48.8496 64.4558 48.8496 64.6039 48.8496H66.9729C67.1209 48.8496 67.121 48.9233 67.121 48.9969L63.9376 61.0761C63.9376 61.1498 63.8636 61.2235 63.7155 61.2235H61.7907Z" fill="#9696A3"/>
<path d="M68.2305 48.9965C68.2305 48.9229 68.3045 48.8492 68.3785 48.8492H70.7475C70.8956 48.7756 70.9696 48.8492 70.9696 48.9965V61.0757C70.9696 61.1494 70.8956 61.2231 70.8216 61.2231H68.4526C68.3785 61.2231 68.3045 61.1494 68.3045 61.0757V48.9965H68.2305Z" fill="#9696A3"/>
<path d="M72.6727 59.7501C72.5987 59.6764 72.5987 59.5291 72.6727 59.4555L74.0793 57.8351C74.1533 57.7614 74.2274 57.7614 74.3754 57.8351C75.1898 58.498 76.3002 59.0872 77.6328 59.0872C78.9654 59.0872 79.7057 58.498 79.7057 57.6141C79.7057 56.8776 79.2615 56.4356 77.7809 56.2147L77.1146 56.141C74.5975 55.7728 73.1909 54.5943 73.1909 52.3847C73.1909 50.1014 74.8936 48.5547 77.6328 48.5547C79.2615 48.5547 80.8161 49.0703 81.8526 49.8805C81.9266 49.9541 82.0006 50.0278 81.8526 50.1751L80.7421 51.8691C80.594 51.9428 80.52 51.9428 80.3719 51.8691C79.4095 51.2799 78.5212 50.9116 77.4847 50.9116C76.3743 50.9116 75.782 51.5008 75.782 52.2374C75.782 52.9739 76.3002 53.4158 77.7068 53.6368L78.3731 53.7105C80.9642 54.0787 82.2968 55.2572 82.2968 57.4668C82.2968 59.6764 80.594 61.3705 77.4107 61.3705C75.4859 61.4441 73.6351 60.6339 72.6727 59.7501Z" fill="#9696A3"/>
<path d="M83.6297 59.7501C83.5557 59.6764 83.5557 59.5291 83.6297 59.4555L85.0363 57.8351C85.1104 57.7614 85.1844 57.7614 85.3325 57.8351C86.1468 58.498 87.2573 59.0872 88.5898 59.0872C89.9224 59.0872 90.6627 58.498 90.6627 57.6141C90.6627 56.8776 90.2185 56.4356 88.7379 56.2147L87.9976 56.141C85.4805 55.7728 84.0739 54.5943 84.0739 52.3847C84.0739 50.1014 85.7766 48.5547 88.5158 48.5547C90.1445 48.5547 91.6991 49.0703 92.7356 49.8805C92.8096 49.9541 92.8836 50.0278 92.7356 50.1751L91.6251 51.8691C91.5511 51.9428 91.477 51.9428 91.403 51.9428C90.4406 51.3535 89.5522 50.9853 88.5158 50.9853C87.4053 50.9853 86.8131 51.5745 86.8131 52.311C86.8131 53.0476 87.3313 53.4895 88.7379 53.7105L89.4042 53.7841C91.9953 54.1524 93.3278 55.3308 93.3278 57.5405C93.3278 59.7501 91.6251 61.4441 88.4418 61.4441C86.517 61.4441 84.5921 60.6339 83.6297 59.7501Z" fill="#9696A3"/>
<path d="M99.5469 48.9969C99.5469 48.9233 99.6209 48.8496 99.6949 48.8496H102.064C102.138 48.8496 102.212 48.9233 102.212 48.9969V54.3736L106.358 48.9969C106.432 48.8496 106.506 48.8496 106.654 48.8496H109.319C109.393 48.8496 109.467 48.9969 109.393 49.0706L105.617 53.7844L109.763 61.0761C109.837 61.2235 109.763 61.2971 109.689 61.2971H106.95C106.802 61.2971 106.728 61.2971 106.654 61.1498L103.841 55.9204L102.212 57.9827V61.1498C102.212 61.2235 102.138 61.2971 102.064 61.2971H99.6949C99.6209 61.2971 99.5469 61.2235 99.5469 61.1498V48.9969Z" fill="#9696A3"/>
<path d="M117.904 61.2235C117.756 61.2235 117.682 61.1498 117.608 61.0761L115.461 56.5096H113.759C113.685 56.5096 113.685 56.5096 113.685 56.5833V61.0025C113.685 61.0761 113.611 61.1498 113.537 61.1498H111.168C111.094 61.1498 111.02 61.0761 111.02 61.0025V48.9969C111.02 48.9233 111.094 48.8496 111.168 48.8496H116.128C118.719 48.8496 120.347 50.47 120.347 52.6796C120.347 54.3 119.533 55.5521 118.127 56.1413L120.57 61.0761C120.644 61.1498 120.57 61.2971 120.421 61.2971H117.904V61.2235ZM117.756 52.6796C117.756 51.7221 117.09 51.1329 116.054 51.1329H113.833C113.759 51.1329 113.759 51.1329 113.759 51.2065V54.079C113.759 54.1527 113.759 54.1527 113.833 54.1527H116.054C117.09 54.2263 117.756 53.6371 117.756 52.6796Z" fill="#9696A3"/>
<path d="M122.421 58.4239C122.125 57.54 122.051 56.8772 122.051 55.0358C122.051 53.1945 122.125 52.4579 122.421 51.6477C123.087 49.6591 124.79 48.6279 127.011 48.6279C129.232 48.6279 130.935 49.6591 131.601 51.6477C131.897 52.5316 131.971 53.1945 131.971 55.0358C131.971 56.8772 131.897 57.6137 131.601 58.4239C130.935 60.4125 129.232 61.4437 127.011 61.4437C124.79 61.4437 123.013 60.4125 122.421 58.4239ZM128.936 57.6874C129.084 57.2454 129.158 56.6562 129.158 55.0358C129.158 53.4154 129.084 52.8262 128.936 52.3843C128.64 51.5004 127.973 50.9849 126.937 50.9849C125.9 50.9849 125.234 51.5004 124.938 52.3843C124.79 52.8262 124.716 53.4154 124.716 55.0358C124.716 56.6562 124.79 57.2454 124.938 57.6874C125.234 58.5712 125.9 59.0868 126.937 59.0868C127.973 59.0868 128.64 58.5712 128.936 57.6874Z" fill="#9696A3"/>
<path d="M133.82 48.9969C133.82 48.9233 133.894 48.8496 133.968 48.8496H136.189C136.337 48.8496 136.411 48.9233 136.485 48.9969L140.927 56.8042H141.001V48.9969C141.001 48.9233 141.075 48.8496 141.149 48.8496H143.222C143.296 48.8496 143.37 48.9233 143.37 48.9969V61.0761C143.37 61.1498 143.296 61.2235 143.222 61.2235H141.001C140.853 61.2235 140.779 61.1498 140.705 61.0761L136.263 53.2688H136.189V61.0761C136.189 61.1498 136.115 61.2235 136.041 61.2235H133.968C133.894 61.2235 133.82 61.1498 133.82 61.0761V48.9969Z" fill="#9696A3"/>
<path d="M145.815 58.4239C145.519 57.54 145.445 56.8772 145.445 55.0358C145.445 53.1945 145.519 52.4579 145.815 51.6477C146.482 49.6591 148.184 48.6279 150.405 48.6279C152.626 48.6279 154.329 49.6591 154.995 51.6477C155.291 52.5316 155.365 53.1945 155.365 55.0358C155.365 56.8772 155.291 57.6137 154.995 58.4239C154.329 60.4125 152.626 61.4437 150.405 61.4437C148.184 61.4437 146.482 60.4125 145.815 58.4239ZM152.33 57.6874C152.478 57.2454 152.552 56.6562 152.552 55.0358C152.552 53.4154 152.478 52.8262 152.33 52.3843C152.034 51.5004 151.368 50.9849 150.331 50.9849C149.295 50.9849 148.629 51.5004 148.333 52.3843C148.184 52.8262 148.11 53.4154 148.11 55.0358C148.11 56.6562 148.184 57.2454 148.333 57.6874C148.629 58.5712 149.295 59.0868 150.331 59.0868C151.442 59.0868 152.108 58.5712 152.33 57.6874Z" fill="#9696A3"/>
</g>
<defs>
<clipPath id="clip0_465_14222">
<rect width="142" height="20.844" fill="white" transform="translate(14 44.5781)"/>
</clipPath>
</defs>
</svg>
