<svg width="170" height="110" viewBox="0 0 170 110" fill="none" xmlns="http://www.w3.org/2000/svg">

<g clip-path="url(#clip0_465_14277)">
<mask id="mask0_465_14277" style="mask-type:luminance" maskUnits="userSpaceOnUse" x="-1040" y="-720" width="1245" height="842">
<path d="M-1039.96 -719.313H204.767V121.697H-1039.96V-719.313Z" fill="white"/>
</mask>
<g mask="url(#mask0_465_14277)">
<path fill-rule="evenodd" clip-rule="evenodd" d="M115.203 44.4063L115.361 42.7051H110.052L109.144 52.5558H114.844L115.012 50.8506H111.341L111.592 48.1294H114.585L114.741 46.4282H111.749L111.936 44.4063H115.203ZM103.986 42.5483C103.366 42.5483 102.864 42.9039 102.571 43.5502L98.7443 52.5558H100.844L103.702 45.3893L105.34 52.5558H107.439L105.227 43.5952C105.082 42.9399 104.616 42.5483 103.986 42.5483ZM70.8946 50.425L70.7148 52.399L70.8629 52.4609C71.4164 52.6897 72.0914 52.8105 72.8154 52.8105C75.1488 52.8105 76.5897 51.6917 76.7705 49.7398C76.9461 47.8457 75.6472 47.1605 74.6035 46.611L74.5014 46.5561C73.7498 46.1585 73.2576 45.8558 73.2688 45.2784C73.2841 44.4573 74.0459 44.1656 74.6944 44.1656C75.3919 44.1656 75.8994 44.2865 76.3988 44.5732L76.7041 44.749L76.8675 42.9179C76.363 42.6172 75.5491 42.4903 74.7689 42.4784C72.7327 42.4454 71.3112 43.4803 71.1417 45.3114C70.9783 47.0895 72.2568 47.7588 73.2852 48.2973C74.2338 48.7937 74.7669 49.1114 74.6985 49.8556C74.6301 50.6059 74.0184 51.0544 73.0656 51.0544C72.3988 51.0544 71.6502 50.8816 70.8946 50.425ZM95.983 42.7051L95.4387 48.8547L92.2812 42.7051H90.2276L89.3157 52.5558H91.1906L91.7635 46.0816L95.0568 52.5558H96.944L97.8528 42.7051H95.983ZM83.5389 42.5353C80.7868 42.5353 78.8455 44.5302 78.5912 47.617C78.4585 49.2603 78.8486 50.6168 79.7227 51.5419C80.461 52.3231 81.471 52.7356 82.7413 52.7356C85.4934 52.7356 87.4337 50.7407 87.6869 47.6539C87.8217 46.0107 87.4306 44.6541 86.5575 43.729C85.8202 42.9479 84.8062 42.5353 83.5389 42.5353ZM80.7929 47.637C80.9675 45.5112 81.953 44.2425 83.4225 44.2425C83.9953 44.2425 84.461 44.4283 84.8072 44.7949C85.3403 45.3583 85.5659 46.3273 85.4607 47.601C85.2871 49.7258 84.3048 50.9944 82.8332 50.9944C82.2583 50.9944 81.7927 50.8106 81.4455 50.443C80.9155 49.8806 80.6888 48.9106 80.7929 47.637Z" fill="white"/>
<path fill-rule="evenodd" clip-rule="evenodd" d="M110.893 61.3828C110.056 60.9413 109.553 60.6716 109.564 60.0862C109.579 59.269 110.339 58.9794 110.983 58.9794C111.676 58.9794 112.184 59.0992 112.68 59.3839L112.983 59.5597L113.144 57.7376C112.644 57.439 111.834 57.3131 111.058 57.2991C109.032 57.2661 107.617 58.2981 107.448 60.1192C107.287 61.8873 108.558 62.5256 109.581 63.0621C110.526 63.5546 111.057 63.8433 110.987 64.5835C110.918 65.3327 110.311 65.7772 109.363 65.7772C108.7 65.7772 107.954 65.6054 107.204 65.1509L107.022 67.1158L107.169 67.1768C107.722 67.4035 108.394 67.5244 109.114 67.5244C111.435 67.5244 112.87 66.4106 113.05 64.4696C113.224 62.5866 111.931 61.9303 110.893 61.3828ZM89.3241 59.0503C89.5498 59.0023 89.7959 58.9724 90.2176 58.9694C91.922 58.9634 93.0116 59.8644 93.03 61.6765C93.0412 62.7344 92.8543 63.6914 92.2763 64.4536C91.733 65.1689 90.7619 65.6274 89.6069 65.6304L88.741 65.6214L89.3241 59.0503ZM86.5342 67.3276L89.3425 67.3296C91.4543 67.3206 92.7216 66.8321 93.7407 65.8342C94.8323 64.7653 95.2786 63.1999 95.2275 61.5726C95.1744 59.9463 94.4831 58.9694 93.6263 58.345C92.7604 57.6557 91.4778 57.396 89.9889 57.401C89.1158 57.404 88.1946 57.5279 87.4308 57.7137L86.5342 67.3276ZM115.184 57.4819L115.028 59.1821H117.427L116.688 67.3326H118.727L119.48 59.1821H121.865L122.021 57.4819H115.184ZM125.87 59.0573C126.049 59.0143 126.261 58.9793 126.6 58.9784C127.418 58.9744 128.195 59.325 128.232 60.2101C128.271 61.1561 127.606 61.7924 126.403 61.7974H125.612L125.87 59.0573ZM128.318 62.5616C129.629 62.3139 130.343 61.1741 130.29 59.9004C130.249 58.9454 129.68 58.2661 129.002 57.8995C128.285 57.4949 127.428 57.389 126.46 57.389C125.464 57.389 124.603 57.4869 123.962 57.6657L123.065 67.3326H125.119L125.473 63.3058L125.991 63.3078C126.821 63.3038 127.291 63.6355 127.646 64.7863C127.998 65.9191 128.084 66.7962 128.17 67.3316L130.265 67.3326C130.15 66.6154 129.953 65.3227 129.635 64.2998C129.391 63.5066 128.972 62.7594 128.318 62.5616ZM82.5281 57.4819L81.9818 63.6305L78.8253 57.4819H76.7737L75.8598 67.3326H77.7336L78.3075 60.8574L81.5998 67.3326H83.489L84.3989 57.4819H82.5281ZM142.059 57.3231C141.439 57.3231 140.937 57.6787 140.645 58.325L136.818 67.3326H138.919L141.777 60.1651L143.415 67.3326H145.515L143.301 58.37C143.156 57.7157 142.692 57.3231 142.059 57.3231ZM132.711 67.3326L133.621 57.4819H135.66L134.751 67.3326H132.711ZM70.7109 67.3326L71.6188 57.4819H73.6611L72.7513 67.3326H70.7109ZM100.739 67.5044C103.688 67.5044 104.662 65.5345 104.838 63.3588L105.377 57.4869H103.337L102.794 63.3208C102.696 64.4656 102.365 65.7732 100.886 65.7732C99.4083 65.7732 99.3011 64.4646 99.4001 63.3198L99.9362 57.4869H97.8939L97.3557 63.3578C97.2056 65.4855 97.7907 67.5044 100.739 67.5044Z" fill="white"/>
<path fill-rule="evenodd" clip-rule="evenodd" d="M31.3641 65.8726C27.1446 63.2073 24.4844 59.3324 24.4844 55.0189C24.4844 48.218 33.7057 42.7058 45.0817 42.7058C46.0018 42.7058 46.6706 42.7168 47.6816 42.8027C48.329 42.8576 49.2297 42.9016 49.5422 43.5289L50.4388 45.4449C48.7559 45.1362 46.9433 44.9444 45.0817 44.9444C35.3906 44.9444 27.5367 49.4557 27.5367 55.0189C27.5367 58.1247 29.2308 61.0007 31.9339 63.1664C28.9184 61.3723 26.8106 58.728 26.3644 55.6223C26.0437 53.3886 27.0139 51.15 28.9173 49.185C27.0761 50.7324 25.9151 52.6134 25.6832 54.7162C25.2206 58.8789 27.4519 62.8817 31.3641 65.8726ZM36.5109 65.6778C33.3442 63.6789 31.3498 60.7729 31.3498 57.5373C31.3498 52.4376 38.2653 48.3019 46.7973 48.3019C47.4876 48.3019 47.99 48.3109 48.7467 48.3759C49.2338 48.4168 49.9098 48.4488 50.1447 48.9203L50.8156 50.3568C49.5545 50.126 48.1932 49.9822 46.7973 49.9822C39.5285 49.9822 33.6393 53.3646 33.6393 57.5373C33.6393 59.8668 34.9107 62.0236 36.9377 63.6479C34.6768 62.3033 33.095 60.3194 32.7611 57.9908C32.5201 56.3146 33.2472 54.6353 34.6738 53.1618C33.2931 54.3226 32.4231 55.7332 32.2474 57.3105C31.9023 60.4322 33.576 63.4351 36.5109 65.6778ZM58.7972 44.1663C63.0178 46.8305 65.678 50.7054 65.678 55.0189C65.678 61.8188 56.4567 67.332 45.0817 67.332C44.1606 67.332 43.4927 67.32 42.4817 67.2351C41.8333 67.1802 40.9316 67.1362 40.6201 66.5079L39.7245 64.5929C41.4075 64.9006 43.2201 65.0924 45.0817 65.0924C54.7717 65.0924 62.6256 60.5831 62.6256 55.0189C62.6256 51.9132 60.9325 49.0372 58.2294 46.8714C61.244 48.6656 63.3517 51.3098 63.799 54.4155C64.1176 56.6492 63.1485 58.8889 61.246 60.8538C63.0872 59.3054 64.2463 57.4234 64.4811 55.3206C64.9417 51.1589 62.7104 47.1551 58.7972 44.1663ZM53.6535 44.3601C56.8182 46.359 58.8125 49.2659 58.8125 52.5005C58.8125 57.6012 51.896 61.7349 43.3651 61.7349C42.6737 61.7349 42.1733 61.7269 41.4146 61.662C40.9285 61.621 40.2535 61.588 40.0197 61.1185L39.3467 59.681C40.6099 59.9118 41.9691 60.0566 43.3651 60.0566C50.6328 60.0566 56.5241 56.6732 56.5241 52.5005C56.5241 50.171 55.2537 48.0142 53.2256 46.3899C55.4865 47.7355 57.0673 49.7174 57.4023 52.047C57.6433 53.7243 56.9162 55.4015 55.4886 56.876C56.8702 55.7142 57.7403 54.3047 57.9139 52.7273C58.259 49.6056 56.5863 46.6027 53.6535 44.3601Z" fill="#9696A3"/>
</g>
</g>
<defs>
<clipPath id="clip0_465_14277">
<rect width="122" height="26" fill="white" transform="translate(24 42)"/>
</clipPath>
</defs>
</svg>
