<svg width="170" height="110" viewBox="0 0 170 110" fill="none" xmlns="http://www.w3.org/2000/svg">

<g clip-path="url(#clip0_465_14323)">
<g clip-path="url(#clip1_465_14323)">
<path fill-rule="evenodd" clip-rule="evenodd" d="M38.793 62.658H42.6578V50.21H38.7937L38.793 62.658ZM44.8158 50.21H48.6641V59.5797H54.5481V62.658H44.8158V50.21ZM55.8253 62.658H59.6931V50.21H55.8253V62.658ZM71.7964 57.2667H71.7186C71.497 57.675 71.2739 58.0757 71.0509 58.4708C70.8271 58.8714 70.6057 59.2733 70.3867 59.6764L68.6777 62.6774L66.9586 59.6583C66.737 59.2486 66.5125 58.8514 66.2873 58.4611C66.0649 58.0715 65.8455 57.675 65.6361 57.2667H65.5569V62.658H61.8475V50.21H65.5569L67.0385 52.8291C67.3026 53.3147 67.571 53.8044 67.848 54.2955C68.1244 54.7825 68.3942 55.2736 68.6583 55.7564H68.777C69.0382 55.2576 69.303 54.7672 69.5721 54.274C69.8398 53.7835 70.1039 53.2966 70.3637 52.8117L71.7956 50.21H75.5662V62.658H71.7956L71.7964 57.2667ZM89.97 62.658H86.121V53.2896H82.5317V50.21H93.5398V53.2896H89.9707L89.97 62.658ZM94.8156 62.658H98.6797V50.21H94.8156V62.658ZM110.788 57.2667H110.711C110.487 57.675 110.267 58.0757 110.043 58.4708C109.82 58.8667 109.597 59.2674 109.376 59.6764L107.672 62.6774L105.951 59.6583C105.73 59.257 105.505 58.8579 105.276 58.4611C105.052 58.0672 104.836 57.669 104.628 57.2667H104.549V62.658H100.841V50.21H104.549L106.031 52.8291C106.292 53.3147 106.563 53.8044 106.839 54.2955C107.113 54.7825 107.384 55.2736 107.649 55.7564H107.767C108.027 55.2591 108.293 54.7649 108.565 54.274C108.828 53.7835 109.097 53.2966 109.358 52.8117L110.788 50.21H114.559V62.658H110.788V57.2667ZM125.574 55.908C125.862 55.986 126.146 56.1154 126.426 56.3004C126.989 56.6634 127.424 57.1843 127.672 57.7933C127.804 58.1051 127.87 58.4388 127.869 58.7755C127.869 60.0138 127.471 60.9696 126.674 61.6444C125.874 62.3206 124.705 62.658 123.16 62.658H116.941V50.21H123.219C124.541 50.21 125.567 50.4743 126.301 51.0058C127.031 51.5331 127.399 52.315 127.399 53.3453C127.399 53.9456 127.22 54.4674 126.859 54.9154C126.499 55.3606 126.07 55.6736 125.575 55.8517V55.9074L125.574 55.908ZM120.804 53.2507V54.8576H122.376C123.094 54.8576 123.455 54.5835 123.455 54.0354C123.455 53.8183 123.381 53.6326 123.238 53.4802C123.094 53.3293 122.851 53.2507 122.514 53.2507H120.804ZM120.804 57.5915V59.6576H122.551C122.932 59.6576 123.247 59.579 123.504 59.4183C123.76 59.2576 123.887 58.9773 123.887 58.5668C123.887 58.3623 123.844 58.1981 123.76 58.0694C123.678 57.9478 123.567 57.8463 123.438 57.7731C123.298 57.7016 123.148 57.6534 122.992 57.6305C122.827 57.6044 122.66 57.5914 122.493 57.5915H120.804ZM129.537 50.21H139.779V53.2889H133.405V54.882H139.779V57.8656H133.405V59.579H139.779V62.6573H129.537V50.21ZM152.806 54.3602C152.806 55.2785 152.606 56.0333 152.21 56.6267C151.815 57.2166 151.253 57.6844 150.591 57.9748L152.829 62.6594H148.864L147.117 58.4701H145.862V62.6594H141.998V50.21H148.117C148.786 50.21 149.408 50.2941 149.983 50.4604C150.561 50.626 151.057 50.8799 151.474 51.2263C151.894 51.5672 152.219 52.0013 152.455 52.5237C152.691 53.0475 152.806 53.659 152.806 54.3602ZM145.841 53.2889V55.3947H147.412C147.817 55.3947 148.146 55.3063 148.399 55.1331C148.657 54.9585 148.787 54.6809 148.787 54.2914C148.787 53.9199 148.649 53.6597 148.372 53.5115C148.089 53.3621 147.772 53.2854 147.451 53.2889H145.841Z" fill="white"/>
<path fill-rule="evenodd" clip-rule="evenodd" d="M17.3633 50.1208V53.6415L23.8898 50.7177L30.4164 53.6415V50.1208L23.8906 47.1963L17.3633 50.1208Z" fill="#9696A3"/>
<path fill-rule="evenodd" clip-rule="evenodd" d="M17.3633 54.6242V58.1442L23.8898 55.2224L30.4164 58.1442V54.6242L23.8898 51.6982L17.3633 54.6242Z" fill="#9696A3"/>
<path fill-rule="evenodd" clip-rule="evenodd" d="M17.3633 59.1253V62.6474L23.8898 59.7256L30.4164 62.6474V59.1253L23.8898 56.2021L17.3633 59.1253Z" fill="#9696A3"/>
</g>
</g>
<defs>
<clipPath id="clip0_465_14323">
<rect width="136" height="16" fill="white" transform="translate(17 47)"/>
</clipPath>
<clipPath id="clip1_465_14323">
<rect width="136" height="16" fill="white" transform="translate(17 47)"/>
</clipPath>
</defs>
</svg>
