<svg width="170" height="110" viewBox="0 0 170 110" fill="none" xmlns="http://www.w3.org/2000/svg">

<g clip-path="url(#clip0_465_14308)">
<path d="M65.2581 75.4141C65.2581 74.4908 65.2581 73.5744 65.2659 72.6568C65.2766 72.609 65.2984 72.5645 65.3295 72.5269C65.3605 72.4893 65.3999 72.4595 65.4444 72.4403C67.1651 71.8727 68.8748 71.267 70.6156 70.7722C71.997 70.3797 73.4173 70.125 74.821 69.8064C74.9168 69.7776 75.0108 69.7432 75.1027 69.7032C75.1027 69.0795 75.1116 68.4423 75.0905 67.8052C75.0905 67.7211 74.9463 67.6043 74.8465 67.5662C73.6284 67.1116 72.4088 66.6628 71.1877 66.2201C69.1838 65.4954 67.1799 64.7734 65.1761 64.054C65.0219 63.9978 64.9632 63.9261 65.0231 63.7399C65.5885 61.9664 66.144 60.1883 66.7017 58.4104C67.279 56.5707 67.8559 54.7305 68.4324 52.8901C68.9498 51.2382 69.465 49.5861 69.978 47.9342C70.8118 45.2621 71.6456 42.5897 72.4794 39.9169C72.9968 38.2657 73.5142 36.614 74.0316 34.962C74.6007 33.1336 75.1714 31.3047 75.7435 29.4755C75.8943 28.9942 76.0373 28.5096 76.1804 28.0385C77.1782 27.9476 77.1782 27.9465 77.4698 28.8608C78.209 31.2165 78.9482 33.5722 79.6873 35.9279C80.221 37.6314 80.7528 39.3359 81.2828 41.0409C81.9687 43.2396 82.6554 45.4382 83.3428 47.6369C83.8699 49.3203 84.3972 51.0029 84.925 52.6848C84.951 52.7421 84.9806 52.7975 85.0137 52.8509C85.1512 52.4471 85.2754 52.1061 85.384 51.7605C85.75 50.5939 86.1136 49.4258 86.475 48.2561C87.274 45.6888 88.0742 43.1214 88.8755 40.5541C89.7507 37.7564 90.6284 34.9594 91.5087 32.1632C91.9189 30.8384 92.3214 29.508 92.7405 28.181C92.7644 28.1376 92.7978 28.1005 92.8381 28.0724C92.8786 28.0444 92.9249 28.0262 92.9734 28.0194C93.2384 27.9992 93.5044 28.0127 93.806 28.0127C94.0876 28.9 94.3737 29.7873 94.652 30.678C95.0512 31.9501 95.4448 33.2256 95.8417 34.4988C96.5069 36.6241 97.1703 38.7492 97.8319 40.8738C98.3915 42.6619 98.9532 44.4496 99.5172 46.237C100.182 48.3616 100.845 50.4866 101.505 52.6119C102.051 54.3581 102.597 56.1044 103.145 57.8506C103.755 59.807 104.354 61.7678 104.972 63.7219C105.035 63.9239 104.993 63.9956 104.82 64.0584C103.268 64.6171 101.716 65.178 100.164 65.7411C98.4894 66.348 96.8163 66.9594 95.1398 67.5583C95.0605 67.5739 94.9903 67.6201 94.944 67.687C94.8976 67.754 94.8788 67.8366 94.8915 67.9173C94.9037 68.5096 94.8915 69.103 94.8915 69.7245C95.4381 69.8457 95.9692 69.9488 96.497 70.0801C97.8119 70.3942 99.1391 70.6667 100.434 71.0482C101.816 71.4542 103.167 71.9636 104.528 72.4403C104.579 72.465 104.624 72.5018 104.659 72.5477C104.694 72.5936 104.717 72.6471 104.727 72.7039C104.743 73.6013 104.736 74.4988 104.736 75.4141C91.5767 70.3243 78.4174 70.3243 65.2581 75.4141ZM76.717 47.1321C76.6756 47.2146 76.6385 47.2992 76.6061 47.3856C76.4073 48.0041 76.211 48.6233 76.0173 49.2432C75.3595 51.3581 74.7028 53.4731 74.0471 55.588C73.322 57.9123 72.5939 60.2366 71.8629 62.5609C71.7243 63.0096 71.7221 63.0006 72.1501 63.1543C73.5271 63.6467 74.9097 64.1291 76.278 64.6474C76.5498 64.7595 76.8542 64.7595 77.1261 64.6474C78.0885 64.2907 79.0609 63.9608 80.0255 63.6108C80.5798 63.4112 81.1209 63.1936 81.6719 62.9826C81.2246 61.5518 80.7778 60.1224 80.3309 58.6931C79.13 54.8511 77.9291 51.0082 76.717 47.1321ZM88.3322 62.9737C88.3891 63.0122 88.4487 63.0464 88.5107 63.0758C89.9376 63.594 91.3624 64.1168 92.7948 64.6182C93.0288 64.7001 93.3204 64.7618 93.5444 64.6934C94.3205 64.4589 95.07 64.1616 95.8306 63.889C96.5402 63.6344 97.2498 63.3821 97.9583 63.1263C98.1734 63.0477 98.2843 62.9524 98.1911 62.6685C97.7953 61.465 97.4316 60.2511 97.0536 59.0419C96.4326 57.0542 95.8103 55.0668 95.1864 53.0798C94.6136 51.2505 94.0419 49.4197 93.4712 47.5875C93.428 47.4507 93.3725 47.3172 93.2938 47.1018L88.3322 62.9737ZM91.7338 69.2556C91.7338 68.7597 91.7438 68.2797 91.7238 67.7973C91.7238 67.7154 91.5986 67.601 91.5076 67.5662C90.9366 67.3486 90.3567 67.1522 89.7824 66.9426C88.3359 66.4138 86.8904 65.8824 85.4461 65.3485C85.3021 65.2891 85.148 65.259 84.9925 65.2602C84.8371 65.2613 84.6834 65.2937 84.5403 65.3552C84.1078 65.5381 83.6666 65.7018 83.2253 65.86C81.6431 66.4332 80.0554 67.0009 78.4765 67.5729C78.3967 67.6021 78.2814 67.6851 78.2792 67.7525C78.2626 68.2528 78.2692 68.7542 78.2692 69.259C82.7418 68.7222 87.2612 68.7222 91.7338 69.259V69.2556Z" fill="#9696A3"/>
<path d="M65.2578 81.9997C65.2578 80.3585 65.2578 78.7656 65.2656 77.176C65.2681 77.1211 65.2835 77.0675 65.3105 77.0197C65.3375 76.972 65.3753 76.9313 65.4208 76.9012C67.1948 76.2798 68.9521 75.6179 70.7428 75.0772C72.244 74.6285 73.7807 74.292 75.313 73.9555C76.2078 73.7592 77.1214 73.6469 78.0294 73.5202C78.9375 73.3934 79.8533 73.2958 80.7658 73.1837C81.0818 73.1478 81.4011 73.1175 81.7182 73.113C83.5 73.085 85.2806 73.039 87.0624 73.0536C88.0072 73.0709 88.9505 73.1373 89.8886 73.2521C91.9498 73.4832 94.012 73.7323 96.0277 74.2527C97.642 74.6689 99.2608 75.0772 100.855 75.564C102.167 75.9645 103.444 76.4749 104.728 76.9337V81.9941C98.4514 79.1324 91.8943 77.6506 85.0079 77.6506C78.1215 77.6506 71.5632 79.1268 65.2578 81.9997ZM102.911 79.2109C102.899 79.0144 102.901 78.8172 102.916 78.6209C102.963 78.2922 102.821 78.1497 102.521 78.0532C101.482 77.7167 100.458 77.3308 99.416 77.0101C96.9823 76.2607 94.5109 75.6729 91.9808 75.3722C90.5028 75.1961 89.0226 75.0245 87.5392 74.9089C86.5412 74.8315 85.529 74.8461 84.5234 74.8372C84.1176 74.8372 83.7117 74.8764 83.3037 74.8988C82.8957 74.9213 82.5121 74.9302 82.1185 74.9673C80.7436 75.0963 79.3643 75.1916 77.9984 75.3812C76.5848 75.5798 75.1634 75.7941 73.7852 76.1485C71.8327 76.6488 69.9046 77.2702 67.9831 77.867C67.0274 78.1643 67.0351 78.1912 67.1028 79.1481C67.1071 79.1661 67.1126 79.1837 67.1194 79.2008C79.0377 74.6666 90.9681 74.6701 102.911 79.2109Z" fill="#9696A3"/>
</g>
<defs>
<clipPath id="clip0_465_14308">
<rect width="40" height="54" fill="white" transform="translate(65 28)"/>
</clipPath>
</defs>
</svg>
