<svg width="170" height="110" viewBox="0 0 170 110" fill="none" xmlns="http://www.w3.org/2000/svg">

<g clip-path="url(#clip0_465_14343)">
<path d="M56.6387 54.6512L83.5249 81.8085L82.2149 83.1311L54 54.6512L82.1858 26.1816L83.4958 27.5138L56.6387 54.6512Z" fill="white"/>
<path d="M87.6315 31.6719L85.0039 34.3343L87.6407 36.9874L90.2683 34.325L87.6315 31.6719Z" fill="white"/>
<path d="M87.6353 45.108L80.9727 38.3804L83.6019 35.7256L87.6353 39.7887L91.6594 35.7256L94.2886 38.3804L87.6353 45.108Z" fill="white"/>
<path d="M87.6337 53.2432L76.9375 42.4524L79.5762 39.7881L87.6337 47.9239L95.6817 39.7881L98.3204 42.4524L87.6337 53.2432Z" fill="white"/>
<path d="M87.6342 61.3793L72.9141 46.516L75.5434 43.8516L87.6342 56.0601L99.7157 43.8516L102.345 46.516L87.6342 61.3793Z" fill="white"/>
<path d="M87.6348 69.5061L68.8906 50.5796L71.5199 47.9248L87.6348 64.1869L103.74 47.9248L106.379 50.5796L87.6348 69.5061Z" fill="white"/>
<path d="M110.401 54.6517L87.6331 77.6414L64.8555 54.6517L67.4942 51.9873L87.6331 72.3222L107.772 51.9873L110.401 54.6517Z" fill="white"/>
<path d="M87.6261 26L86.3162 27.3322L84.9969 28.6644L59.2695 54.6514L84.9969 80.6291L86.3162 81.9613L87.6261 83.2935L116.002 54.6514L87.6261 26ZM87.6355 80.4579L86.9382 79.7537L62.0684 54.6514L66.1019 50.5788L66.7992 49.8842L70.1259 46.5156L70.8233 45.8115L79.5781 36.9715L83.6021 32.9083L87.6355 28.8452L91.6596 32.9083L95.6836 36.9715L104.438 45.8115L108.472 49.8842L109.169 50.5788L113.193 54.6514L88.3235 79.7537L87.6355 80.4579Z" fill="white"/>
</g>
<defs>
<clipPath id="clip0_465_14343">
<rect width="62" height="58" fill="white" transform="translate(54 26)"/>
</clipPath>
</defs>
</svg>
