<svg width="170" height="110" viewBox="0 0 170 110" fill="none" xmlns="http://www.w3.org/2000/svg">

<path fill-rule="evenodd" clip-rule="evenodd" d="M127.311 54C127.924 53.9874 128.535 54.0935 129.106 54.3116C129.678 54.5296 130.2 54.8553 130.643 55.2705C131.085 55.6858 131.438 56.1825 131.684 56.7315C131.929 57.2806 132.061 57.8718 132.072 58.4707C132.071 59.3464 131.806 60.2027 131.311 60.9327C130.815 61.6626 130.111 62.2348 129.285 62.5772C128.46 62.9196 127.548 63.017 126.666 62.8584C125.784 62.6998 124.969 62.2916 124.322 61.6846C123.676 61.0776 123.227 60.2986 123.03 59.4444C122.834 58.5899 122.898 57.6977 123.217 56.8789C123.535 56.0603 124.092 55.3507 124.82 54.8389C125.548 54.3272 126.414 54.0354 127.311 54ZM79.0869 54.0518C80.3549 54.0064 81.6 54.3914 82.6104 55.1407L81.4785 56.7129C80.7626 56.2062 79.9081 55.9193 79.0244 55.8887C78.5783 55.8887 78.0576 56.0565 78.0576 56.5284V56.5528C78.0576 56.9736 78.3767 57.1636 79.2441 57.3799L79.6514 57.4737C81.5902 57.8875 82.8809 58.4931 82.8809 60.0996V60.1241C82.8809 61.8183 81.5442 62.871 79.3916 62.8711C77.9247 62.9046 76.4944 62.4196 75.3652 61.5049L76.626 60.0264C77.4316 60.6705 78.4383 61.0265 79.4795 61.0362C80.1738 61.0362 80.5731 60.7903 80.5732 60.3604V60.335C80.5731 59.9083 80.2083 59.696 79.0176 59.4248C77.2292 59.024 75.748 58.5475 75.748 56.7744V56.7491C75.7483 55.1364 77.0901 54.0519 79.0869 54.0518ZM148.761 59.1084C148.761 60.2783 149.428 60.9766 150.552 60.9766C151.676 60.9766 152.342 60.2782 152.342 59.1084V54.3389H154.459V59.2373C154.459 60.9285 153.237 62.7491 150.554 62.7491C150.002 62.7749 149.451 62.6861 148.937 62.4893C148.422 62.2925 147.957 61.9915 147.57 61.6065C146.973 60.9556 146.644 60.1114 146.646 59.2373V54.3389H148.761V59.1084ZM73.0371 62.5918H70.7539L69.7148 60.5254H65.5479L64.5088 62.5918H62.2256L66.4795 54.3389H68.7822L73.0371 62.5918ZM95.4004 56.3965H91.5283V62.5918H89.4209V56.3965H85.5488V54.3389H95.4004V56.3965ZM107.434 62.5918H105.15L104.111 60.5254H99.9443L98.9053 62.5918H96.6221L100.876 54.3389H103.179L107.434 62.5918ZM119.771 54.3545H119.778V62.5918H117.641V58.2198L116.201 60.8291H116.013L116.021 60.8448H113.883L112.441 58.2315V62.5918H110.304V54.3545H112.604L115.004 58.9141L117.643 54.3389H119.78L119.771 54.3545ZM141.266 59.7237V54.3389H143.405V62.5918H140.938L136.752 57.1328V62.5918H134.61V54.3389H137.243L141.266 59.7237ZM54.0859 58.1407L57.3896 54.3389H59.8701L57.0059 57.7295L60.0186 62.5821H57.7158L55.6787 59.3008L54.0859 61.1875V62.583H51.9453V54.3389H54.0859V58.1407ZM127.311 55.9444C125.751 55.9445 124.811 56.8884 124.811 58.4707C124.811 60.0533 125.752 60.9862 127.311 60.9864C128.869 60.9864 129.811 60.0539 129.811 58.4707C129.81 56.8877 128.869 55.9444 127.311 55.9444ZM66.585 58.4649H68.6768L67.6299 56.3848L66.585 58.4649ZM100.981 58.4649H103.073L102.026 56.3848L100.981 58.4649Z" fill="#9696A3"/>
<path d="M28.0108 68.2528C29.4938 68.4821 31.0034 68.4947 32.4902 68.2902V63.0069C30.9593 62.9214 29.4497 62.6149 28.0108 62.0974V68.2528ZM34.6074 62.995V67.8449C37.0335 67.1534 39.2413 65.8747 41.0258 64.1275C42.6885 62.5079 43.9313 60.5243 44.6508 58.3415C42.0296 61.0813 38.439 62.745 34.6074 62.995ZM15.3008 53.6787V53.7676C15.3103 56.8985 16.3426 59.9447 18.2476 62.4633C20.1525 64.9819 22.8309 66.8415 25.893 67.7717V61.1797C25.5669 61.0099 25.2447 60.832 24.9313 60.6406C19.7347 57.4699 16.558 52.0114 17.793 45.6065C16.1828 48.0066 15.3174 50.8097 15.3008 53.6787ZM20.1969 42.8719C19.1991 45.765 19.2175 48.9001 20.2491 51.7819C21.2806 54.6636 23.2666 57.1275 25.893 58.784V53.7231H28.0108V59.8775C29.4311 60.4769 30.9462 60.8342 32.4902 60.934V56.2587H34.6074V60.9231C36.7937 60.7552 38.909 60.0886 40.7832 58.977C42.6575 57.8654 44.2383 56.3399 45.3986 54.5231L45.4169 54.4922C45.4921 53.0904 45.3623 51.6853 45.0313 50.3192C42.9825 52.2717 40.3217 53.4964 37.4752 53.7972C34.6287 54.0979 31.7611 53.4572 29.3319 51.9778C27.3902 50.7934 25.8101 49.1216 24.7566 47.137C23.7032 45.1525 23.2152 42.9281 23.3436 40.6964C22.2034 41.2847 21.1457 42.0139 20.1963 42.8659M32.4991 40.0874C32.6909 40.8785 33.0849 41.6092 33.6443 42.2115C34.2036 42.8137 34.9102 43.2677 35.698 43.5312C36.4858 43.7947 37.3291 43.8591 38.1492 43.7183C38.9694 43.5774 39.7396 43.2361 40.388 42.726C38.1444 40.7739 35.3515 39.5253 32.3719 39.1425C32.3817 39.463 32.4245 39.7817 32.4997 40.0939M25.5708 39.7771C25.2071 42.0267 25.6091 44.3307 26.7151 46.3359C27.8211 48.3411 29.5702 49.9369 31.6942 50.8787C33.8183 51.8205 36.2 52.0563 38.4745 51.5499C40.7489 51.0436 42.7905 49.8231 44.2863 48.0754C43.6894 46.6748 42.873 45.3733 41.8663 44.2175C40.8467 45.0757 39.596 45.6298 38.263 45.8137C36.93 45.9977 35.571 45.8039 34.3476 45.2553C33.1243 44.7067 32.0882 43.8265 31.3626 42.7194C30.6371 41.6123 30.2527 40.325 30.2552 39.0107C28.6613 39.0225 27.0794 39.2805 25.568 39.7749" fill="#9696A3"/>
</svg>
