<svg width="358" height="110" viewBox="0 0 358 110" fill="none" xmlns="http://www.w3.org/2000/svg">

<g clip-path="url(#clip0_465_14356)">
<path d="M59.4713 42.3447H50.3828V67.1612H59.4713V42.3447Z" fill="white"/>
<path d="M59.4688 67.1617H69.0117V53.1045L59.4688 67.1617Z" fill="white"/>
<path d="M84.2132 53.9285L79.8341 60.4006H74.7115C74.7528 60.3181 79.2558 53.6812 81.6518 50.1359L76.3227 42.3447L70.5391 50.878V67.1612H76.4053H76.7771H93.1778L84.4197 54.2583L84.2132 53.9285Z" fill="#9696A3"/>
<path d="M108.422 42.3447H87.9727V52.4857H93.1779V67.1612L103.217 52.4857H108.422V42.3447Z" fill="white"/>
<path d="M148 42.3447H127.551V52.4857H132.756V67.1612L142.795 52.4857H148V42.3447Z" fill="white"/>
<path d="M124.039 54.2583L123.832 53.9697L119.495 60.3593H114.372C114.413 60.2769 118.875 53.7224 121.271 50.1359L121.188 50.0123L115.281 42.3447L109.497 50.878L98.4258 67.1612H110.158H111.728H116.024H116.396H132.797L124.039 54.2583Z" fill="white"/>
<path d="M67.2755 60.4414H52.5273V67.1608H67.2755V60.4414Z" fill="white"/>
<path d="M34.4348 67.12C32.741 67.12 31.1298 66.7902 29.6013 66.1306C28.1141 65.5123 26.7921 64.6054 25.6354 63.4923C24.4787 62.3381 23.6111 61.0189 22.9915 59.5349C22.3305 58.0508 22 56.4019 22 54.753C22 53.104 22.3305 51.4551 22.9915 49.9298C23.6111 48.4458 24.52 47.1266 25.6354 45.9724C26.7508 44.8181 28.1141 43.9524 29.6013 43.3341C31.1298 42.6745 32.741 42.3447 34.4348 42.3447C36.1285 42.3447 37.7397 42.6745 39.2682 43.3341C40.7554 43.9524 42.0774 44.8594 43.2341 45.9724C44.3908 47.1266 45.2584 48.4458 45.878 49.9298C46.539 51.4551 46.8695 53.0628 46.8695 54.753C46.8695 56.4431 46.539 58.0508 45.878 59.5761C45.2584 61.0601 44.3495 62.3793 43.2341 63.5336C42.0774 64.6878 40.7554 65.5535 39.2682 66.1718C37.7397 66.7902 36.0872 67.12 34.4348 67.12ZM34.4348 43.0867C27.9902 43.0867 22.7436 48.3221 22.7436 54.753C22.7436 61.1838 27.9902 66.4192 34.4348 66.4192C40.8793 66.4192 46.1259 61.1838 46.1259 54.753C46.1259 48.3221 40.838 43.0867 34.4348 43.0867Z" fill="#9696A3"/>
<path d="M34.4332 59.5352H34.3919H25.7578V60.3596H34.3919H34.4332H43.026V59.5352H34.4332Z" fill="#9696A3"/>
<path d="M34.4333 57.4736H34.392H26.832V58.3393H34.392H34.4333H41.952V57.4736H34.4333Z" fill="#9696A3"/>
<path d="M34.4346 55.4541H34.3933H27.7422V56.2786H34.3933H34.4346H41.0858V55.4541H34.4346Z" fill="#9696A3"/>
<path d="M34.4364 53.3926H34.3951H28.8594V54.217H34.3951H34.4364H39.9722V53.3926H34.4364Z" fill="white"/>
<path d="M34.4354 51.373H34.394H30.0977V52.1975H34.394H34.4354H38.6904V51.373H34.4354Z" fill="white"/>
<path d="M34.4361 49.3115H34.3948H31.0898V50.136H34.3948H34.4361H37.741V49.3115H34.4361Z" fill="white"/>
<path d="M34.4357 47.292H34.3944H31.957V48.1165H34.3944H34.4357H36.8318V47.292H34.4357Z" fill="white"/>
<path d="M34.4352 45.2305H34.3939H33.1133V46.0549H34.3939H34.4352H35.6746V45.2305H34.4352Z" fill="white"/>
<path d="M33.8831 64.1299L34.668 64.1299L34.668 61.6977L33.8831 61.6977L33.8831 64.1299Z" fill="#9696A3"/>
</g>

<g clip-path="url(#clip1_465_14356)">
<path d="M324.185 48.6051H329.012V60.8577H324.185V48.6051ZM331.32 60.8577V48.5663H333.083C335.088 48.5663 336.089 49.6135 336.087 51.708V60.8577H331.32ZM329.808 47.7817H323.386V61.6034H329.808V47.7782V47.7817ZM337.004 51.8105C337.004 49.1246 335.636 47.7817 332.901 47.7817H330.507V61.6034H337.004V51.8105ZM311.963 60.8365C310.131 60.8365 309.216 59.8517 309.216 57.882V56.4331C309.173 55.7291 309.4 55.035 309.851 54.4893C310.079 54.2504 310.356 54.0634 310.664 53.9414C310.972 53.8193 311.303 53.7651 311.635 53.7825H314.089V60.8365H311.949H311.963ZM309.319 51.2521C309.32 50.8646 309.381 50.4795 309.501 50.1106C309.851 49.0551 310.802 48.5262 312.355 48.5239H314.089V51.2486H309.309L309.319 51.2521ZM316.636 48.6228H321.463V60.8365H316.64V48.6263L316.636 48.6228ZM314.895 52.998H311.635C311.185 52.969 310.734 53.0418 310.317 53.2107C309.9 53.3797 309.527 53.6405 309.226 53.9734C308.648 54.7022 308.354 55.6131 308.399 56.5391V57.8679C308.399 60.3676 309.617 61.6175 312.052 61.6175H314.906V53.0015L314.895 52.998ZM314.895 47.7958H312.53C311.022 47.7958 309.952 48.1492 309.319 48.8561C308.687 49.5629 308.375 50.6078 308.385 51.9908H314.878V47.7994L314.895 47.7958ZM322.28 47.7958H315.823V61.6246H322.28V47.7994V47.7958ZM294.171 48.6794H298.977V67.1165H294.175V48.6794H294.171ZM303.518 60.8542H301.521V48.6794H303.661C305.414 48.6794 306.29 49.6418 306.29 51.5667V57.8396C306.29 59.8493 305.36 60.8553 303.501 60.8577M299.815 47.7994H293.344V68H299.815V47.7994ZM307.129 51.6727C307.129 49.0811 305.94 47.7852 303.561 47.7852H300.618V61.6034H303.351C305.869 61.6034 307.129 60.2687 307.129 57.5993V51.6727ZM282.32 60.8612C281.231 60.8612 280.453 60.6256 279.987 60.1544C279.739 59.8689 279.551 59.5377 279.434 59.1798C279.316 58.8219 279.271 58.4445 279.302 58.0693H284.072V60.8542H282.334L282.32 60.8612ZM290.108 60.5997C289.687 60.7717 288.747 60.8589 287.29 60.8612H286.501V57.7159C286.501 57.1257 286.169 56.7335 285.513 56.5426L281.178 55.3516C280.622 55.2322 280.108 54.9674 279.691 54.5847C279.419 54.2808 279.287 53.7755 279.287 53.0651V51.8317C279.287 50.3451 279.713 49.3767 280.565 48.9267C281.086 48.6511 282.024 48.5121 283.379 48.5097H283.9V51.6904C283.884 51.8668 283.908 52.0445 283.969 52.2108C284.031 52.377 284.129 52.5276 284.257 52.6516C284.563 52.8622 284.911 53.0045 285.277 53.0686L289.394 54.097C290.752 54.4269 291.431 55.2315 291.431 56.5108V57.9244C291.431 59.338 290.991 60.2286 290.111 60.5962M286.587 51.3122V48.5097H288.342C289.46 48.5097 290.254 48.7524 290.725 49.2377C291.232 49.8094 291.488 50.5568 291.439 51.3158H286.597L286.587 51.3122ZM284.724 57.3413H278.549C278.549 58.7973 278.844 59.8575 279.434 60.522C280.076 61.2429 281.102 61.6034 282.513 61.6034H284.746V57.3413H284.724ZM292.188 56.1963C292.188 54.7402 291.416 53.8131 289.872 53.415L286.102 52.4502C285.188 52.2146 284.732 51.8859 284.732 51.4642V47.7994H283.165C281.634 47.7994 280.591 47.9466 280.037 48.2411C279.045 48.7783 278.549 49.8538 278.549 51.4677V53.21C278.513 53.8619 278.688 54.5081 279.048 55.0548C279.459 55.554 280.033 55.8943 280.672 56.016L284.714 57.0586L285.342 57.2388L285.52 57.313C285.625 57.4088 285.705 57.5281 285.754 57.6609C285.803 57.7936 285.82 57.9361 285.802 58.0764V61.6034H287.7C289.208 61.6034 290.226 61.4561 290.754 61.1616C291.719 60.6244 292.202 59.5489 292.202 57.935V56.1963H292.188ZM291.367 48.8808C290.732 48.174 289.662 47.8206 288.156 47.8206H285.795V52.0614H292.323C292.323 50.6478 292.005 49.5876 291.367 48.8808ZM270.269 47.8206H267.358C264.996 47.8206 263.815 49.1164 263.815 51.708V57.5993C263.815 60.2687 265.066 61.6034 267.568 61.6034H270.272V47.7994L270.269 47.8206ZM277.382 51.708C277.382 49.1164 276.202 47.8206 273.84 47.8206H270.929V61.6034H273.629C276.134 61.6034 277.385 60.2687 277.382 57.5993V51.6727V51.708ZM255.531 47.8206H249.109V61.6034H255.531V47.7782V47.8206ZM262.723 51.8494C262.723 49.1635 261.359 47.8206 258.631 47.8206H256.248V61.6034H262.723V51.8105V51.8494ZM240.872 47.7994H237.961C235.599 47.7994 234.419 49.0952 234.422 51.6868V57.5993C234.419 60.2687 235.668 61.6034 238.168 61.6034H240.872V47.7994ZM247.986 51.6868C247.986 49.0952 246.805 47.7994 244.443 47.7994H241.532V61.6034H244.233C246.735 61.6034 247.986 60.2687 247.986 57.5993V51.6727V51.6868ZM233.248 50.2025C233.119 49.7188 232.886 49.2681 232.567 48.8808C231.917 48.1528 230.847 47.7888 229.356 47.7888H227.023V54.712H233.444C233.444 52.1486 233.374 50.6419 233.234 50.1919M226.288 47.7994H219.83V61.6246H226.288V47.7994ZM211.475 42H205V61.6246H211.475V42ZM218.785 56.4896C218.8 56.0812 218.658 55.6824 218.389 55.3728L217.126 54.3833C217.599 54.0924 218.04 53.7536 218.443 53.3726C218.684 53.0504 218.81 52.6571 218.799 52.2558V47.7994H212.331V61.6246H218.785V56.5037V56.4896Z" fill="#9696A3"/>
</g>
<defs>
<clipPath id="clip0_465_14356">
<rect width="126" height="26" fill="white" transform="translate(22 42)"/>
</clipPath>
<clipPath id="clip1_465_14356">
<rect width="132" height="26" fill="white" transform="translate(205 42)"/>
</clipPath>
</defs>
</svg>
