<svg width="170" height="110" viewBox="0 0 170 110" fill="none" xmlns="http://www.w3.org/2000/svg">

<g clip-path="url(#clip0_465_14319)">
<path fill-rule="evenodd" clip-rule="evenodd" d="M123.86 50.7966V59.2153H127.006V50.1488H128.02C129.275 50.1488 129.707 50.3529 130.035 51.0973C130.252 51.5886 130.274 51.9858 130.277 55.4276L130.279 59.2165H133.442L133.402 54.8446C133.365 50.5693 133.357 50.4593 133.071 49.8604C132.875 49.4788 132.612 49.1381 132.295 48.8557C131.424 48.1468 131.015 48.038 128.926 47.9757L127.007 47.9158V42.3779H123.86V50.7966ZM82.9169 47.9513C80.6712 48.533 79.4263 50.6585 79.4299 53.8998C79.4334 56.2526 79.9759 57.7523 81.1154 58.5589C81.9303 59.1358 82.4491 59.2336 84.4591 59.1908L86.2796 59.1505L86.6302 58.18C86.8221 57.6447 87.0116 57.1057 87.0519 56.9823C87.117 56.7733 86.9879 56.7549 85.4742 56.7549C84.3596 56.7549 83.6916 56.6975 83.4109 56.5765C82.9608 56.3834 82.5758 55.7234 82.5758 55.1489V54.8116H89.12V53.5099C89.12 51.7377 88.8523 50.5986 88.1961 49.5927C87.7578 48.9205 87.5352 48.7176 86.8257 48.3473C86.051 47.9427 85.8698 47.9024 84.6865 47.8669C83.9758 47.8462 83.1787 47.884 82.9169 47.9525V47.9513ZM105.546 48.0808C104.62 48.3839 103.585 49.2774 103.161 50.1366C102.557 51.3649 102.437 52.0812 102.483 54.2042C102.522 56.0412 102.549 56.2233 102.879 56.9493C103.293 57.8623 103.7 58.3328 104.477 58.807C105.019 59.137 105.133 59.1529 107.136 59.1933L109.229 59.2373L109.622 58.1189C109.837 57.5029 110.015 56.9493 110.015 56.8869C110.015 56.8258 109.194 56.7549 108.191 56.7317C106.416 56.6914 106.361 56.6816 106.039 56.3492C105.81 56.1145 105.687 55.8236 105.642 55.4105L105.577 54.8116H112.154V53.7055C112.154 49.7492 110.553 47.8022 107.317 47.8254C106.682 47.8303 106.019 47.9256 105.546 48.0808ZM71.2914 48.082C70.1354 48.3179 69.1475 49.1124 68.7803 50.0999C68.637 50.4862 68.5896 50.9286 68.624 51.5568C68.6678 52.3488 68.733 52.5468 69.1558 53.1799C69.8736 54.253 70.5748 54.5672 72.4131 54.6405C74.0844 54.7077 74.313 54.7468 74.5736 55.0157C74.8673 55.3176 74.8282 56.1438 74.5072 56.4433C74.2751 56.6596 73.9754 56.6975 72.0956 56.7549L69.9494 56.8197L69.5289 57.9845C69.2979 58.6262 69.1084 59.17 69.1084 59.1908C69.1084 59.214 70.5085 59.214 72.2236 59.1908C75.1847 59.1529 75.3695 59.1358 75.9973 58.8437C76.7198 58.5076 77.466 57.7486 77.742 57.0678C77.8391 56.8295 77.9185 56.2612 77.9185 55.804C77.9185 54.3447 77.3843 53.2948 76.3135 52.6495C75.7734 52.3232 75.5839 52.2877 74.0204 52.2217C73.0776 52.1814 72.1963 52.0799 72.0483 51.9944C71.5638 51.7157 71.4762 51.0142 71.8647 50.5204C72.0945 50.227 72.194 50.2112 74.0808 50.1488L76.0565 50.084L76.4213 49.0562C76.6215 48.4903 76.785 48.0087 76.785 47.9867C76.785 47.8975 71.7735 47.9843 71.2914 48.082ZM94.0628 48.0845C93.4332 48.2132 92.8448 48.5026 92.3514 48.9261C91.8579 49.3497 91.4751 49.894 91.2378 50.5094C90.9713 51.1914 90.9476 51.4456 90.9464 53.7116C90.9464 56.0925 90.9559 56.1952 91.2733 56.8894C91.7057 57.839 92.2718 58.4832 92.9967 58.851C93.5155 59.1138 93.8306 59.159 95.5398 59.2153L97.4906 59.28L97.5332 59.6663C97.5937 60.2126 97.3378 60.9997 97.0476 61.1598C96.9114 61.2344 96.3464 61.3309 95.7921 61.3762C95.2377 61.4202 94.7853 61.4654 94.7853 61.4764C94.7853 61.4886 94.6135 61.9799 94.4039 62.569L94.0249 63.6409L96.1356 63.5969C98.0058 63.5566 98.3031 63.5199 98.7497 63.2743C99.6913 62.7524 100.337 61.7746 100.532 60.5695C100.59 60.2163 100.622 57.2328 100.603 53.9377L100.57 47.9476L97.583 47.9623C95.9401 47.9696 94.3565 48.0246 94.0628 48.0845ZM114.305 48.9926C114.092 49.5695 113.917 50.0657 113.917 50.095C113.917 50.1256 114.908 50.1488 116.12 50.1488C117.33 50.1488 118.321 50.1928 118.318 50.2466C118.316 50.3004 117.24 51.8514 115.926 53.6957L113.539 57.047V59.2153H121.057L121.451 58.0798C121.669 57.4553 121.847 56.9016 121.847 56.849C121.847 56.7977 120.827 56.7549 119.581 56.7549C118.335 56.7549 117.315 56.7256 117.315 56.6889C117.315 56.6535 118.366 55.1709 119.648 53.3938L121.982 50.1635L121.946 49.0879L121.91 48.0124L118.303 47.9782L114.695 47.9439L114.305 48.9926ZM137.916 48.8924C137.732 49.4277 137.58 49.93 137.58 50.0083C137.58 50.1048 138.221 50.1488 139.594 50.1488C141.44 50.1488 141.629 50.1708 141.86 50.4079C142.13 50.6866 142.186 51.1877 141.99 51.5654C141.824 51.8832 141.433 52.0188 139.55 52.4136C137.594 52.8243 136.695 53.1555 136.115 53.6798C134.768 54.8959 134.812 57.3868 136.198 58.3744C137.216 59.1028 137.465 59.1407 141.451 59.1884L145.132 59.2336L145.131 54.7236C145.131 52.075 145.078 50.018 145.003 49.7406C144.847 49.1613 144.069 48.4084 143.41 48.2006C143.146 48.1175 141.877 48.0197 140.591 47.983L138.253 47.917L137.916 48.8924ZM85.4825 50.4434C86.0356 50.8223 86.3507 51.4823 86.3507 52.2535V52.8695H82.577V52.2889C82.577 51.426 82.8826 50.7612 83.431 50.4336C84.0682 50.0547 84.9234 50.0584 85.4837 50.4434H85.4825ZM97.5534 53.4525V56.7549H96.3642C95.7092 56.7549 95.0305 56.6877 94.8552 56.6058C94.6775 56.5227 94.4098 56.1903 94.2511 55.8603C93.9941 55.3225 93.9668 55.0817 93.9704 53.3877C93.9739 51.7035 94.0023 51.4529 94.2523 50.9653C94.4063 50.667 94.6313 50.3627 94.7521 50.2894C94.8741 50.216 95.554 50.1549 96.2635 50.1537L97.5546 50.1488L97.5534 53.4525ZM108.375 50.3762C108.937 50.6695 109.258 51.2537 109.348 52.152L109.421 52.8695H105.448L105.52 52.152C105.65 50.8602 106.329 50.15 107.434 50.15C107.711 50.15 108.134 50.2515 108.375 50.3762ZM141.985 55.3298V56.7549H140.343C138.768 56.7549 138.689 56.7427 138.393 56.4372C138.008 56.0399 137.997 55.5865 138.367 55.2357C138.584 55.0279 141.375 53.9854 141.89 53.9182C141.942 53.9108 141.985 54.5464 141.985 55.3298ZM121.82 62.0765C121.154 62.1748 120.524 62.4513 119.994 62.8784C119.464 63.3055 119.051 63.8684 118.797 64.5112C118.548 65.143 118.511 65.4682 118.511 66.9862C118.511 68.6276 118.531 68.7792 118.852 69.4477C119.35 70.4866 119.838 71.0256 120.668 71.4595C121.347 71.8127 121.512 71.8433 122.728 71.8433C123.943 71.8433 124.108 71.8127 124.787 71.4595C125.622 71.0232 126.112 70.478 126.593 69.4477C126.874 68.8452 126.934 68.5115 126.981 67.2893C127.029 66.0719 126.996 65.6992 126.769 64.934C126.138 62.7952 124.264 61.7135 121.82 62.0765ZM105.345 62.1963C104.236 62.3894 103.385 63.0934 102.854 64.2569C102.545 64.9377 102.526 65.0929 102.526 66.9862C102.526 68.9246 102.538 69.0199 102.879 69.7337C103.291 70.5978 104.128 71.4106 104.83 71.6269C105.111 71.7125 106.121 71.7785 107.18 71.7785H109.036L108.988 72.667C108.949 73.3552 108.864 73.6717 108.607 74.0726C108.139 74.7998 107.556 75.0443 106.117 75.1152C104.869 75.1763 104.602 75.2997 104.602 75.8179C104.602 76.0306 104.736 76.0526 106.019 76.0514C107.243 76.0514 107.518 76.0086 108.064 75.7446C108.82 75.3767 109.282 74.8927 109.628 74.1105C109.872 73.5519 109.884 73.2818 109.886 67.7965L109.888 62.0643L107.907 62.0802C106.816 62.0887 105.663 62.1413 105.345 62.1963ZM114.305 62.2048C113.221 62.4248 112.292 63.3207 112.033 64.3963C111.943 64.7703 111.907 66.1868 111.929 68.3465L111.965 71.7137L112.439 71.754L112.91 71.7944V68.1473C112.91 64.0773 112.923 64.0039 113.791 63.449C114.16 63.2132 114.463 63.1594 115.659 63.119L117.088 63.0726L117.265 62.6375C117.361 62.3979 117.441 62.1718 117.441 62.1339C117.441 62.0239 114.918 62.0814 114.305 62.2048ZM128.727 62.151C128.68 62.1987 128.643 63.8487 128.643 65.8177C128.643 69.378 128.644 69.3988 128.959 70.0478C129.292 70.7372 130.009 71.3629 130.771 71.6294C131.035 71.721 132.105 71.7785 133.571 71.7785H135.944V62.0496L135.472 62.0899L135 62.1303L134.966 66.4362L134.933 70.742H133.044C130.911 70.742 130.433 70.6015 129.882 69.807C129.593 69.3903 129.587 69.3182 129.551 65.7248L129.511 62.0655H129.162C128.97 62.0655 128.774 62.1034 128.727 62.151ZM137.958 68.8488V75.6639H138.839V71.7785H140.64C142.321 71.7785 142.483 71.7565 143.09 71.4448C143.858 71.0513 144.297 70.5538 144.74 69.5773C145.037 68.9222 145.063 68.7217 145.065 67.1157C145.065 64.989 144.868 64.1946 144.127 63.3268C143.243 62.294 142.785 62.1498 140.194 62.0875L137.958 62.0325V68.8488ZM124.444 63.372C125.619 63.9709 126.221 65.4352 126.092 67.3822C125.977 69.1153 125.204 70.3509 124.004 70.72C123.378 70.9132 122.077 70.9132 121.451 70.72C120.749 70.5037 120.039 69.8205 119.697 69.0309C119.443 68.4467 119.398 68.1326 119.395 66.9202C119.393 65.627 119.423 65.429 119.735 64.7764C119.924 64.3804 120.221 63.9208 120.392 63.7546C121.236 62.9382 123.228 62.7512 124.444 63.372ZM109.008 66.9202V70.7408L107.088 70.7396C104.719 70.7359 104.39 70.6015 103.787 69.3878C103.428 68.6667 103.407 68.5359 103.407 67.1243C103.407 65.3765 103.588 64.5943 104.146 63.9379C104.725 63.2572 105.269 63.1117 107.277 63.1056L109.008 63.0995V66.9202ZM142.955 63.5126C143.275 63.7302 143.576 64.0919 143.764 64.483C144.038 65.0575 144.063 65.2665 144.063 67.0717V69.0358L143.68 69.5944C142.962 70.6455 142.709 70.7408 140.645 70.7408H138.839V67.0069C138.839 64.9536 138.881 63.229 138.934 63.1753C138.985 63.1215 139.796 63.097 140.737 63.1203C142.344 63.1618 142.475 63.1863 142.955 63.5126Z" fill="white"/>
<path fill-rule="evenodd" clip-rule="evenodd" d="M35.6359 36.5126C37.4386 35.2867 39.1822 34.5729 41.3521 34.1696C45.0808 33.4778 49.243 34.4299 52.4671 36.7118C53.5059 37.4464 57.1553 41.0348 58.887 43.0258C61.7048 46.261 62.9674 49.55 62.9663 53.6469C62.9651 57.0154 62.0282 59.978 60.1224 62.6474C59.0883 64.0945 53.6907 69.5994 52.4589 70.4635C50.0046 72.1844 47.5019 73.046 44.6094 73.1646C41.8531 73.2783 39.7531 72.8554 37.4505 71.7236C35.5423 70.7861 34.3946 69.823 31.0698 66.3654C27.2771 62.4225 26.4823 61.2809 25.5869 58.5028C24.9946 56.6658 24.8632 55.7308 24.8715 53.4514C24.8786 51.1854 25.0503 50.1917 25.793 48.0956C26.6695 45.6292 27.8006 44.1038 31.6774 40.1683C33.7265 38.088 34.8672 37.0345 35.6359 36.5126ZM46.122 41.7266C47.9851 42.2167 48.6461 42.6848 51.3372 45.4153C54.0768 48.1946 54.8195 49.1993 55.3407 50.8334C55.6261 51.7354 55.6782 52.1253 55.6806 53.3878C55.683 54.6797 55.638 55.0134 55.3371 55.9117C54.8124 57.481 54.2462 58.3121 52.3108 60.3606C48.8983 63.9723 47.5256 65.0148 45.5428 65.4951C44.4104 65.7701 42.7865 65.7433 41.5961 65.4304C39.8976 64.983 38.9725 64.3377 36.5882 61.9348C35.4215 60.7603 34.1896 59.4403 33.8497 59.0015C32.6818 57.4957 32.1014 55.7797 32.1014 53.84C32.1014 51.9004 32.6818 50.1844 33.8509 48.6786C34.1908 48.241 35.5648 46.7756 36.9033 45.4214C38.8813 43.4218 39.5079 42.8694 40.2399 42.4721C42.0533 41.4895 44.1901 41.2181 46.122 41.7266ZM34.5699 52.2133C34.9986 50.7258 35.2995 50.3225 38.3128 47.2009C40.9849 44.4302 41.2277 44.2101 41.3272 44.4803C41.3865 44.6416 41.5949 45.2185 41.7892 45.7624L42.1422 46.7499L39.823 49.1296C37.1461 51.8784 36.7588 52.4736 36.7588 53.84C36.7588 54.4732 36.8381 54.8056 37.1413 55.4301C37.8283 56.8418 38.9228 57.5544 40.4081 57.5544C41.7631 57.5544 42.218 57.2781 44.1996 55.2456C45.2514 54.1676 45.949 53.5443 46.0023 53.6335C46.0497 53.7141 46.257 54.2874 46.4607 54.907L46.8315 56.0351L45.4136 57.5018C43.7447 59.2288 42.8055 59.7996 41.2538 60.0294C37.6507 60.5635 34.3673 57.6118 34.3673 53.84C34.3673 53.3316 34.4585 52.5995 34.5687 52.2133H34.5699ZM42.4027 49.7248C43.9236 48.1848 44.613 47.7143 45.8543 47.3696C47.246 46.9846 48.9694 47.1985 50.2794 47.9196C51.2957 48.4769 52.3013 49.5928 52.8379 50.7552C53.2572 51.6633 53.3081 51.893 53.3531 53.0431C53.4147 54.6174 53.1695 55.6673 52.4908 56.7257C52.0407 57.4309 46.6396 63.0886 46.5365 62.9651C46.4453 62.8551 45.6956 60.748 45.6956 60.6014C45.6956 60.5207 46.7675 59.3449 48.0787 57.9895C50.7793 55.1967 50.9747 54.8899 50.9771 53.4514C50.9818 51.3003 49.4491 49.7004 47.3941 49.7077C46.0083 49.7126 45.5392 49.9974 43.5422 52.0446C42.1019 53.5198 41.8141 53.7618 41.7347 53.5602C41.5795 53.1315 41.4307 52.7004 41.2882 52.267L40.9364 51.211L42.4027 49.7248ZM50.8717 38.8849C49.7559 38.1149 48.2208 37.3999 46.9535 37.0601C44.9517 36.5248 42.0853 36.6104 40.1369 37.2655C37.7158 38.0795 36.7149 38.8421 32.9744 42.7288C29.2279 46.6204 28.6985 47.394 27.867 50.2137C27.5531 51.2746 27.5223 51.5716 27.5152 53.5161C27.5081 55.3544 27.5472 55.8078 27.7959 56.755C28.1773 58.2119 29.1545 60.2408 29.9848 61.3017C30.9466 62.5313 36.3098 67.8699 37.1698 68.4529C38.1623 69.1264 39.5802 69.7742 40.8203 70.12C42.3103 70.5356 45.5368 70.5356 47.0162 70.1176C48.1936 69.7876 50.1219 68.8611 51.0339 68.1889C51.946 67.5179 57.2998 62.0326 58.0235 61.0292C59.6083 58.8291 60.3628 56.359 60.3379 53.4514C60.3261 52.1008 60.2598 51.5203 60.0027 50.5107C59.6038 48.9042 58.9014 47.3948 57.9358 46.0691C56.9385 44.7186 51.9045 39.5999 50.8705 38.8849H50.8717ZM41.8567 39.0964C40.7291 39.3445 39.3717 39.9263 38.3673 40.5911C37.5085 41.1595 32.6783 45.9934 31.7923 47.1704C30.185 49.3056 29.4861 51.6413 29.6152 54.4426C29.7183 56.6707 30.3425 58.4943 31.6016 60.2518C32.407 61.3738 36.8819 65.8948 37.8023 66.5157C41.39 68.9357 46.0817 68.9125 49.6138 66.4595C50.5969 65.7775 55.1559 61.1721 56.081 59.9279C56.9273 58.7649 57.5505 57.4457 57.9169 56.0413C58.2722 54.6748 58.3054 52.1668 57.9832 50.9263C57.269 48.1836 56.7904 47.4356 53.635 44.1454C50.2131 40.5777 49.1696 39.8297 46.7272 39.1917C45.3177 38.825 43.2757 38.7835 41.8567 39.0964Z" fill="#9696A3"/>
</g>
<defs>
<clipPath id="clip0_465_14319">
<rect width="122" height="44" fill="white" transform="translate(24 33)"/>
</clipPath>
</defs>
</svg>
