<svg width="170" height="110" viewBox="0 0 170 110" fill="none" xmlns="http://www.w3.org/2000/svg">

<g clip-path="url(#clip0_465_14331)">
<path d="M57.0273 61.3405H60.582V55.6205H64.7858V61.3405H68.3399V47.9873H64.7858V53.095H60.582V47.9873H57.0273V61.3405Z" fill="white"/>
<path d="M73.9887 54.6639C73.9887 52.3482 74.8493 50.3975 77.008 50.3975C79.1668 50.3975 80.0273 52.3482 80.0273 54.6639C80.0273 56.8627 79.1668 58.9291 77.008 58.9291C74.8493 58.9291 73.9887 56.8627 73.9887 54.6639ZM70.3203 54.6639C70.3203 58.9101 72.6512 61.5698 77.008 61.5698C81.3649 61.5698 83.6963 58.9107 83.6963 54.6639C83.6963 50.3784 81.403 47.7568 77.008 47.7568C72.6131 47.7568 70.3203 50.3784 70.3203 54.6639Z" fill="white"/>
<path d="M86.0547 61.3405H89.4539L89.4563 51.0864H89.4944L92.743 61.3405H96.01L99.4117 51.0864H99.4498L99.4467 61.3405H102.87V47.9873H97.4822L94.52 56.8636H94.4819L91.6538 47.9873H86.0547V61.3405Z" fill="white"/>
<path d="M113.473 55.9641H110.129L111.85 50.7413H111.889L113.473 55.9641ZM104.645 61.3382H108.256L109.307 58.4878H114.313L115.307 61.3382H119.206L114.066 47.9844H109.708L104.645 61.3382Z" fill="white"/>
<path d="M121.125 61.3405L124.258 61.3498L124.278 52.215H124.316L128.979 61.3405H133.393V47.9873L130.201 47.9941L130.202 57.055H130.164L125.654 47.9873H121.125V61.3405Z" fill="white"/>
<path d="M139.515 47.9863H135.961V61.3402H139.515V47.9863Z" fill="white"/>
<path d="M144.938 61.3405H148.492V50.6273H151.779V47.9873H141.652V50.6273H144.938V61.3405Z" fill="white"/>
<path d="M37.7451 61.3495L44.7691 54.3163H48.7288L37.3339 65.7255H29.1986L32.5099 62.2H31.342L27.9207 65.7311H20.5446L24.9045 61.3551H27.3263L32.1147 56.6031L33.3754 56.5963L28.7038 61.3551L37.7451 61.3495ZM40.4159 43.8542H48.7288L37.3339 55.2634H29.423L33.6643 51.0062H32.4183L28.0762 55.2634H20.544L31.9118 43.8542H39.1441L35.3368 47.7311L36.5662 47.7348L40.4159 43.8542ZM31.5572 43L18.4866 56.1188H23.3955L18.1836 61.3495H23.6985L18.4866 66.5803H37.6874L50.7898 53.4615H45.6229L51.0935 47.9846H45.8103L50.7892 43H31.5572Z" fill="#9696A3"/>
</g>
<defs>
<clipPath id="clip0_465_14331">
<rect width="134" height="24" fill="white" transform="translate(18 43)"/>
</clipPath>
</defs>
</svg>
